<?xml version="1.0" encoding="utf-8"?>
<!-- Generator: Adobe Illustrator 16.0.0, SVG Export Plug-In . SVG Version: 6.00 Build 0)  -->
<!DOCTYPE svg PUBLIC "-//W3C//DTD SVG 1.1//EN" "http://www.w3.org/Graphics/SVG/1.1/DTD/svg11.dtd">
<svg version="1.1" id="Layer_1" xmlns="http://www.w3.org/2000/svg" xmlns:xlink="http://www.w3.org/1999/xlink" x="0px" y="0px"
	 width="24.083px" height="20.389px" viewBox="0 0 24.083 20.389" enable-background="new 0 0 24.083 20.389" xml:space="preserve">
<g>
	<defs>
		<rect id="SVGID_1_" y="0" width="24.083" height="20.389"/>
	</defs>
	<clipPath id="SVGID_2_">
		<use xlink:href="#SVGID_1_"  overflow="visible"/>
	</clipPath>
	<g clip-path="url(#SVGID_2_)">
		<path fill="#231F20" d="M23.458,20.389H4.792c-0.345,0-0.625-0.28-0.625-0.625V4.597c0-0.345,0.28-0.625,0.625-0.625h18.667
			c0.345,0,0.625,0.28,0.625,0.625v15.167C24.083,20.108,23.803,20.389,23.458,20.389z M5.417,19.139h17.417V5.222H5.417V19.139z"/>
	</g>
	<g clip-path="url(#SVGID_2_)">
		<path fill="#231F20" d="M4.301,17.535H0.625C0.28,17.535,0,17.255,0,16.91V0.625C0,0.28,0.28,0,0.625,0h18.667
			c0.345,0,0.625,0.28,0.625,0.625v3.785c0,0.345-0.28,0.625-0.625,0.625s-0.625-0.28-0.625-0.625V1.25H1.25v15.035h3.051
			c0.345,0,0.625,0.28,0.625,0.625S4.646,17.535,4.301,17.535z"/>
	</g>
</g>
<g>
	<path fill="#231F20" d="M19.959,9.305H8.625C8.28,9.305,8,9.025,8,8.68s0.28-0.625,0.625-0.625h11.334
		c0.345,0,0.625,0.28,0.625,0.625S20.304,9.305,19.959,9.305z"/>
</g>
<g>
	<path fill="#231F20" d="M19.959,12.805H8.625C8.28,12.805,8,12.524,8,12.18s0.28-0.625,0.625-0.625h11.334
		c0.345,0,0.625,0.28,0.625,0.625S20.304,12.805,19.959,12.805z"/>
</g>
<g>
	<path fill="#231F20" d="M19.959,16.305H8.625C8.28,16.305,8,16.024,8,15.68s0.28-0.625,0.625-0.625h11.334
		c0.345,0,0.625,0.28,0.625,0.625S20.304,16.305,19.959,16.305z"/>
</g>
</svg>
