<?xml version="1.0" encoding="utf-8"?>
<!-- Generator: Adobe Illustrator 16.0.0, SVG Export Plug-In . SVG Version: 6.00 Build 0)  -->
<!DOCTYPE svg PUBLIC "-//W3C//DTD SVG 1.1//EN" "http://www.w3.org/Graphics/SVG/1.1/DTD/svg11.dtd">
<svg version="1.1" id="Layer_1" xmlns="http://www.w3.org/2000/svg" xmlns:xlink="http://www.w3.org/1999/xlink" x="0px" y="0px"
	 width="58.35px" height="35.169px" viewBox="0 0 58.35 35.169" enable-background="new 0 0 58.35 35.169" xml:space="preserve">
<g>
	<defs>
		<rect id="SVGID_1_" width="58.35" height="35.169"/>
	</defs>
	<clipPath id="SVGID_2_">
		<use xlink:href="#SVGID_1_"  overflow="visible"/>
	</clipPath>
	<g clip-path="url(#SVGID_2_)">
		<defs>
			<rect id="SVGID_3_" width="58.35" height="35.169"/>
		</defs>
		<clipPath id="SVGID_4_">
			<use xlink:href="#SVGID_3_"  overflow="visible"/>
		</clipPath>
		<g opacity="0.06" clip-path="url(#SVGID_4_)">
			<g>
				<defs>
					<rect id="SVGID_5_" x="5.616" y="23.592" width="52.734" height="11.577"/>
				</defs>
				<clipPath id="SVGID_6_">
					<use xlink:href="#SVGID_5_"  overflow="visible"/>
				</clipPath>
				<path clip-path="url(#SVGID_6_)" fill="#061715" d="M56.18,23.592H26.354c-2.217-0.039-5.224,1.307-6.683,2.16L9.53,31.697
					l-3.124,1.832c-1.459,0.854-0.837,1.585,1.38,1.626l19.418,0.014c8.372,0,30.357-10.63,30.357-10.63
					C59.019,23.686,58.397,23.631,56.18,23.592"/>
			</g>
		</g>
		<path clip-path="url(#SVGID_4_)" fill="#231F6E" d="M29.829,0H7.554C5.009,0,2.929,2.082,2.929,4.625v17.692v5.449
			c0,2.544,2.081,4.625,4.625,4.625h22.275c2.543,0,4.625-2.081,4.625-4.625v-5.449V4.625C34.454,2.082,32.372,0,29.829,0"/>
		<path clip-path="url(#SVGID_4_)" fill="#2DFE98" d="M26.901,2.672H4.625C2.082,2.672,0,4.753,0,7.297v17.691v5.45
			c0,2.544,2.082,4.625,4.625,4.625h22.276c2.543,0,4.625-2.081,4.625-4.625v-5.45V7.297C31.525,4.753,29.444,2.672,26.901,2.672"/>
		<path clip-path="url(#SVGID_4_)" fill="#231F6E" d="M25.653,13.956h-3.139v-2.973c0-0.237-0.192-0.428-0.429-0.428H6.099
			c-0.237,0-0.428,0.191-0.428,0.428v13.946c0,0.237,0.191,0.43,0.428,0.43h3.14v2.015c0,0.237,0.192,0.428,0.428,0.428h15.986
			c0.237,0,0.428-0.19,0.428-0.428V14.384C26.081,14.147,25.89,13.956,25.653,13.956 M6.527,24.501v-13.09h15.13v2.545H9.667
			c-0.236,0-0.428,0.191-0.428,0.428v10.117H6.527z M25.225,26.945H10.096V14.813h15.129V26.945z"/>
		<path clip-path="url(#SVGID_4_)" fill="#231F6E" d="M12.95,18.31h9.706c0.237,0,0.428-0.191,0.428-0.428
			c0-0.237-0.191-0.428-0.428-0.428H12.95c-0.237,0-0.428,0.191-0.428,0.428C12.522,18.119,12.713,18.31,12.95,18.31"/>
		<path clip-path="url(#SVGID_4_)" fill="#231F6E" d="M12.95,21.306h9.706c0.237,0,0.428-0.19,0.428-0.428
			c0-0.236-0.191-0.428-0.428-0.428H12.95c-0.237,0-0.428,0.191-0.428,0.428C12.522,21.115,12.713,21.306,12.95,21.306"/>
		<path clip-path="url(#SVGID_4_)" fill="#231F6E" d="M12.95,24.304h9.706c0.237,0,0.428-0.19,0.428-0.429
			c0-0.236-0.191-0.427-0.428-0.427H12.95c-0.237,0-0.428,0.19-0.428,0.427C12.522,24.113,12.713,24.304,12.95,24.304"/>
	</g>
</g>
</svg>
