<?xml version="1.0" encoding="utf-8"?>
<!-- Generator: Adobe Illustrator 16.0.0, SVG Export Plug-In . SVG Version: 6.00 Build 0)  -->
<!DOCTYPE svg PUBLIC "-//W3C//DTD SVG 1.1//EN" "http://www.w3.org/Graphics/SVG/1.1/DTD/svg11.dtd">
<svg version="1.1" id="Layer_1" xmlns="http://www.w3.org/2000/svg" xmlns:xlink="http://www.w3.org/1999/xlink" x="0px" y="0px"
	 width="33.284px" height="22.519px" viewBox="0 0 33.284 22.519" enable-background="new 0 0 33.284 22.519" xml:space="preserve">
<g>
	<defs>
		<rect id="SVGID_1_" width="33.284" height="22.519"/>
	</defs>
	<clipPath id="SVGID_2_">
		<use xlink:href="#SVGID_1_"  overflow="visible"/>
	</clipPath>
	<g clip-path="url(#SVGID_2_)">
		<path fill="#2D398F" d="M21.975,22.518c-0.336,0-0.672-0.129-0.928-0.386c-0.51-0.512-0.508-1.341,0.005-1.851l9.067-9.023
			l-9.067-9.022c-0.513-0.51-0.515-1.338-0.005-1.851c0.511-0.511,1.34-0.514,1.851-0.005l10,9.95
			c0.247,0.246,0.386,0.58,0.386,0.928s-0.139,0.682-0.386,0.927l-10,9.951C22.643,22.391,22.309,22.518,21.975,22.518z"/>
	</g>
	<g clip-path="url(#SVGID_2_)">
		<path fill="#2D398F" d="M31.975,12.568H1.309C0.586,12.568,0,11.982,0,11.259s0.586-1.309,1.309-1.309h30.666
			c0.723,0,1.309,0.586,1.309,1.309S32.697,12.568,31.975,12.568z"/>
	</g>
</g>
</svg>
