<?xml version="1.0" encoding="utf-8"?>
<!-- Generator: Adobe Illustrator 16.0.0, SVG Export Plug-In . SVG Version: 6.00 Build 0)  -->
<!DOCTYPE svg PUBLIC "-//W3C//DTD SVG 1.1//EN" "http://www.w3.org/Graphics/SVG/1.1/DTD/svg11.dtd">
<svg version="1.1" id="Layer_1" xmlns="http://www.w3.org/2000/svg" xmlns:xlink="http://www.w3.org/1999/xlink" x="0px" y="0px"
	 width="58.35px" height="32.498px" viewBox="0 0 58.35 32.498" enable-background="new 0 0 58.35 32.498" xml:space="preserve">
<g>
	<defs>
		<rect id="SVGID_1_" width="58.35" height="32.498"/>
	</defs>
	<clipPath id="SVGID_2_">
		<use xlink:href="#SVGID_1_"  overflow="visible"/>
	</clipPath>
	<g clip-path="url(#SVGID_2_)">
		<defs>
			<rect id="SVGID_3_" y="0" width="58.35" height="32.497"/>
		</defs>
		<clipPath id="SVGID_4_">
			<use xlink:href="#SVGID_3_"  overflow="visible"/>
		</clipPath>
		<g opacity="0.27" clip-path="url(#SVGID_4_)">
			<g>
				<defs>
					<rect id="SVGID_5_" x="5.616" y="20.92" width="52.734" height="11.577"/>
				</defs>
				<clipPath id="SVGID_6_">
					<use xlink:href="#SVGID_5_"  overflow="visible"/>
				</clipPath>
				<path clip-path="url(#SVGID_6_)" fill="#061715" d="M56.18,20.92H26.354c-2.217-0.039-5.224,1.307-6.683,2.16L9.53,29.026
					l-3.124,1.832c-1.459,0.854-0.837,1.585,1.38,1.626l19.418,0.014c8.372,0,30.357-10.63,30.357-10.63
					C59.019,21.014,58.397,20.959,56.18,20.92"/>
			</g>
		</g>
		<path clip-path="url(#SVGID_4_)" fill="#00D0B7" d="M26.901,0H4.625C2.082,0,0,2.082,0,4.625v17.691v5.45
			c0,2.544,2.082,4.625,4.625,4.625h22.276c2.543,0,4.625-2.081,4.625-4.625v-5.45V4.625C31.525,2.082,29.444,0,26.901,0"/>
		<g clip-path="url(#SVGID_4_)">
			<path fill="#084CA1" d="M22.91,18.764H9.116c-0.345,0-0.625-0.28-0.625-0.625V9.507H5.217c-0.345,0-0.625-0.28-0.625-0.625
				s0.28-0.625,0.625-0.625h3.899c0.345,0,0.625,0.28,0.625,0.625v8.632h12.685l2.278-8.789c0.086-0.334,0.423-0.538,0.762-0.448
				C25.8,8.364,26,8.705,25.914,9.039l-2.399,9.257C23.444,18.572,23.195,18.764,22.91,18.764z"/>
		</g>
		<g clip-path="url(#SVGID_4_)">
			<path fill="#084CA1" d="M11.516,26.123c-1.529,0-2.773-1.244-2.773-2.773c0-1.528,1.244-2.772,2.773-2.772
				c1.53,0,2.774,1.244,2.774,2.772C14.29,24.878,13.045,26.123,11.516,26.123z M11.516,21.827c-0.84,0-1.523,0.683-1.523,1.522
				s0.683,1.523,1.523,1.523c0.84,0,1.524-0.684,1.524-1.523S12.356,21.827,11.516,21.827z"/>
		</g>
		<g clip-path="url(#SVGID_4_)">
			<path fill="#084CA1" d="M20.141,26.123c-1.529,0-2.773-1.244-2.773-2.773c0-1.528,1.244-2.772,2.773-2.772
				c1.53,0,2.774,1.244,2.774,2.772C22.915,24.878,21.67,26.123,20.141,26.123z M20.141,21.827c-0.84,0-1.523,0.683-1.523,1.522
				s0.683,1.523,1.523,1.523c0.84,0,1.524-0.684,1.524-1.523S20.981,21.827,20.141,21.827z"/>
		</g>
	</g>
</g>
</svg>
