<?xml version="1.0" encoding="utf-8"?>
<!-- Generator: Adobe Illustrator 16.0.0, SVG Export Plug-In . SVG Version: 6.00 Build 0)  -->
<!DOCTYPE svg PUBLIC "-//W3C//DTD SVG 1.1//EN" "http://www.w3.org/Graphics/SVG/1.1/DTD/svg11.dtd">
<svg version="1.1" id="Layer_1" xmlns="http://www.w3.org/2000/svg" xmlns:xlink="http://www.w3.org/1999/xlink" x="0px" y="0px"
	 width="24.237px" height="20.261px" viewBox="0 0 24.237 20.261" enable-background="new 0 0 24.237 20.261" xml:space="preserve">
<g>
	<defs>
		<rect id="SVGID_1_" y="0" width="24.237" height="20.261"/>
	</defs>
	<clipPath id="SVGID_2_">
		<use xlink:href="#SVGID_1_"  overflow="visible"/>
	</clipPath>
	<g clip-path="url(#SVGID_2_)">
		<g>
			<path fill="#231F20" d="M20.868,11.842H5.086c-0.345,0-0.625-0.28-0.625-0.625V1.25H0.625C0.28,1.25,0,0.97,0,0.625
				S0.28,0,0.625,0h4.461c0.345,0,0.625,0.28,0.625,0.625v9.967h14.674l2.623-10.124c0.087-0.334,0.428-0.536,0.763-0.448
				c0.334,0.086,0.534,0.428,0.448,0.762l-2.745,10.592C21.401,11.649,21.153,11.842,20.868,11.842z"/>
		</g>
	</g>
	<g clip-path="url(#SVGID_2_)">
		<g>
			<path fill="#231F20" d="M7.832,20.261c-1.701,0-3.084-1.383-3.084-3.083s1.383-3.084,3.084-3.084c1.7,0,3.083,1.384,3.083,3.084
				S9.532,20.261,7.832,20.261z M7.832,15.344c-1.011,0-1.834,0.822-1.834,1.834c0,1.011,0.823,1.833,1.834,1.833
				c1.011,0,1.833-0.822,1.833-1.833C9.665,16.166,8.842,15.344,7.832,15.344z"/>
		</g>
	</g>
	<g clip-path="url(#SVGID_2_)">
		<g>
			<path fill="#231F20" d="M17.699,20.261c-1.7,0-3.084-1.383-3.084-3.083s1.384-3.084,3.084-3.084s3.083,1.384,3.083,3.084
				S19.399,20.261,17.699,20.261z M17.699,15.344c-1.012,0-1.834,0.822-1.834,1.834c0,1.011,0.822,1.833,1.834,1.833
				c1.011,0,1.833-0.822,1.833-1.833C19.532,16.166,18.71,15.344,17.699,15.344z"/>
		</g>
	</g>
</g>
</svg>
