<svg id="Layer_1" data-name="Layer 1" xmlns="http://www.w3.org/2000/svg" viewBox="0 0 24.97 22.3"><defs><style>.cls-1,.cls-2{fill:none;stroke:#ff0090;}.cls-1{stroke-miterlimit:10;}.cls-2{stroke-linecap:round;stroke-linejoin:round;stroke-width:1.25px;}</style></defs><title>dankregistry</title><path class="cls-1" d="M3978.2,1810.75c1.58-8.93-3.85-7.42-4.23-7.3a.36.36,0,0,0-.28.4h0c.74,6-2.59,8.48-3.62,9.1a1.3,1.3,0,0,0-.15-.18,1.52,1.52,0,0,0-1.08-.45H3964a1.54,1.54,0,0,0-1.53,1.53V1823a1.54,1.54,0,0,0,1.53,1.53h4.82a1.52,1.52,0,0,0,1.08-.45,1.5,1.5,0,0,0,.29-.42l1.59.87a.36.36,0,0,0,.2.06h9.18c2.58.33,2.93-2.23,3-3,1.35-.74,1.14-2.34,1-3a2.14,2.14,0,0,0,.62-3.28C3988.94,1810,3980.41,1810.53,3978.2,1810.75Z" transform="translate(-3961.99 -1802.78)"/><line class="cls-2" x1="8.2" y1="10.01" x2="8.2" y2="21.07"/></svg>