<?xml version="1.0" encoding="utf-8"?>
<!-- Generator: Adobe Illustrator 16.0.0, SVG Export Plug-In . SVG Version: 6.00 Build 0)  -->
<!DOCTYPE svg PUBLIC "-//W3C//DTD SVG 1.1//EN" "http://www.w3.org/Graphics/SVG/1.1/DTD/svg11.dtd">
<svg version="1.1" id="Layer_1" xmlns="http://www.w3.org/2000/svg" xmlns:xlink="http://www.w3.org/1999/xlink" x="0px" y="0px"
	 width="58.4px" height="35.447px" viewBox="0 0 58.4 35.447" enable-background="new 0 0 58.4 35.447" xml:space="preserve">
<g>
	<defs>
		<rect id="SVGID_1_" width="58.4" height="35.447"/>
	</defs>
	<clipPath id="SVGID_2_">
		<use xlink:href="#SVGID_1_"  overflow="visible"/>
	</clipPath>
	<g clip-path="url(#SVGID_2_)">
		<defs>
			<rect id="SVGID_3_" y="0" width="58.4" height="35.447"/>
		</defs>
		<clipPath id="SVGID_4_">
			<use xlink:href="#SVGID_3_"  overflow="visible"/>
		</clipPath>
		<g opacity="0.06" clip-path="url(#SVGID_4_)">
			<g>
				<defs>
					<rect id="SVGID_5_" x="5.667" y="23.87" width="52.733" height="11.577"/>
				</defs>
				<clipPath id="SVGID_6_">
					<use xlink:href="#SVGID_5_"  overflow="visible"/>
				</clipPath>
				<path clip-path="url(#SVGID_6_)" fill="#061715" d="M56.23,23.871H26.405c-2.218-0.04-5.225,1.306-6.683,2.159L9.58,31.976
					l-3.124,1.831c-1.458,0.855-0.837,1.586,1.38,1.626l19.418,0.015c8.373,0,30.357-10.63,30.357-10.63
					C59.069,23.963,58.449,23.911,56.23,23.871"/>
			</g>
		</g>
		<path clip-path="url(#SVGID_4_)" fill="#FFEA00" d="M29.24,0H10.068C6.671,0,3.892,2.779,3.892,6.177v16.14v3.897
			c0,3.398,2.78,6.177,6.177,6.177H29.24c3.397,0,6.178-2.778,6.178-6.177v-3.897V6.177C35.418,2.779,32.638,0,29.24,0"/>
		<path clip-path="url(#SVGID_4_)" fill="#9D0BDB" d="M26.901,3.002H4.625C2.082,3.002,0,5.083,0,7.627v17.692v5.45
			c0,2.544,2.082,4.625,4.625,4.625h22.276c2.543,0,4.625-2.081,4.625-4.625v-5.45V7.627C31.525,5.083,29.444,3.002,26.901,3.002"/>
		<path clip-path="url(#SVGID_4_)" fill="#1FF2C8" d="M26.49,17.515l-3.512-6.107c-0.091-0.158-0.261-0.256-0.443-0.256H8.418
			c-0.182,0-0.352,0.098-0.442,0.256l-3.529,6.134c-0.011,0.02-0.021,0.039-0.033,0.07c-0.009,0.025-0.016,0.05-0.027,0.097
			c-0.005,0.029-0.008,0.058-0.008,0.088c0,0.029,0.003,0.058,0.013,0.111c0.006,0.024,0.013,0.048,0.025,0.08
			c0.008,0.022,0.019,0.043,0.031,0.064l0.107-0.062l-0.084,0.096c0.012,0.019,0.026,0.036,0.041,0.054l10.604,10.605
			c0.096,0.096,0.224,0.148,0.361,0.148c0.136,0,0.264-0.053,0.36-0.148L26.42,18.163c0.101-0.098,0.155-0.228,0.155-0.367
			C26.575,17.692,26.544,17.591,26.49,17.515 M25.184,17.287h-5.297l2.648-4.604L25.184,17.287z M24.835,18.306l-8.224,8.224
			l2.762-8.224H24.835z M16.358,12.171h5.296l-2.648,4.604L16.358,12.171z M18.297,18.306l-2.82,8.401l-2.821-8.401H18.297z
			 M12.828,17.287l2.649-4.604l2.648,4.604H12.828z M11.582,18.306l2.761,8.223l-8.223-8.223H11.582z M9.299,12.171h5.297
			l-2.649,4.604L9.299,12.171z M11.066,17.287H5.771l2.648-4.604L11.066,17.287z"/>
	</g>
</g>
</svg>
