<!-- Generated by IcoMoon.io -->
<svg version="1.1" xmlns="http://www.w3.org/2000/svg" width="1024" height="1024" viewBox="0 0 1024 1024">
<title></title>
<path fill="#ff0090" d="M862.805 0c59.989 0 108.373 48.512 111.232 105.6v918.4l-114.219-96.981-62.72-57.088-68.437-59.648 28.587 94.080h-598.955c-59.819 0-108.373-45.44-108.373-105.643v-692.907c0-57.088 48.64-105.685 108.587-105.685l704.299-0.128zM601.771 242.475h-1.28l-8.619 8.533c88.448 25.6 131.243 65.579 131.243 65.579-57.003-28.501-108.373-42.752-159.744-48.512-37.12-5.76-74.24-2.731-105.6 0h-8.533c-20.053 0-62.72 8.533-119.893 31.36-19.925 8.661-31.36 14.336-31.36 14.336s42.752-42.752 136.96-65.579l-5.76-5.76s-71.339-2.731-148.352 54.187c0 0-77.013 134.144-77.013 299.52 0 0 42.667 74.24 159.701 77.056 0 0 17.067-22.741 34.347-42.752-65.707-19.968-91.307-59.904-91.307-59.904s5.717 2.816 14.293 8.533h2.56c1.28 0 1.877 0.64 2.56 1.28v0.256c0.683 0.683 1.28 1.28 2.56 1.28 14.080 5.803 28.16 11.52 39.68 17.067 19.883 8.619 45.44 17.195 76.8 22.869 39.68 5.76 85.163 8.533 136.96 0 25.6-5.76 51.2-11.392 76.8-22.827 16.64-8.533 37.12-17.067 59.605-31.445 0 0-25.6 39.936-94.080 59.904 14.080 19.883 33.92 42.667 33.92 42.667 117.077-2.56 162.56-76.8 165.12-73.643 0-165.12-77.44-299.52-77.44-299.52-69.76-51.797-135.040-53.76-146.56-53.76l2.389-0.853zM608.939 430.763c29.995 0 54.187 25.6 54.187 56.96 0 31.573-24.32 57.173-54.187 57.173s-54.187-25.6-54.187-56.917c0.085-31.573 24.448-57.088 54.187-57.088zM415.104 430.763c29.867 0 54.016 25.6 54.016 56.96 0 31.573-24.32 57.173-54.187 57.173s-54.187-25.6-54.187-56.917c0-31.573 24.32-57.088 54.187-57.088z"></path>
</svg>
