<?xml version="1.0" encoding="utf-8"?>
<!-- Generator: Adobe Illustrator 16.0.0, SVG Export Plug-In . SVG Version: 6.00 Build 0)  -->
<!DOCTYPE svg PUBLIC "-//W3C//DTD SVG 1.1//EN" "http://www.w3.org/Graphics/SVG/1.1/DTD/svg11.dtd">
<svg version="1.1" id="Layer_1" xmlns="http://www.w3.org/2000/svg" xmlns:xlink="http://www.w3.org/1999/xlink" x="0px" y="0px"
	 width="196.07px" height="47.245px" viewBox="0 0 196.07 47.245" enable-background="new 0 0 196.07 47.245" xml:space="preserve">
<g>
	<defs>
		<rect id="SVGID_1_" y="0" width="196.07" height="47.245"/>
	</defs>
	<clipPath id="SVGID_2_">
		<use xlink:href="#SVGID_1_"  overflow="visible"/>
	</clipPath>
	<path clip-path="url(#SVGID_2_)" d="M73.079,11.156h-1.281c-0.787,0-1.254,0.437-1.254,1.224v7.254
		c-1.222-1.806-3.029-2.535-5.011-2.535c-4.282,0-7.196,3.409-7.196,7.721c0,4.312,2.914,7.72,7.196,7.72
		c1.982,0,3.789-0.728,5.011-2.533v0.989c0,0.787,0.467,1.225,1.254,1.225h1.281c0.787,0,1.224-0.438,1.224-1.225V12.38
		C74.303,11.593,73.866,11.156,73.079,11.156 M66.262,29.423c-2.651,0-4.166-2.069-4.166-4.604c0-2.505,1.515-4.603,4.166-4.603
		c2.593,0,4.342,1.952,4.37,4.603C70.604,27.471,68.854,29.423,66.262,29.423"/>
	<path clip-path="url(#SVGID_2_)" d="M80.339,10.865c-1.457,0-2.36,0.961-2.36,2.185s0.932,2.185,2.36,2.185
		c1.427,0,2.389-0.961,2.389-2.185S81.796,10.865,80.339,10.865"/>
	<path clip-path="url(#SVGID_2_)" d="M81.009,17.42h-1.312c-0.786,0-1.223,0.466-1.223,1.253v12.323
		c0,0.787,0.437,1.225,1.223,1.225h1.312c0.787,0,1.224-0.438,1.224-1.225V18.673C82.233,17.886,81.796,17.42,81.009,17.42"/>
	<path clip-path="url(#SVGID_2_)" d="M92.847,23.654l-1.98-0.699c-0.817-0.262-1.516-0.67-1.516-1.457
		c0-0.845,0.671-1.544,1.807-1.544c0.583,0,1.165,0.146,1.602,0.67c0.467,0.496,0.845,0.758,1.544,0.583l0.67-0.175
		c0.816-0.204,1.225-0.816,0.729-1.573c-1.02-1.748-2.739-2.36-4.603-2.36c-3.06,0-5.216,1.923-5.216,4.545
		c0,2.418,2.039,3.583,3.934,4.166l1.893,0.671c0.961,0.35,1.573,0.758,1.573,1.544c0,0.932-0.903,1.631-2.184,1.631
		c-1.02,0-1.923-0.407-2.447-1.049c-0.495-0.554-0.845-0.874-1.545-0.698l-0.757,0.175c-0.787,0.203-1.194,0.757-0.816,1.544
		c0.991,1.923,3.088,2.913,5.565,2.913c3.029,0,5.651-1.573,5.651-4.545C96.723,26.306,95.79,24.587,92.847,23.654"/>
	<path clip-path="url(#SVGID_2_)" d="M109.316,26.714h-1.544c-0.466,0-0.612,0.262-0.553,0.728c0.028,0.204,0.028,0.379,0.028,0.524
		c0,0.903-0.67,1.457-1.485,1.457c-0.787,0-1.457-0.524-1.457-1.864v-7.284h3.671c0.437,0,0.67-0.233,0.67-0.67V18.09
		c0-0.407-0.233-0.67-0.67-0.67h-3.671v-3.088c0-0.612-0.35-0.962-0.962-0.962h-1.02c-0.553,0-0.933,0.292-1.02,0.874l-0.524,3.176
		h-1.806c-0.438,0-0.671,0.263-0.671,0.67v1.515c0,0.437,0.233,0.67,0.671,0.67h1.631v7.138c0,3.962,2.477,5.127,4.924,5.127
		c2.768,0,4.69-1.456,4.69-4.194c0-0.116-0.029-0.611-0.146-1.107C109.986,26.859,109.695,26.714,109.316,26.714"/>
	<path clip-path="url(#SVGID_2_)" d="M120.974,17.158c-0.146-0.029-0.467-0.059-0.583-0.059c-1.515,0-3.409,1.079-3.904,3.613
		v-2.039c0-0.787-0.437-1.253-1.224-1.253h-1.224c-0.786,0-1.224,0.466-1.224,1.253v12.323c0,0.787,0.438,1.226,1.224,1.226h1.281
		c0.787,0,1.254-0.438,1.254-1.226v-4.632c0-4.836,2.098-5.681,3.495-5.681c0.234,0,0.496,0.029,0.758,0.087
		c0.554,0.088,0.903-0.233,0.903-0.99v-1.456C121.73,17.741,121.614,17.216,120.974,17.158"/>
	<path clip-path="url(#SVGID_2_)" d="M125.993,10.865c-1.456,0-2.359,0.961-2.359,2.185s0.932,2.185,2.359,2.185
		c1.429,0,2.389-0.961,2.389-2.185S127.45,10.865,125.993,10.865"/>
	<path clip-path="url(#SVGID_2_)" d="M126.663,17.42h-1.311c-0.787,0-1.224,0.466-1.224,1.253v12.323
		c0,0.787,0.437,1.225,1.224,1.225h1.311c0.787,0,1.224-0.438,1.224-1.225V18.673C127.887,17.886,127.45,17.42,126.663,17.42"/>
	<path clip-path="url(#SVGID_2_)" d="M139.635,20.246c0.35,0,1.457,0.029,2.563,0.583c0.729,0.349,1.253,0.321,1.72-0.321
		l0.35-0.437c0.495-0.64,0.408-1.31-0.291-1.718c-1.631-0.962-3.263-1.253-4.545-1.253c-5.303,0-8.449,3.525-8.449,7.837
		c0,4.224,3.263,7.603,8.449,7.603c1.194,0,2.709-0.231,4.194-1.048c0.962-0.496,1.107-1.253,0.642-1.894l-0.35-0.467
		c-0.437-0.611-0.99-0.641-1.72-0.291c-1.106,0.525-2.214,0.582-2.563,0.582c-2.825,0-4.896-1.893-4.896-4.603
		C134.739,22.14,136.81,20.246,139.635,20.246"/>
	<path clip-path="url(#SVGID_2_)" d="M157.637,26.714h-1.544c-0.466,0-0.612,0.262-0.553,0.728c0.028,0.204,0.028,0.379,0.028,0.524
		c0,0.903-0.67,1.457-1.485,1.457c-0.787,0-1.457-0.524-1.457-1.864v-7.284h3.671c0.437,0,0.67-0.233,0.67-0.67V18.09
		c0-0.407-0.233-0.67-0.67-0.67h-3.671v-3.088c0-0.612-0.35-0.962-0.962-0.962h-1.02c-0.554,0-0.933,0.292-1.02,0.874l-0.524,3.176
		h-1.807c-0.437,0-0.67,0.263-0.67,0.67v1.515c0,0.437,0.233,0.67,0.67,0.67h1.632v7.138c0,3.962,2.477,5.127,4.923,5.127
		c2.769,0,4.691-1.456,4.691-4.194c0-0.116-0.029-0.611-0.146-1.107C158.307,26.859,158.016,26.714,157.637,26.714"/>
	<path clip-path="url(#SVGID_2_)" d="M169.427,11.477c-5.564,0-8.943,4.72-8.943,10.547c0,5.798,3.379,10.517,8.943,10.517
		c5.536,0,8.974-4.719,8.974-10.517C178.4,16.196,174.963,11.477,169.427,11.477 M169.427,14.652c1.36,0,2.498,0.572,3.368,1.53
		l-8.156,8.939c-0.276-0.941-0.427-1.987-0.427-3.098C164.212,17.916,166.164,14.652,169.427,14.652 M169.427,29.366
		c-1.251,0-2.307-0.483-3.136-1.306l8.063-8.838c0.226,0.862,0.345,1.806,0.345,2.801C174.699,26.101,172.69,29.366,169.427,29.366"
		/>
	<path clip-path="url(#SVGID_2_)" d="M195.72,30.706l-5.099-6.148l4.632-5.622c0.67-0.816,0.35-1.515-0.728-1.515h-1.37
		c-0.641,0-1.106,0.233-1.515,0.728l-3.409,4.079l-3.438-4.079c-0.407-0.495-0.874-0.728-1.485-0.728h-1.37
		c-1.077,0-1.397,0.699-0.728,1.515l4.632,5.622l-5.127,6.148c-0.67,0.814-0.351,1.515,0.699,1.515h1.397
		c0.642,0,1.107-0.204,1.516-0.7l3.903-4.661l3.875,4.661c0.438,0.496,0.874,0.7,1.516,0.7h1.398
		C196.069,32.22,196.39,31.52,195.72,30.706"/>
	<path clip-path="url(#SVGID_2_)" d="M25.098,21.251c-6.224-3.555-11.465,5.62-5.241,9.175c2.875,1.642,6.31,0.986,6.967-2.691
		C27.198,25.634,26.956,22.312,25.098,21.251"/>
	<path clip-path="url(#SVGID_2_)" d="M43.624,14.748c-1.64-2.761-5.249-6.765-9.752-9.906v29.94c0,1.654-1.354,3.009-3.009,3.009
		c-1.207,0-2.246-0.724-2.724-1.754c-1.791,1.105-3.895,1.754-6.154,1.754c-6.486,0-11.744-5.259-11.744-11.744
		c0-6.486,5.258-11.744,11.744-11.744c2.141,0,4.141,0.581,5.869,1.582V4.295c0-0.926,0.433-1.747,1.096-2.3
		c-5.777-2.656-12.257-3.184-17.783,1.696C1.814,11.949-2.829,23.505,1.83,34.989c4.686,11.551,22.418,15.547,33.249,9.354
		C45.909,38.15,48.077,22.245,43.624,14.748"/>
</g>
</svg>
