<svg id="Layer_1" data-name="Layer 1" xmlns="http://www.w3.org/2000/svg" viewBox="0 0 196.07 47.24"><defs><style>.cls-1{fill:#47608e;}</style></defs><title>district0x</title><path class="cls-1" d="M493.93,70.41h-1.28a1.13,1.13,0,0,0-1.25,1.22v7.26a5.74,5.74,0,0,0-5-2.54c-4.28,0-7.2,3.41-7.2,7.72s2.92,7.72,7.2,7.72a5.73,5.73,0,0,0,5-2.53v1a1.12,1.12,0,0,0,1.25,1.22h1.28a1.1,1.1,0,0,0,1.23-1.22V71.63A1.11,1.11,0,0,0,493.93,70.41Zm-6.81,18.27c-2.65,0-4.17-2.07-4.17-4.61s1.52-4.6,4.17-4.6a4.61,4.61,0,0,1,0,9.21Z" transform="translate(-420.85 -59.25)"/><path class="cls-1" d="M501.19,70.12a2.19,2.19,0,1,0,0,4.37,2.19,2.19,0,1,0,0-4.37Z" transform="translate(-420.85 -59.25)"/><path class="cls-1" d="M501.86,76.67h-1.31a1.13,1.13,0,0,0-1.22,1.26V90.25a1.1,1.1,0,0,0,1.22,1.22h1.31a1.1,1.1,0,0,0,1.23-1.22V77.93A1.13,1.13,0,0,0,501.86,76.67Z" transform="translate(-420.85 -59.25)"/><path class="cls-1" d="M513.7,82.91l-2-.7c-.82-.26-1.51-.67-1.51-1.46a1.61,1.61,0,0,1,1.8-1.54,1.94,1.94,0,0,1,1.6.67,1.42,1.42,0,0,0,1.55.58l.67-.17c.81-.21,1.22-.82.73-1.58A5,5,0,0,0,512,76.35c-3.06,0-5.21,1.93-5.21,4.55,0,2.42,2,3.58,3.93,4.17l1.9.67c1,.34,1.57.75,1.57,1.54s-.9,1.63-2.19,1.63a3.13,3.13,0,0,1-2.44-1c-.5-.55-.85-.87-1.55-.7l-.76.18c-.78.2-1.19.75-.81,1.54,1,1.92,3.09,2.91,5.56,2.91,3,0,5.66-1.57,5.66-4.54C517.58,85.56,516.64,83.84,513.7,82.91Z" transform="translate(-420.85 -59.25)"/><path class="cls-1" d="M530.17,86h-1.54c-.47,0-.61.26-.56.73a3.39,3.39,0,0,1,0,.52,1.42,1.42,0,0,1-1.48,1.46c-.79,0-1.46-.53-1.46-1.87V79.53h3.67a.6.6,0,0,0,.67-.67V77.34a.62.62,0,0,0-.67-.67h-3.67V73.59a.88.88,0,0,0-1-1h-1a1,1,0,0,0-1,.88l-.52,3.17h-1.81a.62.62,0,0,0-.67.67v1.52a.6.6,0,0,0,.67.67h1.63v7.14c0,4,2.48,5.12,4.92,5.12,2.77,0,4.69-1.45,4.69-4.19a6.32,6.32,0,0,0-.14-1.11A.68.68,0,0,0,530.17,86Z" transform="translate(-420.85 -59.25)"/><path class="cls-1" d="M541.83,76.41a4.4,4.4,0,0,0-.58-.06A4.13,4.13,0,0,0,537.34,80v-2a1.13,1.13,0,0,0-1.22-1.26h-1.23a1.13,1.13,0,0,0-1.22,1.26V90.25a1.1,1.1,0,0,0,1.22,1.22h1.29a1.12,1.12,0,0,0,1.25-1.22V85.62c0-4.84,2.1-5.68,3.49-5.68a4.09,4.09,0,0,1,.76.08c.56.09.91-.23.91-1V77.58C542.59,77,542.47,76.47,541.83,76.41Z" transform="translate(-420.85 -59.25)"/><path class="cls-1" d="M546.85,70.12a2.19,2.19,0,1,0,0,4.37,2.19,2.19,0,1,0,0-4.37Z" transform="translate(-420.85 -59.25)"/><path class="cls-1" d="M547.52,76.67h-1.31A1.13,1.13,0,0,0,545,77.93V90.25a1.1,1.1,0,0,0,1.23,1.22h1.31a1.1,1.1,0,0,0,1.22-1.22V77.93A1.13,1.13,0,0,0,547.52,76.67Z" transform="translate(-420.85 -59.25)"/><path class="cls-1" d="M560.49,79.5a5.91,5.91,0,0,1,2.56.58c.73.35,1.26.32,1.72-.32l.35-.43a1.06,1.06,0,0,0-.29-1.72,9,9,0,0,0-4.54-1.26c-5.31,0-8.45,3.53-8.45,7.84s3.26,7.6,8.45,7.6a8.75,8.75,0,0,0,4.19-1c1-.5,1.11-1.26.64-1.9l-.35-.46c-.43-.62-1-.64-1.72-.3a6.29,6.29,0,0,1-2.56.59,4.6,4.6,0,1,1,0-9.18Z" transform="translate(-420.85 -59.25)"/><path class="cls-1" d="M578.49,86H577c-.47,0-.61.26-.56.73a3.39,3.39,0,0,1,0,.52,1.42,1.42,0,0,1-1.48,1.46c-.79,0-1.46-.53-1.46-1.87V79.53h3.67a.6.6,0,0,0,.67-.67V77.34a.62.62,0,0,0-.67-.67h-3.67V73.59a.88.88,0,0,0-1-1h-1a1,1,0,0,0-1,.88L570,76.67h-1.81a.62.62,0,0,0-.67.67v1.52a.6.6,0,0,0,.67.67h1.63v7.14c0,4,2.48,5.12,4.92,5.12,2.77,0,4.69-1.45,4.69-4.19a5.45,5.45,0,0,0-.14-1.11A.68.68,0,0,0,578.49,86Z" transform="translate(-420.85 -59.25)"/><path class="cls-1" d="M590.28,70.73c-5.56,0-8.94,4.72-8.94,10.55s3.38,10.51,8.94,10.51,9-4.71,9-10.51S595.82,70.73,590.28,70.73Zm0,3.18a4.44,4.44,0,0,1,3.37,1.53l-8.16,8.94a11.28,11.28,0,0,1-.42-3.1C585.07,77.17,587,73.91,590.28,73.91Zm0,14.71a4.32,4.32,0,0,1-3.13-1.3l8.06-8.84a11.31,11.31,0,0,1,.34,2.8C595.55,85.36,593.54,88.62,590.28,88.62Z" transform="translate(-420.85 -59.25)"/><path class="cls-1" d="M616.57,90l-5.09-6.15,4.63-5.62c.67-.82.35-1.52-.73-1.52H614a1.82,1.82,0,0,0-1.51.73l-3.41,4.08-3.44-4.08a1.84,1.84,0,0,0-1.49-.73h-1.37c-1.07,0-1.39.7-.72,1.52l4.63,5.62L601.57,90c-.67.81-.35,1.51.7,1.51h1.4a1.78,1.78,0,0,0,1.51-.7l3.91-4.66L613,90.77a1.84,1.84,0,0,0,1.52.7h1.39C616.92,91.47,617.24,90.77,616.57,90Z" transform="translate(-420.85 -59.25)"/><path class="cls-1" d="M446,80.51c-6.22-3.56-11.46,5.62-5.24,9.17,2.88,1.64,6.31,1,7-2.69C448.05,84.89,447.81,81.57,446,80.51Z" transform="translate(-420.85 -59.25)"/><path class="cls-1" d="M464.48,74a36.13,36.13,0,0,0-9.75-9.9V94A3,3,0,0,1,449,95.29a11.62,11.62,0,0,1-6.15,1.76,11.75,11.75,0,1,1,5.87-21.91V63.55a3,3,0,0,1,1.09-2.3C444,58.59,437.55,58.07,432,63c-9.35,8.25-14,19.81-9.34,31.29s22.42,15.55,33.25,9.36S468.93,81.5,464.48,74Z" transform="translate(-420.85 -59.25)"/></svg>