<?xml version="1.0" encoding="utf-8"?>
<!-- Generator: Adobe Illustrator 16.0.0, SVG Export Plug-In . SVG Version: 6.00 Build 0)  -->
<!DOCTYPE svg PUBLIC "-//W3C//DTD SVG 1.1//EN" "http://www.w3.org/Graphics/SVG/1.1/DTD/svg11.dtd">
<svg version="1.1" id="Layer_1" xmlns="http://www.w3.org/2000/svg" xmlns:xlink="http://www.w3.org/1999/xlink" x="0px" y="0px"
	 width="12.994px" height="21.451px" viewBox="0 0 12.994 21.451" enable-background="new 0 0 12.994 21.451" xml:space="preserve">
<g>
	<defs>
		<rect id="SVGID_1_" y="0" width="12.994" height="21.451"/>
	</defs>
	<clipPath id="SVGID_2_">
		<use xlink:href="#SVGID_1_"  overflow="visible"/>
	</clipPath>
	<g clip-path="url(#SVGID_2_)">
		<path fill="#2D398F" d="M6.469,14.385c-0.12,0-0.24-0.031-0.348-0.095l-5.786-3.419C0.116,10.742-0.013,10.501,0,10.247
			S0.168,9.767,0.4,9.662l5.787-2.63c0.18-0.082,0.385-0.082,0.564,0l5.786,2.63c0.232,0.105,0.386,0.331,0.399,0.585
			s-0.115,0.495-0.334,0.625l-5.786,3.419C6.709,14.354,6.589,14.385,6.469,14.385z M2.159,10.362l4.31,2.547l4.31-2.547
			l-4.31-1.959L2.159,10.362z"/>
	</g>
	<g clip-path="url(#SVGID_2_)">
		<path fill="#2D398F" d="M6.525,14.385c-0.12,0-0.24-0.031-0.348-0.095l-5.786-3.419c-0.157-0.093-0.27-0.244-0.314-0.421
			c-0.045-0.176-0.017-0.363,0.077-0.52l5.786-9.6C6.1,0.068,6.414-0.055,6.708,0.025c0.296,0.083,0.5,0.352,0.5,0.658v13.02
			c0,0.245-0.131,0.472-0.344,0.593C6.759,14.356,6.643,14.385,6.525,14.385z M1.68,10.046l4.162,2.459V3.14L1.68,10.046z"/>
	</g>
	<g clip-path="url(#SVGID_2_)">
		<path fill="#2D398F" d="M6.525,14.386c-0.117,0-0.233-0.029-0.339-0.09c-0.212-0.121-0.344-0.348-0.344-0.593V0.684
			c0-0.307,0.205-0.576,0.5-0.658C6.64-0.055,6.952,0.068,7.11,0.331l5.786,9.6c0.094,0.156,0.122,0.343,0.077,0.52
			c-0.045,0.177-0.158,0.328-0.314,0.421l-5.786,3.42C6.766,14.355,6.646,14.386,6.525,14.386z M7.208,3.14v9.367l4.163-2.46
			L7.208,3.14z"/>
	</g>
	<g clip-path="url(#SVGID_2_)">
		<path fill="#2D398F" d="M6.469,21.45c-0.217,0-0.427-0.104-0.557-0.287l-5.786-8.153c-0.218-0.308-0.146-0.734,0.162-0.952
			c0.307-0.221,0.734-0.146,0.952,0.161l4.545,6.406v-2.592c0-0.377,0.306-0.683,0.683-0.683s0.683,0.306,0.683,0.683v4.734
			c0,0.297-0.192,0.561-0.476,0.65C6.607,21.44,6.538,21.45,6.469,21.45z"/>
	</g>
	<g clip-path="url(#SVGID_2_)">
		<path fill="#2D398F" d="M6.469,21.45c-0.069,0-0.139-0.01-0.208-0.032c-0.283-0.09-0.475-0.354-0.475-0.65v-4.734
			c0-0.377,0.306-0.683,0.683-0.683s0.683,0.306,0.683,0.683v2.593l4.551-6.407c0.218-0.308,0.645-0.382,0.952-0.161
			c0.308,0.218,0.38,0.645,0.161,0.952l-5.79,8.153C6.896,21.346,6.686,21.45,6.469,21.45z"/>
	</g>
</g>
</svg>
