<?xml version="1.0" encoding="utf-8"?>
<!-- Generator: Adobe Illustrator 16.0.0, SVG Export Plug-In . SVG Version: 6.00 Build 0)  -->
<!DOCTYPE svg PUBLIC "-//W3C//DTD SVG 1.1//EN" "http://www.w3.org/Graphics/SVG/1.1/DTD/svg11.dtd">
<svg version="1.1" id="Layer_1" xmlns="http://www.w3.org/2000/svg" xmlns:xlink="http://www.w3.org/1999/xlink" x="0px" y="0px"
	 width="47.792px" height="35.169px" viewBox="0 0 47.792 35.169" enable-background="new 0 0 47.792 35.169" xml:space="preserve">
<g>
	<defs>
		<rect id="SVGID_1_" width="47.792" height="35.169"/>
	</defs>
	<clipPath id="SVGID_2_">
		<use xlink:href="#SVGID_1_"  overflow="visible"/>
	</clipPath>
	<g clip-path="url(#SVGID_2_)">
		<defs>
			<rect id="SVGID_3_" width="47.792" height="35.169"/>
		</defs>
		<clipPath id="SVGID_4_">
			<use xlink:href="#SVGID_3_"  overflow="visible"/>
		</clipPath>
		<g opacity="0.06" clip-path="url(#SVGID_4_)">
			<g>
				<defs>
					<rect id="SVGID_5_" x="5.616" y="23.592" width="42.176" height="11.577"/>
				</defs>
				<clipPath id="SVGID_6_">
					<use xlink:href="#SVGID_5_"  overflow="visible"/>
				</clipPath>
				<path clip-path="url(#SVGID_6_)" fill="#061715" d="M47.765,23.592H26.354c-2.217-0.04-5.225,1.307-6.683,2.161L9.529,31.697
					l-3.124,1.832c-1.458,0.854-0.837,1.586,1.381,1.625l19.417,0.015c4.682,0,13.619-3.324,20.589-6.254"/>
			</g>
		</g>
		<path clip-path="url(#SVGID_4_)" fill="#FDC26F" d="M29.829,0H7.554C5.009,0,2.929,2.082,2.929,4.625v17.691v5.451
			c0,2.543,2.081,4.625,4.625,4.625h22.275c2.544,0,4.625-2.082,4.625-4.625v-5.451V4.625C34.454,2.082,32.373,0,29.829,0"/>
		<path clip-path="url(#SVGID_4_)" fill="#0936B9" d="M26.9,2.672H4.625C2.082,2.672,0,4.753,0,7.297v17.691v5.45
			c0,2.544,2.082,4.625,4.625,4.625H26.9c2.544,0,4.625-2.081,4.625-4.625v-5.45V7.297C31.525,4.753,29.444,2.672,26.9,2.672"/>
		<path clip-path="url(#SVGID_4_)" fill="#FDC26F" d="M13.8,22.702l-1.234-2.025c-0.207-0.295-0.488-0.542-0.759-0.78l-0.087-0.075
			c-0.276-0.244-0.55-0.498-0.68-0.712l-0.813-1.334c-0.241-0.397-0.632-0.688-1.099-0.82c-0.007-0.003-0.013-0.005-0.019-0.007
			c-0.217-0.059-0.421-0.086-0.615-0.07c-0.213,0.014-0.404,0.074-0.569,0.177c-0.403,0.251-0.645,0.587-0.699,0.972
			c-0.057,0.402,0.071,0.842,0.402,1.384l1.627,2.669c0.018,0.029,0.046,0.05,0.079,0.058c0.032,0.008,0.068,0.002,0.096-0.015
			l0.526-0.321c0.06-0.037,0.079-0.115,0.043-0.175l-1.627-2.669c-0.281-0.462-0.299-0.705-0.284-0.808
			c0.016-0.115,0.072-0.216,0.3-0.358c0.043-0.027,0.261-0.067,0.491-0.004c0.261,0.072,0.476,0.228,0.604,0.438l0.813,1.334
			c0.218,0.357,0.535,0.639,0.848,0.913c0.278,0.245,0.565,0.498,0.699,0.689l1.213,1.99c0.474,0.785,0.498,1.343,0.498,2.187
			l0.007,3.352c0,0.069,0.058,0.127,0.128,0.127h0.615c0.034,0,0.067-0.015,0.091-0.038c0.024-0.024,0.037-0.058,0.037-0.09
			l-0.007-3.35C14.425,24.464,14.378,23.66,13.8,22.702"/>
		<path clip-path="url(#SVGID_4_)" fill="#FDC26F" d="M6.058,18.396c-0.003-0.007-0.006-0.014-0.01-0.021
			c-0.083-0.145-0.096-0.211-0.104-0.259c-0.014-0.07-0.025-0.113-0.031-0.135l0.015-6.538c-0.005-0.218,0.073-0.422,0.213-0.561
			c0.122-0.122,0.286-0.185,0.485-0.185c0.339,0.003,0.492,0.114,0.581,0.219c0.11,0.127,0.172,0.318,0.172,0.522v4.705
			c0,0.07,0.057,0.127,0.128,0.127h0.615c0.071,0,0.128-0.057,0.128-0.127v-4.705c0-0.414-0.134-0.799-0.379-1.087
			C7.589,10.02,7.146,9.829,6.654,9.828c-0.005,0-0.009,0-0.013,0c-0.41,0.003-0.811,0.151-1.103,0.443
			c-0.31,0.309-0.49,0.753-0.481,1.186l-0.015,6.545c0,0.132,0.028,0.217,0.044,0.264c0.029,0.212,0.113,0.382,0.201,0.535
			c0.001,0.003,0.003,0.006,0.004,0.009c0.003,0.007,0.008,0.016,0.013,0.023c0.001,0.002,0.002,0.004,0.003,0.006l4.385,7.667
			l-0.007,2.184c0,0.034,0.013,0.066,0.037,0.091c0.024,0.023,0.057,0.037,0.09,0.037h0.616c0.07,0,0.127-0.057,0.128-0.127
			l0.008-2.384c0-0.021-0.006-0.044-0.017-0.063L6.058,18.396z"/>
		<path clip-path="url(#SVGID_4_)" fill="#FDC26F" d="M21.793,18.358c0.129-0.213,0.344-0.369,0.604-0.44
			c0.23-0.064,0.448-0.021,0.492,0.005c0.229,0.143,0.283,0.242,0.3,0.356c0.015,0.104-0.003,0.348-0.285,0.809l-1.626,2.67
			c-0.018,0.029-0.023,0.063-0.015,0.097c0.008,0.033,0.029,0.061,0.057,0.079l0.526,0.319c0.058,0.036,0.137,0.019,0.176-0.043
			l1.625-2.669c0.331-0.544,0.458-0.982,0.401-1.384c-0.053-0.383-0.296-0.719-0.699-0.972c-0.164-0.103-0.354-0.162-0.568-0.177
			c-0.195-0.014-0.398,0.012-0.615,0.071c-0.006,0.002-0.012,0.004-0.018,0.006c-0.469,0.133-0.859,0.424-1.101,0.82l-0.813,1.335
			c-0.132,0.217-0.417,0.481-0.679,0.712l-0.095,0.083c-0.269,0.236-0.546,0.479-0.76,0.787l-1.225,2.01
			c-0.578,0.958-0.625,1.761-0.625,2.639l-0.007,3.349c0,0.034,0.014,0.067,0.038,0.091c0.024,0.024,0.056,0.037,0.09,0.037h0.616
			c0.07,0,0.127-0.056,0.127-0.127l0.007-3.351c0-0.841,0.024-1.396,0.489-2.175c0.004-0.003,0.007-0.008,0.01-0.013l1.208-1.981
			c0.139-0.199,0.427-0.452,0.706-0.699c0.308-0.271,0.626-0.552,0.845-0.91L21.793,18.358z"/>
		<path clip-path="url(#SVGID_4_)" fill="#FDC26F" d="M26.219,11.594c0.01-0.441-0.167-0.874-0.479-1.187
			c-0.289-0.288-0.672-0.445-1.084-0.445h-0.01C24.638,9.961,24.63,9.96,24.622,9.96c-0.491,0-0.936,0.191-1.218,0.524
			c-0.244,0.287-0.378,0.673-0.378,1.086v4.706c0,0.07,0.057,0.128,0.127,0.128h0.616c0.07,0,0.128-0.058,0.128-0.128V11.57
			c0-0.205,0.062-0.395,0.17-0.522c0.086-0.101,0.227-0.218,0.569-0.218c0.202-0.007,0.372,0.059,0.498,0.184
			c0.141,0.139,0.218,0.343,0.213,0.569l0.016,6.534c-0.011,0.035-0.021,0.079-0.03,0.129c-0.001,0.005-0.006,0.03-0.007,0.036
			c-0.002,0.017-0.016,0.086-0.096,0.226l-4.5,7.869c-0.011,0.02-0.017,0.041-0.017,0.063l0.007,2.384
			c0,0.07,0.058,0.127,0.128,0.127h0.616c0.034,0,0.066-0.013,0.09-0.037s0.038-0.057,0.038-0.091l-0.008-2.185l4.385-7.667
			c0.002-0.003,0.003-0.006,0.005-0.01c0.005-0.006,0.008-0.013,0.011-0.018c0-0.001,0.001-0.002,0.002-0.003
			c0.088-0.154,0.174-0.327,0.204-0.54c0.016-0.046,0.044-0.131,0.044-0.265L26.219,11.594z"/>
		<path clip-path="url(#SVGID_4_)" fill="#FDC26F" d="M20.384,13.658c0-0.052-0.009-0.103-0.027-0.15
			c-0.085-2.574-2.149-4.587-4.715-4.595c-0.005-0.001-0.011-0.001-0.016-0.001c-2.61,0-4.734,2.129-4.734,4.746
			c0,2.617,2.124,4.746,4.734,4.746C18.25,18.404,20.384,16.275,20.384,13.658 M15.626,9.783c2.143,0,3.887,1.738,3.887,3.875
			c0,2.137-1.744,3.875-3.887,3.875c-2.13,0-3.863-1.738-3.863-3.875C11.763,11.521,13.497,9.783,15.626,9.783"/>
	</g>
</g>
</svg>
