<?xml version="1.0" encoding="utf-8"?>
<!-- Generator: Adobe Illustrator 16.0.0, SVG Export Plug-In . SVG Version: 6.00 Build 0)  -->
<!DOCTYPE svg PUBLIC "-//W3C//DTD SVG 1.1//EN" "http://www.w3.org/Graphics/SVG/1.1/DTD/svg11.dtd">
<svg version="1.1" id="Layer_1" xmlns="http://www.w3.org/2000/svg" xmlns:xlink="http://www.w3.org/1999/xlink" x="0px" y="0px"
	 width="25.638px" height="24.258px" viewBox="0 0 25.638 24.258" enable-background="new 0 0 25.638 24.258" xml:space="preserve">
<g>
	<defs>
		<rect id="SVGID_1_" width="25.638" height="24.258"/>
<style>path{fill:#ff0090;stroke-linecap:round;stroke-linejoin:round;stroke-width:1.4px;}</style>
	</defs>
	<clipPath id="SVGID_2_">
		<use xlink:href="#SVGID_1_"  overflow="visible"/>
	</clipPath>
	<path clip-path="url(#SVGID_2_)" d="M10.617,16.646L9.138,14.22c-0.248-0.354-0.584-0.649-0.91-0.935l-0.103-0.091
		c-0.331-0.292-0.659-0.598-0.815-0.853l-0.973-1.598c-0.29-0.476-0.758-0.825-1.319-0.983C5.012,9.756,5.005,9.754,4.997,9.751
		c-0.26-0.07-0.505-0.102-0.737-0.084C4.005,9.686,3.776,9.756,3.578,9.879c-0.482,0.302-0.773,0.705-0.838,1.166
		c-0.067,0.481,0.085,1.008,0.481,1.659l1.95,3.197c0.021,0.034,0.055,0.06,0.094,0.069c0.04,0.009,0.082,0.002,0.116-0.019
		l0.63-0.384c0.072-0.045,0.095-0.139,0.051-0.211l-1.948-3.197c-0.337-0.554-0.358-0.845-0.342-0.968
		c0.021-0.138,0.088-0.258,0.361-0.428c0.051-0.032,0.312-0.081,0.588-0.006c0.313,0.086,0.57,0.273,0.724,0.527l0.974,1.597
		c0.261,0.429,0.641,0.764,1.015,1.094c0.332,0.293,0.677,0.597,0.838,0.825l1.453,2.384c0.568,0.942,0.596,1.609,0.596,2.621
		l0.01,4.014c0,0.084,0.068,0.152,0.152,0.152h0.738c0.041,0,0.08-0.017,0.108-0.045c0.028-0.028,0.045-0.068,0.045-0.108
		l-0.009-4.013C11.365,18.756,11.309,17.793,10.617,16.646"/>
	<path clip-path="url(#SVGID_2_)" d="M11.221,24.098h-0.738c-0.153,0-0.277-0.124-0.277-0.277l-0.01-4.014
		c0-0.99-0.028-1.644-0.578-2.557l-1.452-2.383c-0.147-0.21-0.483-0.506-0.809-0.792c-0.383-0.339-0.774-0.683-1.045-1.128
		l-0.973-1.597c-0.138-0.227-0.369-0.394-0.652-0.472c-0.239-0.065-0.455-0.022-0.493-0.006c-0.252,0.158-0.285,0.25-0.298,0.338
		c-0.011,0.085-0.003,0.345,0.325,0.884l1.948,3.197c0.079,0.13,0.038,0.302-0.092,0.383l-0.631,0.384
		c-0.06,0.039-0.135,0.053-0.208,0.034c-0.072-0.02-0.135-0.063-0.173-0.125l-1.95-3.198c-0.412-0.676-0.57-1.23-0.499-1.741
		c0.071-0.498,0.381-0.933,0.896-1.255C3.728,9.64,3.977,9.562,4.251,9.542C4.49,9.53,4.741,9.554,5.029,9.631l0.052,0.022
		c0.563,0.155,1.057,0.523,1.362,1.025l0.974,1.599c0.146,0.241,0.467,0.538,0.791,0.824l0.103,0.091
		c0.331,0.29,0.672,0.59,0.929,0.957l1.485,2.433c0.708,1.174,0.765,2.155,0.765,3.226l0.009,4.013c0,0.073-0.029,0.145-0.081,0.197
		C11.365,24.068,11.294,24.098,11.221,24.098 M4.415,10.594c0.105,0,0.223,0.013,0.339,0.045c0.344,0.094,0.628,0.301,0.798,0.582
		l0.973,1.597c0.252,0.412,0.627,0.743,0.991,1.064c0.342,0.302,0.69,0.607,0.859,0.848l1.457,2.391
		c0.585,0.971,0.614,1.653,0.614,2.687l0.01,4.014c0,0.015,0.013,0.027,0.027,0.027h0.738l0.153-0.028h-0.125l-0.009-4.013
		c0-1.032-0.054-1.978-0.73-3.097l-1.479-2.425c-0.235-0.337-0.565-0.626-0.885-0.906l-0.103-0.091
		c-0.339-0.299-0.675-0.612-0.839-0.882L6.23,10.809c-0.273-0.449-0.715-0.778-1.246-0.928L4.953,9.869
		C4.704,9.803,4.478,9.774,4.269,9.792C4.035,9.809,3.825,9.874,3.644,9.987c-0.45,0.281-0.72,0.654-0.78,1.077
		c-0.063,0.451,0.084,0.952,0.464,1.575l1.95,3.197l0.037,0.01l0.63-0.384c0.014-0.009,0.019-0.026,0.011-0.039l-1.948-3.197
		c-0.339-0.557-0.383-0.878-0.36-1.05c0.031-0.204,0.148-0.349,0.418-0.518C4.124,10.623,4.256,10.594,4.415,10.594"/>
	<path clip-path="url(#SVGID_2_)" d="M1.342,11.487c-0.004-0.009-0.007-0.018-0.012-0.025c-0.099-0.172-0.115-0.253-0.124-0.311
		c-0.017-0.083-0.03-0.135-0.037-0.161l0.017-7.833C1.181,2.896,1.274,2.651,1.441,2.485C1.587,2.34,1.783,2.262,2.024,2.262
		C2.429,2.267,2.613,2.4,2.719,2.525C2.85,2.678,2.925,2.906,2.925,3.15v5.637c0,0.085,0.068,0.153,0.152,0.153h0.739
		c0.084,0,0.152-0.068,0.152-0.153V3.15c0-0.494-0.161-0.957-0.454-1.302C3.177,1.452,2.646,1.222,2.057,1.221H2.056
		c-0.005,0-0.011,0-0.016,0.001C1.549,1.225,1.07,1.403,0.72,1.753c-0.371,0.37-0.588,0.902-0.577,1.421l-0.018,7.84
		c0,0.159,0.033,0.261,0.053,0.317c0.034,0.254,0.136,0.458,0.241,0.641c0.001,0.003,0.003,0.007,0.005,0.01H0.423
		c0.004,0.009,0.01,0.019,0.016,0.028c0.001,0.002,0.002,0.004,0.004,0.007l5.253,9.186l-0.009,2.616c0,0.04,0.016,0.08,0.045,0.108
		c0.029,0.028,0.067,0.045,0.108,0.045h0.737c0.084,0,0.153-0.068,0.154-0.152l0.009-2.855c0-0.027-0.006-0.054-0.02-0.077
		L1.342,11.487z"/>
	<path clip-path="url(#SVGID_2_)" d="M6.577,24.098H5.84c-0.072,0-0.142-0.028-0.195-0.08c-0.054-0.054-0.083-0.125-0.083-0.198
		l0.008-2.583L0.334,12.08c-0.01-0.016-0.017-0.029-0.022-0.041L0.31,12.035c-0.001,0-0.001-0.001-0.001-0.001l-0.013-0.029
		c-0.1-0.17-0.205-0.385-0.242-0.657C0.032,11.292,0,11.181,0,11.015l0.018-7.841c-0.012-0.55,0.218-1.114,0.614-1.51
		c0.361-0.362,0.862-0.563,1.407-0.566c0.643,0,1.208,0.245,1.571,0.67C3.921,2.135,4.093,2.625,4.093,3.15v5.636
		c0,0.154-0.124,0.279-0.277,0.279H3.077C2.924,9.065,2.8,8.94,2.8,8.787V3.15c0-0.215-0.064-0.413-0.176-0.544
		C2.546,2.515,2.399,2.393,2.022,2.388c-0.203,0-0.369,0.063-0.494,0.187C1.386,2.716,1.307,2.928,1.311,3.156l-0.017,7.819
		c0.008,0.03,0.02,0.079,0.034,0.15c0.008,0.048,0.018,0.116,0.111,0.275l5.389,9.426c0.025,0.042,0.037,0.09,0.037,0.14
		L6.856,23.82C6.854,23.974,6.729,24.098,6.577,24.098 M0.632,12.098L5.82,21.17l-0.008,2.649l0.028,0.028h0.737
		c0.016,0,0.029-0.014,0.029-0.028l0.009-2.854l-5.392-9.437c-0.108-0.188-0.129-0.283-0.141-0.358
		c-0.015-0.073-0.027-0.123-0.034-0.148l-0.004-0.031l0.017-7.833c-0.006-0.293,0.1-0.571,0.292-0.761
		c0.173-0.172,0.398-0.259,0.671-0.259c0.36,0.004,0.618,0.105,0.79,0.307C2.964,2.62,3.05,2.876,3.05,3.15v5.636
		c0,0.016,0.013,0.029,0.027,0.029h0.739c0.014,0,0.027-0.013,0.027-0.029V3.15c0-0.465-0.15-0.899-0.425-1.221
		C3.105,1.56,2.609,1.348,2.057,1.347C1.562,1.351,1.124,1.525,0.809,1.842C0.46,2.189,0.258,2.687,0.268,3.17L0.25,11.015
		c0,0.145,0.032,0.236,0.046,0.275c0.037,0.258,0.133,0.449,0.232,0.621l0.107,0.187H0.632z"/>
	<path clip-path="url(#SVGID_2_)" d="M20.192,11.441c0.155-0.255,0.412-0.442,0.724-0.526c0.276-0.078,0.537-0.027,0.59,0.005
		c0.272,0.171,0.339,0.291,0.358,0.427c0.018,0.124-0.003,0.416-0.341,0.97l-1.948,3.197c-0.021,0.035-0.027,0.076-0.018,0.115
		c0.009,0.041,0.034,0.073,0.069,0.095l0.63,0.384c0.068,0.043,0.165,0.02,0.21-0.052l1.948-3.197
		c0.396-0.651,0.549-1.178,0.48-1.658c-0.064-0.459-0.354-0.862-0.837-1.164c-0.198-0.124-0.427-0.196-0.681-0.212
		c-0.234-0.017-0.477,0.013-0.737,0.084c-0.007,0.003-0.015,0.005-0.021,0.008c-0.562,0.159-1.029,0.507-1.319,0.982l-0.973,1.6
		c-0.159,0.26-0.501,0.576-0.814,0.853l-0.113,0.1c-0.322,0.282-0.654,0.574-0.911,0.942l-1.467,2.408
		c-0.693,1.147-0.749,2.11-0.749,3.161l-0.009,4.012c0,0.041,0.017,0.08,0.045,0.108c0.03,0.029,0.067,0.045,0.108,0.045h0.737
		c0.085,0,0.153-0.067,0.153-0.152l0.009-4.015c0-1.006,0.028-1.671,0.585-2.604c0.005-0.005,0.009-0.011,0.013-0.017l1.446-2.373
		c0.167-0.239,0.511-0.543,0.847-0.838c0.368-0.325,0.75-0.66,1.012-1.091L20.192,11.441z"/>
	<path clip-path="url(#SVGID_2_)" d="M15.154,24.253h-0.737c-0.074,0-0.145-0.029-0.197-0.081c-0.052-0.053-0.081-0.124-0.081-0.197
		l0.009-4.013c0-1.07,0.058-2.051,0.767-3.225l1.468-2.409c0.271-0.39,0.624-0.698,0.936-0.971l0.112-0.099
		c0.308-0.271,0.642-0.581,0.791-0.825l0.973-1.599c0.307-0.501,0.801-0.87,1.392-1.037c0.306-0.085,0.562-0.113,0.802-0.097
		c0.273,0.018,0.522,0.096,0.738,0.23c0.516,0.325,0.824,0.757,0.895,1.253c0.072,0.511-0.086,1.064-0.497,1.741l-1.949,3.198
		c-0.084,0.133-0.257,0.174-0.383,0.092l-0.629-0.383c-0.065-0.04-0.11-0.102-0.126-0.175c-0.017-0.066-0.006-0.141,0.031-0.205
		l1.95-3.199c0.329-0.539,0.336-0.8,0.323-0.887c-0.012-0.087-0.045-0.178-0.301-0.339c-0.033-0.016-0.25-0.059-0.49,0.009
		c-0.28,0.076-0.51,0.243-0.65,0.472l-0.974,1.597c-0.27,0.443-0.655,0.783-1.028,1.112c-0.319,0.281-0.674,0.593-0.834,0.822
		l-1.473,2.407c-0.521,0.88-0.549,1.529-0.549,2.515l-0.009,4.015C15.433,24.129,15.308,24.253,15.154,24.253 M21.251,9.945
		c-0.179,0-0.369,0.028-0.578,0.085c-0.55,0.157-0.993,0.486-1.267,0.935l-0.973,1.599c-0.166,0.271-0.501,0.584-0.838,0.881
		l-0.113,0.1c-0.315,0.276-0.642,0.562-0.892,0.92l-1.463,2.402c-0.676,1.118-0.73,2.063-0.73,3.095l-0.009,4.013l0.028,0.028h0.737
		c0.017,0,0.028-0.012,0.028-0.027l0.009-4.015c0-1.028,0.029-1.707,0.603-2.668l1.46-2.391c0.182-0.26,0.531-0.568,0.87-0.867
		c0.366-0.322,0.737-0.649,0.988-1.061l0.974-1.598c0.172-0.284,0.455-0.49,0.798-0.582c0.287-0.081,0.589-0.04,0.688,0.02
		c0.271,0.17,0.388,0.315,0.417,0.516c0.024,0.173-0.018,0.495-0.358,1.054l-1.948,3.196l-0.055,0.145l0.065-0.106l0.63,0.384
		c0.008,0.005,0.028,0.003,0.039-0.013l1.947-3.195c0.38-0.624,0.527-1.125,0.464-1.576c-0.06-0.42-0.329-0.793-0.78-1.076
		c-0.181-0.112-0.39-0.177-0.622-0.192C21.331,9.947,21.291,9.945,21.251,9.945"/>
	<path clip-path="url(#SVGID_2_)" d="M25.495,3.338c0.011-0.528-0.199-1.046-0.575-1.422c-0.345-0.345-0.805-0.532-1.299-0.532
		H23.61c-0.01-0.002-0.019-0.003-0.028-0.003c-0.589,0-1.121,0.229-1.459,0.628C21.831,2.352,21.67,2.815,21.67,3.31v5.637
		c0,0.084,0.068,0.154,0.152,0.154h0.738c0.084,0,0.152-0.07,0.152-0.154V3.31c0-0.245,0.075-0.474,0.204-0.626
		c0.104-0.121,0.272-0.26,0.684-0.26c0.241-0.009,0.444,0.069,0.597,0.22c0.167,0.166,0.26,0.411,0.255,0.682l0.018,7.827
		c-0.013,0.042-0.023,0.094-0.037,0.155c0,0.006-0.005,0.036-0.007,0.043c-0.002,0.02-0.02,0.103-0.115,0.27l-5.391,9.427
		c-0.014,0.023-0.021,0.05-0.021,0.077l0.009,2.855c0,0.084,0.068,0.152,0.152,0.152h0.738c0.04,0,0.079-0.017,0.107-0.045
		c0.029-0.029,0.045-0.068,0.045-0.109l-0.009-2.616l5.253-9.185c0.003-0.004,0.005-0.008,0.006-0.013
		c0.005-0.007,0.009-0.014,0.013-0.021c0-0.001,0.002-0.002,0.002-0.003c0.106-0.186,0.209-0.392,0.245-0.648
		c0.019-0.054,0.052-0.157,0.052-0.317L25.495,3.338z"/>
	<path clip-path="url(#SVGID_2_)" d="M19.799,24.258h-0.738c-0.153,0-0.277-0.124-0.277-0.277l-0.009-2.855
		c0-0.05,0.012-0.099,0.037-0.141l5.391-9.426c0.089-0.155,0.1-0.221,0.1-0.222l0.008-0.047c0.014-0.065,0.024-0.114,0.035-0.154
		l-0.018-7.81c0.004-0.236-0.075-0.452-0.218-0.593c-0.131-0.129-0.3-0.179-0.504-0.184c-0.361,0-0.502,0.109-0.594,0.216
		c-0.11,0.131-0.174,0.329-0.174,0.545v5.637c0,0.154-0.124,0.279-0.277,0.279h-0.738c-0.153,0-0.277-0.125-0.277-0.279V3.31
		c0-0.526,0.172-1.017,0.483-1.382c0.361-0.427,0.928-0.672,1.554-0.672l0.053,0.005h0.009c0.511,0,1,0.202,1.365,0.566
		c0.399,0.401,0.622,0.951,0.61,1.512l0.019,7.837c0,0.185-0.041,0.306-0.06,0.357c-0.031,0.243-0.131,0.453-0.237,0.641v0.019
		l-0.026,0.026c-0.005,0.012-0.011,0.023-0.02,0.034l-5.228,9.143l0.009,2.583c0,0.075-0.029,0.146-0.082,0.198
		C19.942,24.229,19.87,24.258,19.799,24.258 M23.641,2.298c0.25,0,0.474,0.089,0.645,0.257c0.194,0.192,0.298,0.468,0.292,0.773
		l0.018,7.844L24.59,11.19c-0.013,0.038-0.021,0.085-0.033,0.138c-0.002,0.016-0.009,0.049-0.011,0.057
		c0.001,0.011-0.018,0.108-0.127,0.299l-5.391,9.426l0.005,2.871c0,0.015,0.013,0.027,0.027,0.027h0.738l0.152-0.029h-0.125
		l-0.009-2.649l0.017-0.029l5.281-9.234c0.097-0.17,0.189-0.36,0.222-0.59c0.021-0.066,0.051-0.156,0.051-0.3l-0.019-7.841
		c0.011-0.493-0.186-0.978-0.538-1.33c-0.319-0.32-0.749-0.496-1.211-0.496l-0.034-0.002h-0.002c-0.555,0-1.052,0.212-1.365,0.583
		c-0.273,0.32-0.424,0.754-0.424,1.22v5.637c0,0.015,0.013,0.029,0.027,0.029h0.738c0.015,0,0.027-0.014,0.027-0.029V3.31
		c0-0.274,0.085-0.532,0.233-0.707C22.946,2.457,23.16,2.288,23.641,2.298"/>
	<path clip-path="url(#SVGID_2_)" d="M18.505,5.811c0-0.062-0.011-0.122-0.032-0.18c-0.102-3.083-2.574-5.494-5.648-5.505
		c-0.006,0-0.013-0.001-0.02-0.001c-3.127,0-5.671,2.551-5.671,5.686c0,3.134,2.544,5.685,5.671,5.685
		C15.947,11.496,18.505,8.945,18.505,5.811 M12.805,1.169c2.567,0,4.656,2.082,4.656,4.642s-2.089,4.642-4.656,4.642
		c-2.552,0-4.628-2.082-4.628-4.642S10.253,1.169,12.805,1.169"/>
	<path clip-path="url(#SVGID_2_)" d="M12.805,11.621c-3.196,0-5.796-2.606-5.796-5.81C7.009,2.606,9.609,0,12.805,0
		c3.147,0.012,5.679,2.473,5.792,5.607c0.022,0.066,0.033,0.134,0.033,0.204C18.63,9.015,16.017,11.621,12.805,11.621 M12.822,0.251
		c-3.077,0-5.563,2.494-5.563,5.56s2.488,5.56,5.546,5.56c3.074,0,5.575-2.494,5.575-5.56c0-0.047-0.008-0.093-0.024-0.136
		l-0.008-0.04c-0.099-3.009-2.525-5.373-5.523-5.384H12.822z M12.805,10.578c-2.621,0-4.753-2.138-4.753-4.767
		c0-2.628,2.132-4.767,4.753-4.767c2.637,0,4.781,2.139,4.781,4.767C17.586,8.44,15.441,10.578,12.805,10.578 M12.805,1.294
		c-2.483,0-4.503,2.026-4.503,4.517c0,2.491,2.02,4.517,4.503,4.517c2.499,0,4.531-2.026,4.531-4.517
		C17.336,3.32,15.304,1.294,12.805,1.294"/>
</g>
</svg>
