<?xml version="1.0" encoding="utf-8"?>
<!-- Generator: Adobe Illustrator 16.0.0, SVG Export Plug-In . SVG Version: 6.00 Build 0)  -->
<!DOCTYPE svg PUBLIC "-//W3C//DTD SVG 1.1//EN" "http://www.w3.org/Graphics/SVG/1.1/DTD/svg11.dtd">
<svg version="1.1" id="Layer_1" xmlns="http://www.w3.org/2000/svg" xmlns:xlink="http://www.w3.org/1999/xlink" x="0px" y="0px"
	 width="58.35px" height="35.169px" viewBox="0 0 58.35 35.169" enable-background="new 0 0 58.35 35.169" xml:space="preserve">
<g>
	<defs>
		<rect id="SVGID_1_" width="58.35" height="35.169"/>
	</defs>
	<clipPath id="SVGID_2_">
		<use xlink:href="#SVGID_1_"  overflow="visible"/>
	</clipPath>
	<g clip-path="url(#SVGID_2_)">
		<defs>
			<rect id="SVGID_3_" width="58.35" height="35.169"/>
		</defs>
		<clipPath id="SVGID_4_">
			<use xlink:href="#SVGID_3_"  overflow="visible"/>
		</clipPath>
		<g opacity="0.06" clip-path="url(#SVGID_4_)">
			<g>
				<defs>
					<rect id="SVGID_5_" x="5.616" y="23.592" width="52.734" height="11.577"/>
				</defs>
				<clipPath id="SVGID_6_">
					<use xlink:href="#SVGID_5_"  overflow="visible"/>
				</clipPath>
				<path clip-path="url(#SVGID_6_)" fill="#061715" d="M56.18,23.592H26.354c-2.217-0.039-5.224,1.307-6.683,2.16L9.53,31.697
					l-3.124,1.832c-1.459,0.854-0.837,1.585,1.38,1.626l19.418,0.014c8.372,0,30.357-10.63,30.357-10.63
					C59.019,23.686,58.397,23.631,56.18,23.592"/>
			</g>
		</g>
		<path clip-path="url(#SVGID_4_)" fill="#FFFF4D" d="M29.829,0H7.554C5.009,0,2.929,2.082,2.929,4.625v17.692v5.449
			c0,2.544,2.081,4.625,4.625,4.625h22.275c2.543,0,4.625-2.081,4.625-4.625v-5.449V4.625C34.454,2.082,32.372,0,29.829,0"/>
		<path clip-path="url(#SVGID_4_)" fill="#FF4E72" d="M26.901,2.672H4.625C2.082,2.672,0,4.753,0,7.297v17.691v5.45
			c0,2.544,2.082,4.625,4.625,4.625h22.276c2.543,0,4.625-2.081,4.625-4.625v-5.45V7.297C31.525,4.753,29.444,2.672,26.901,2.672"/>
		<path clip-path="url(#SVGID_4_)" fill="#FFFF4D" d="M20.193,20.188c-0.713,0-1.293,0.58-1.293,1.293s0.58,1.293,1.293,1.293
			s1.293-0.58,1.293-1.293S20.906,20.188,20.193,20.188 M20.193,21.856c-0.207,0-0.375-0.169-0.375-0.375s0.168-0.375,0.375-0.375
			s0.375,0.169,0.375,0.375S20.4,21.856,20.193,21.856"/>
		<path clip-path="url(#SVGID_4_)" fill="#FFFF4D" d="M20.193,17.895c-1.978,0-3.587,1.61-3.587,3.587
			c0,1.979,1.609,3.587,3.587,3.587s3.587-1.608,3.587-3.587C23.78,19.505,22.171,17.895,20.193,17.895 M20.193,24.15
			c-1.472,0-2.669-1.196-2.669-2.669s1.197-2.669,2.669-2.669s2.669,1.196,2.669,2.669S21.666,24.15,20.193,24.15"/>
		<path clip-path="url(#SVGID_4_)" fill="#FFFF4D" d="M20.997,14.922l-6.217-3.688c-0.891-1.506-2.528-2.521-4.401-2.521
			c-2.822,0-5.117,2.295-5.117,5.116c0,0.914,0.243,1.771,0.665,2.514v8.625c-0.41,0.439-0.665,1.023-0.665,1.669
			c0,1.354,1.101,2.455,2.455,2.455c0.72,0,1.362-0.316,1.811-0.812l8.248-0.65c0.75,0.296,1.563,0.464,2.417,0.464
			c3.646,0,6.614-2.967,6.614-6.612C26.807,18.107,24.265,15.321,20.997,14.922 M10.379,9.631c2.314,0,4.198,1.884,4.198,4.198
			c0,2.315-1.884,4.199-4.198,4.199c-2.316,0-4.199-1.884-4.199-4.199C6.18,11.515,8.063,9.631,10.379,9.631 M7.717,28.175
			c-0.848,0-1.537-0.688-1.537-1.537c0-0.848,0.689-1.537,1.537-1.537s1.537,0.689,1.537,1.537
			C9.254,27.486,8.565,28.175,7.717,28.175 M10.064,27.319c0.064-0.219,0.108-0.443,0.108-0.682c0-1.354-1.102-2.455-2.455-2.455
			c-0.308,0-0.6,0.063-0.872,0.167v-6.829c0.919,0.881,2.163,1.425,3.534,1.425c2.821,0,5.116-2.295,5.116-5.117
			c0-0.41-0.054-0.808-0.146-1.191l3.889,2.307c-3.194,0.465-5.659,3.214-5.659,6.538c0,2.195,1.081,4.141,2.735,5.344
			L10.064,27.319z M20.193,27.177c-3.141,0-5.696-2.555-5.696-5.694c0-3.142,2.555-5.696,5.696-5.696s5.696,2.555,5.696,5.696
			C25.889,24.622,23.334,27.177,20.193,27.177"/>
		<path clip-path="url(#SVGID_4_)" fill="#FFFF4D" d="M9.398,15.073c0.081,0.143,0.234,0.231,0.398,0.231h1.164
			c0.165,0,0.317-0.088,0.398-0.231l0.583-1.014c0.081-0.142,0.081-0.316,0-0.458l-0.583-1.014
			c-0.081-0.143-0.233-0.231-0.398-0.231H9.796c-0.164,0-0.317,0.088-0.398,0.231l-0.582,1.014c-0.081,0.142-0.081,0.316,0,0.458
			L9.398,15.073z M10.062,13.274h0.632l0.319,0.556l-0.319,0.556h-0.632L9.743,13.83L10.062,13.274z"/>
	</g>
</g>
</svg>
