<?xml version="1.0" encoding="utf-8"?>
<!-- Generator: Adobe Illustrator 16.0.0, SVG Export Plug-In . SVG Version: 6.00 Build 0)  -->
<!DOCTYPE svg PUBLIC "-//W3C//DTD SVG 1.1//EN" "http://www.w3.org/Graphics/SVG/1.1/DTD/svg11.dtd">
<svg version="1.1" id="Layer_1" xmlns="http://www.w3.org/2000/svg" xmlns:xlink="http://www.w3.org/1999/xlink" x="0px" y="0px"
	 width="28.108px" height="26.601px" viewBox="0 0 28.108 26.601" enable-background="new 0 0 28.108 26.601" xml:space="preserve">
<g>
	<defs>
		<rect id="SVGID_1_" width="28.109" height="26.601"/>
	</defs>
	<clipPath id="SVGID_2_">
		<use xlink:href="#SVGID_1_"  overflow="visible"/>
	</clipPath>
	<g clip-path="url(#SVGID_2_)">
		<path d="M3.285,26.601C1.473,26.601,0,25.127,0,23.316c0-1.811,1.474-3.284,3.285-3.284s3.285,1.474,3.285,3.284
			C6.57,25.127,5.096,26.601,3.285,26.601z M3.285,21.432c-1.04,0-1.885,0.845-1.885,1.884s0.845,1.885,1.885,1.885
			s1.885-0.846,1.885-1.885S4.324,21.432,3.285,21.432z"/>
	</g>
	<g clip-path="url(#SVGID_2_)">
		<path d="M19.438,18.419c-0.981,0-1.779-0.799-1.779-1.78s0.798-1.78,1.779-1.78s1.78,0.799,1.78,1.78S20.42,18.419,19.438,18.419z
			 M19.438,16.259c-0.209,0-0.379,0.17-0.379,0.38s0.17,0.38,0.379,0.38c0.21,0,0.38-0.17,0.38-0.38S19.648,16.259,19.438,16.259z"
			/>
	</g>
	<g clip-path="url(#SVGID_2_)">
		<path d="M19.438,21.391c-2.619,0-4.75-2.132-4.75-4.752c0-2.619,2.131-4.751,4.75-4.751c2.62,0,4.752,2.132,4.752,4.751
			C24.19,19.259,22.059,21.391,19.438,21.391z M19.438,13.289c-1.847,0-3.35,1.503-3.35,3.351c0,1.849,1.503,3.352,3.35,3.352
			c1.849,0,3.352-1.503,3.352-3.352C22.79,14.792,21.287,13.289,19.438,13.289z"/>
	</g>
	<g clip-path="url(#SVGID_2_)">
		<path d="M19.438,25.309c-4.78,0-8.67-3.89-8.67-8.67s3.89-8.67,8.67-8.67c4.781,0,8.671,3.89,8.671,8.67
			S24.22,25.309,19.438,25.309z M19.438,9.37c-4.009,0-7.27,3.261-7.27,7.27c0,4.009,3.261,7.27,7.27,7.27s7.271-3.261,7.271-7.27
			C26.709,12.631,23.447,9.37,19.438,9.37z"/>
	</g>
	<g clip-path="url(#SVGID_2_)">
		<path d="M6.731,13.463C3.02,13.463,0,10.443,0,6.731C0,3.02,3.02,0,6.731,0s6.731,3.02,6.731,6.731
			C13.462,10.443,10.442,13.463,6.731,13.463z M6.731,1.4C3.792,1.4,1.4,3.792,1.4,6.731c0,2.94,2.392,5.332,5.331,5.332
			s5.331-2.392,5.331-5.332C12.062,3.792,9.67,1.4,6.731,1.4z"/>
	</g>
	<g clip-path="url(#SVGID_2_)">
		<path d="M7.485,8.745H5.977c-0.251,0-0.482-0.134-0.607-0.352L4.616,7.079c-0.124-0.216-0.124-0.481,0-0.697L5.37,5.069
			c0.125-0.217,0.356-0.352,0.607-0.352h1.508c0.25,0,0.482,0.134,0.607,0.352l0.754,1.313c0.124,0.216,0.124,0.481,0,0.697
			L8.092,8.393C7.967,8.61,7.736,8.745,7.485,8.745z M6.382,7.344H7.08L7.432,6.73L7.08,6.118H6.382L6.03,6.73L6.382,7.344z"/>
	</g>
	<g clip-path="url(#SVGID_2_)">
		<path d="M5.374,25.567c-0.361,0-0.668-0.278-0.697-0.646c-0.03-0.385,0.257-0.723,0.643-0.753l10.941-0.86
			c0.381-0.018,0.723,0.258,0.753,0.644c0.03,0.385-0.258,0.723-0.644,0.753l-10.941,0.86C5.411,25.566,5.392,25.567,5.374,25.567z"
			/>
	</g>
	<g clip-path="url(#SVGID_2_)">
		<path d="M20.234,9.391c-0.121,0-0.244-0.032-0.356-0.098l-8.205-4.868c-0.333-0.197-0.442-0.627-0.245-0.959
			c0.197-0.333,0.627-0.442,0.959-0.245l8.206,4.868c0.332,0.197,0.441,0.627,0.244,0.959C20.707,9.269,20.474,9.391,20.234,9.391z"
			/>
	</g>
	<g clip-path="url(#SVGID_2_)">
		<path d="M1.562,22.014c-0.387,0-0.7-0.313-0.7-0.7V9.918c0-0.387,0.313-0.7,0.7-0.7s0.7,0.313,0.7,0.7v11.396
			C2.262,21.701,1.949,22.014,1.562,22.014z"/>
	</g>
</g>
</svg>
