<svg id="Layer_1" data-name="Layer 1" xmlns="http://www.w3.org/2000/svg" viewBox="0 0 22 24.75"><defs><style>.cls-1{fill:#ff0090;}</style></defs><title>leaderboard</title><path class="cls-1" d="M4042,1769.5a.69.69,0,0,0-.62.69v.69h-3.5a.69.69,0,0,0-.63.68v1.89a5,5,0,0,0,4.13,4.92v.07a6.88,6.88,0,0,0,6.19,6.84v4.85h-4.82a2.07,2.07,0,0,0-2.06,2.06v1.37a.69.69,0,0,0,.69.69h13.75a.69.69,0,0,0,.69-.69v-1.37a2.08,2.08,0,0,0-2.07-2.06H4049v-4.85a6.89,6.89,0,0,0,6.19-6.84v-.07a5,5,0,0,0,4.12-4.92v-1.89a.67.67,0,0,0-.68-.68h-3.44v-.69a.69.69,0,0,0-.69-.69H4042Zm.75,1.38h11v7.56a5.5,5.5,0,0,1-11,0Zm-4.12,1.37h2.75V1777a3.58,3.58,0,0,1-2.75-3.51Zm16.5,0h2.75v1.2a3.6,3.6,0,0,1-2.75,3.52Zm-12.38,19.25h11a.67.67,0,0,1,.69.69v.69h-12.37v-.69A.67.67,0,0,1,4042.77,1791.5Z" transform="translate(-4037.27 -1769.5)"/></svg>