<?xml version="1.0" encoding="utf-8"?>
<!-- Generator: Adobe Illustrator 16.0.0, SVG Export Plug-In . SVG Version: 6.00 Build 0)  -->
<!DOCTYPE svg PUBLIC "-//W3C//DTD SVG 1.1//EN" "http://www.w3.org/Graphics/SVG/1.1/DTD/svg11.dtd">
<svg version="1.1" id="Layer_1" xmlns="http://www.w3.org/2000/svg" xmlns:xlink="http://www.w3.org/1999/xlink" x="0px" y="0px"
	 width="19.186px" height="19.186px" viewBox="0 0 19.186 19.186" enable-background="new 0 0 19.186 19.186" xml:space="preserve">
<g>
	<defs>
		<rect id="SVGID_1_" y="0" width="19.185" height="19.186"/>
	</defs>
	<clipPath id="SVGID_2_">
		<use xlink:href="#SVGID_1_"  overflow="visible"/>
	</clipPath>
	<g clip-path="url(#SVGID_2_)">
		<path fill="#0D3F1A" d="M10.907,16.557c-2.211,0-4.29-0.861-5.854-2.424c-3.226-3.229-3.226-8.481,0-11.708
			C6.617,0.861,8.696,0,10.907,0s4.29,0.861,5.854,2.425s2.426,3.642,2.426,5.853c0,2.211-0.862,4.291-2.426,5.855
			C15.197,15.695,13.118,16.557,10.907,16.557z M10.907,1.75c-1.743,0-3.383,0.679-4.617,1.912c-2.543,2.545-2.543,6.687,0,9.233
			c1.233,1.232,2.872,1.911,4.616,1.911s3.383-0.679,4.615-1.912c1.234-1.233,1.914-2.873,1.914-4.617
			c0-1.743-0.68-3.382-1.913-4.616C14.29,2.429,12.651,1.75,10.907,1.75z"/>
	</g>
	<g clip-path="url(#SVGID_2_)">
		<path fill="#0D3F1A" d="M0.875,19.186c-0.224,0-0.448-0.085-0.619-0.256c-0.342-0.342-0.342-0.896,0-1.238l4.797-4.797
			c0.342-0.342,0.896-0.342,1.237,0s0.342,0.896,0,1.238L1.494,18.93C1.323,19.101,1.099,19.186,0.875,19.186z"/>
	</g>
</g>
</svg>
