<svg width="128" height="128" viewBox="0 0 128 128" fill="none" xmlns="http://www.w3.org/2000/svg">
<path d="M96.5904 41.6047C94.2288 40.2093 91.1587 40.2093 88.5609 41.6047L70.1402 52.3023L57.6236 59.2791L39.2029 69.9767C36.8413 71.3721 33.7712 71.3721 31.1734 69.9767L16.5314 61.6046C14.1697 60.2093 12.5166 57.6512 12.5166 54.8605V38.3488C12.5166 35.5581 13.9336 33 16.5314 31.6047L30.9373 23.4651C33.2989 22.0698 36.369 22.0698 38.9668 23.4651L53.3727 31.6047C55.7343 33 57.3875 35.5581 57.3875 38.3488V49.0465L69.9041 41.8372V31.1395C69.9041 28.3488 68.4871 25.7907 65.8893 24.3953L39.2029 9.04651C36.8413 7.65116 33.7712 7.65116 31.1734 9.04651L4.01476 24.3953C1.41697 25.7907 0 28.3488 0 31.1395V62.0698C0 64.8605 1.41697 67.4186 4.01476 68.8139L31.1734 84.1628C33.5351 85.5581 36.6052 85.5581 39.2029 84.1628L57.6236 73.6977L70.1402 66.4884L88.5609 56.0233C90.9225 54.6279 93.9926 54.6279 96.5904 56.0233L110.996 64.1628C113.358 65.5581 115.011 68.1163 115.011 70.907V87.4186C115.011 90.2093 113.594 92.7674 110.996 94.1628L96.5904 102.535C94.2288 103.93 91.1587 103.93 88.5609 102.535L74.155 94.3953C71.7934 93 70.1402 90.4419 70.1402 87.6512V76.9535L57.6236 84.1628V94.8605C57.6236 97.6512 59.0406 100.209 61.6384 101.605L88.797 116.953C91.1587 118.349 94.2288 118.349 96.8266 116.953L123.985 101.605C126.347 100.209 128 97.6512 128 94.8605V63.9302C128 61.1395 126.583 58.5814 123.985 57.186L96.5904 41.6047Z" fill="#ff0090"/>
</svg>
