<svg xmlns="http://www.w3.org/2000/svg" viewBox="0 0 58.35 35.17"><defs><style>.cls-1{isolation:isolate;}.cls-2{fill:#061715;opacity:0.06;mix-blend-mode:multiply;}.cls-3{fill:#acff6f;}.cls-4{fill:#09007c;}</style></defs><title>memesubmiticon</title><g class="cls-1"><g id="Layer_1" data-name="Layer 1"><path class="cls-2" d="M675,101.27H645.13c-2.21,0-5.22,1.3-6.68,2.16l-10.14,5.94-3.12,1.83c-1.46.86-.84,1.59,1.38,1.63l19.41,0c8.38,0,30.36-10.63,30.36-10.63C677.8,101.36,677.18,101.31,675,101.27Z" transform="translate(-618.78 -77.68)"/><path class="cls-3" d="M648.61,77.68H626.33a4.63,4.63,0,0,0-4.62,4.62v23.14a4.64,4.64,0,0,0,4.62,4.63h22.28a4.64,4.64,0,0,0,4.62-4.63V82.3A4.63,4.63,0,0,0,648.61,77.68Z" transform="translate(-618.78 -77.68)"/><path class="cls-4" d="M645.68,80.35H623.41A4.64,4.64,0,0,0,618.78,85v23.15a4.64,4.64,0,0,0,4.63,4.62h22.27a4.64,4.64,0,0,0,4.63-4.62V85A4.64,4.64,0,0,0,645.68,80.35Z" transform="translate(-618.78 -77.68)"/><path class="cls-3" d="M645,93.11l-.07-.07a.15.15,0,0,0-.1-.07l0,0s-.07,0-.1-.07l-.11,0a.44.44,0,0,0-.21-.07,6.35,6.35,0,0,0-2.8-.11h-.11c-.14,0-.66.07-1.19.11l-.35,0,.11-.42c.17-.52.31-1.09.49-1.61a5.22,5.22,0,0,0,.28-2.25,3,3,0,0,0-1.44-2.24,2.78,2.78,0,0,0-1.47-.42h-.14a1.15,1.15,0,0,0-1.13,1.05c0,.53-.1,1-.17,1.44a5.14,5.14,0,0,1-.63,1.89,4.58,4.58,0,0,1-.6.81l-1.12,1.23-.91,1a7,7,0,0,1-.67.7l-.14.14a3.41,3.41,0,0,1-.42.28l-.38.14c-.57.18-1.51.42-1.58,1.3,0,.24,0,.49,0,.7V105h1.65l1.4.24.25,0c1.09.17,2.1.35,3.12.45l.84.11a24.07,24.07,0,0,0,2.67.24,4.8,4.8,0,0,0,4.1-1.75,6,6,0,0,0,1-3c0-.18,0-.35.07-.49.1-.71.21-1.44.31-2.14.18-1.09.36-2.25.5-3.37A2.28,2.28,0,0,0,645,93.11Zm0,2h0c-.14,1.12-.31,2.24-.49,3.33l-.31,2.14c0,.18,0,.35-.07.53a5.18,5.18,0,0,1-.81,2.59c-1.44,1.79-3.75,1.47-6,1.19l-.88-.1c-1-.11-2-.28-3.09-.46l-.24,0-1.4-.25h-.92V96.51c0-.21,0-.42,0-.67s.14-.28,1-.52a4.38,4.38,0,0,0,.52-.18,1.74,1.74,0,0,0,.63-.42,1.12,1.12,0,0,1,.21-.18,5.8,5.8,0,0,0,.7-.73l.92-1c.38-.46.77-.84,1.08-1.2a4.31,4.31,0,0,0,.7-1,5.78,5.78,0,0,0,.71-2.17c.07-.46.14-1,.17-1.47a.3.3,0,0,1,.28-.28h.07a1.85,1.85,0,0,1,1,.31,2.2,2.2,0,0,1,1,1.61,4,4,0,0,1-.25,1.86c-.18.53-.35,1.09-.49,1.65l-.25.88a.61.61,0,0,0,.11.49.55.55,0,0,0,.45.21l.88-.07c.53,0,1.09-.07,1.23-.11h.1a6.53,6.53,0,0,1,2.46.07s.07,0,.1,0l.11,0,.17.11A1.59,1.59,0,0,1,645,95.14Z" transform="translate(-618.78 -77.68)"/><path class="cls-3" d="M628.21,93.56h-3.27a1.24,1.24,0,0,0-1.22,1.23v9.75a1.24,1.24,0,0,0,1.22,1.22h3.27a1.24,1.24,0,0,0,1.22-1.22V94.76A1.21,1.21,0,0,0,628.21,93.56Zm.35,10.94a.35.35,0,0,1-.35.35h-3.27a.35.35,0,0,1-.35-.35V94.76a.36.36,0,0,1,.35-.36h3.27a.36.36,0,0,1,.35.36Z" transform="translate(-618.78 -77.68)"/></g></g></svg>