<?xml version="1.0" encoding="utf-8"?>
<!-- Generator: Adobe Illustrator 16.0.0, SVG Export Plug-In . SVG Version: 6.00 Build 0)  -->
<!DOCTYPE svg PUBLIC "-//W3C//DTD SVG 1.1//EN" "http://www.w3.org/Graphics/SVG/1.1/DTD/svg11.dtd">
<svg version="1.1" id="Layer_1" xmlns="http://www.w3.org/2000/svg" xmlns:xlink="http://www.w3.org/1999/xlink" x="0px" y="0px"
	 width="65.957px" height="50.892px" viewBox="0 0 65.957 50.892" enable-background="new 0 0 65.957 50.892" xml:space="preserve">
<g>
	<defs>
		<rect id="SVGID_1_" width="65.957" height="50.892"/>
	</defs>
	<clipPath id="SVGID_2_">
		<use xlink:href="#SVGID_1_"  overflow="visible"/>
	</clipPath>
	<g clip-path="url(#SVGID_2_)">
		<defs>
			<rect id="SVGID_3_" y="0" width="65.957" height="50.891"/>
		</defs>
		<clipPath id="SVGID_4_">
			<use xlink:href="#SVGID_3_"  overflow="visible"/>
		</clipPath>
		<path clip-path="url(#SVGID_4_)" fill="#FF0090" d="M56.021,0.612c-5.226,0-9.5,4.275-9.5,9.5v21.364v9.916
			c0,5.225,4.274,9.5,9.5,9.5s9.5-4.275,9.5-9.5V18.472v-8.36C65.521,4.887,61.246,0.612,56.021,0.612"/>
		<g opacity="0.12" clip-path="url(#SVGID_4_)">
			<g>
				<defs>
					<rect id="SVGID_5_" x="46.521" y="0.612" width="19" height="30.864"/>
				</defs>
				<clipPath id="SVGID_6_">
					<use xlink:href="#SVGID_5_"  overflow="visible"/>
				</clipPath>
				<path clip-path="url(#SVGID_6_)" d="M65.44,18.579c0.027-0.035,0.052-0.072,0.08-0.107v-8.36c0-5.225-4.274-9.5-9.5-9.5
					s-9.5,4.275-9.5,9.5v21.364C56.855,27.922,63.288,21.145,65.44,18.579"/>
			</g>
		</g>
		<path clip-path="url(#SVGID_4_)" fill="#04FFCC" d="M0.516,18.576c-0.058-0.069-0.105-0.145-0.162-0.215v23.031
			c0,5.226,4.275,9.5,9.5,9.5c5.225,0,9.5-4.274,9.5-9.5v-9.94C9.068,27.89,2.665,21.141,0.516,18.576"/>
		<path clip-path="url(#SVGID_4_)" fill="#04FFCC" d="M9.854,0.612c-5.225,0-9.5,4.275-9.5,9.5v8.249
			c0.057,0.07,0.104,0.146,0.162,0.215c2.15,2.565,8.552,9.313,18.838,12.875V10.112C19.354,4.887,15.079,0.612,9.854,0.612"/>
		<g opacity="0.12" clip-path="url(#SVGID_4_)">
			<g>
				<defs>
					<rect id="SVGID_7_" x="0.354" y="0.612" width="19" height="30.839"/>
				</defs>
				<clipPath id="SVGID_8_">
					<use xlink:href="#SVGID_7_"  overflow="visible"/>
				</clipPath>
				<path clip-path="url(#SVGID_8_)" d="M9.854,0.612c-5.225,0-9.5,4.275-9.5,9.5v8.249c0.057,0.07,0.104,0.146,0.162,0.215
					c2.15,2.565,8.552,9.313,18.838,12.875V10.112C19.354,4.887,15.079,0.612,9.854,0.612"/>
			</g>
		</g>
		<path clip-path="url(#SVGID_4_)" fill="#FFEA00" d="M32.975,30.95c-17.286,0-27.791-10.927-30.604-14.284
			c-3.6-4.294-3.036-10.694,1.258-14.295C7.925-1.228,14.324-0.666,17.925,3.63c0.603,0.72,6.148,7.026,15.056,7.026h0.055
			c8.872-0.025,14.397-6.312,15-7.028c3.601-4.294,10-4.857,14.296-1.255c4.293,3.601,4.854,10.001,1.254,14.295
			c-2.799,3.339-13.272,14.234-30.494,14.282H32.975z"/>
		<g clip-path="url(#SVGID_4_)">
			<path fill="#212121" d="M32.98,22.071c-8.857,0-15.487-3.79-19.494-6.976c-0.548-0.436-0.639-1.234-0.204-1.783
				c0.436-0.548,1.234-0.641,1.783-0.204c3.69,2.934,9.79,6.425,17.915,6.425c0.026,0,0.053,0,0.079,0
				c8.079-0.023,14.142-3.492,17.806-6.399c0.547-0.436,1.346-0.344,1.782,0.205c0.435,0.549,0.343,1.347-0.206,1.782
				c-3.978,3.156-10.568,6.924-19.374,6.949C33.038,22.071,33.009,22.071,32.98,22.071z"/>
		</g>
		<path clip-path="url(#SVGID_4_)" fill="#FF0090" d="M47.655,16.959l1.816,4.063c0.571,1.276-0.016,2.788-1.305,3.359l-0.099,0.044
			c-1.288,0.571-2.81-0.006-3.381-1.281l-1.815-4.063"/>
	</g>
</g>
</svg>
