<svg xmlns="http://www.w3.org/2000/svg" viewBox="0 0 61.24 59.65"><defs><style>.cls-1{isolation:isolate;}.cls-2{fill:none;stroke:#04ffcc;stroke-linecap:round;stroke-linejoin:round;stroke-width:8px;}.cls-3{fill:#acff6e;}.cls-4{fill:#ff0090;}.cls-5{opacity:0.12;mix-blend-mode:multiply;}.cls-6{fill:#04ffcc;}.cls-7{fill:#ffea00;}.cls-8{fill:#212121;}.cls-9{fill:#00bae2;}</style></defs><title>mf-search2</title><g class="cls-1"><g id="Layer_2" data-name="Layer 2"><line class="cls-2" x1="20.38" y1="40.51" x2="4" y2="55.58"/><path class="cls-3" d="M681.33,330.32a4,4,0,0,0,2.71-1.06l16.38-15.07A4,4,0,1,0,695,308.3l-16.38,15.08a4,4,0,0,0,2.71,6.94Z" transform="translate(-677.33 -270.67)"/><path class="cls-4" d="M719.52,289.83a2.47,2.47,0,0,0-2.47,2.46v8.13a2.47,2.47,0,1,0,4.93,0v-8.13A2.47,2.47,0,0,0,719.52,289.83Z" transform="translate(-677.33 -270.67)"/><path class="cls-5" d="M722,294.49l0,0v-2.18a2.47,2.47,0,0,0-4.93,0v5.55A11.44,11.44,0,0,0,722,294.49Z" transform="translate(-677.33 -270.67)"/><path class="cls-6" d="M705.09,294.49l0-.05v6a2.47,2.47,0,0,0,4.94,0v-2.58A11.55,11.55,0,0,1,705.09,294.49Z" transform="translate(-677.33 -270.67)"/><path class="cls-6" d="M707.52,289.83a2.47,2.47,0,0,0-2.47,2.46v2.15l0,.05a11.55,11.55,0,0,0,4.9,3.35v-5.55A2.47,2.47,0,0,0,707.52,289.83Z" transform="translate(-677.33 -270.67)"/><path class="cls-5" d="M707.52,289.83a2.47,2.47,0,0,0-2.47,2.46v2.15l0,.05a11.55,11.55,0,0,0,4.9,3.35v-5.55A2.47,2.47,0,0,0,707.52,289.83Z" transform="translate(-677.33 -270.67)"/><path class="cls-7" d="M713.53,297.71a10.57,10.57,0,0,1-7.95-3.71,2.64,2.64,0,1,1,4-3.39,5.33,5.33,0,0,0,3.91,1.83h0a5.39,5.39,0,0,0,3.9-1.83,2.64,2.64,0,1,1,4,3.39,10.59,10.59,0,0,1-7.92,3.71Z" transform="translate(-677.33 -270.67)"/><path class="cls-8" d="M713.53,295.4a8.14,8.14,0,0,1-5.07-1.81.33.33,0,0,1-.05-.46.32.32,0,0,1,.46-.06,7.44,7.44,0,0,0,4.66,1.67h0a7.49,7.49,0,0,0,4.63-1.66.33.33,0,0,1,.46.05.34.34,0,0,1,0,.47,8.17,8.17,0,0,1-5,1.8Z" transform="translate(-677.33 -270.67)"/><path class="cls-4" d="M717.34,294.07l.47,1.06a.66.66,0,0,1-.33.87h0a.67.67,0,0,1-.88-.33l-.47-1.06" transform="translate(-677.33 -270.67)"/><path class="cls-9" d="M688.24,295.83A25.17,25.17,0,1,1,713.4,321,25.19,25.19,0,0,1,688.24,295.83Zm8,0a17.17,17.17,0,1,0,17.16-17.16A17.18,17.18,0,0,0,696.24,295.83Z" transform="translate(-677.33 -270.67)"/><path class="cls-5" d="M690.87,312.05l1.89-1.75a25.17,25.17,0,0,0,5.59,5.74l-2.06,1.89A25.27,25.27,0,0,1,690.87,312.05Z" transform="translate(-677.33 -270.67)"/></g></g></svg>