<?xml version="1.0" encoding="utf-8"?>
<!-- Generator: Adobe Illustrator 16.0.0, SVG Export Plug-In . SVG Version: 6.00 Build 0)  -->
<!DOCTYPE svg PUBLIC "-//W3C//DTD SVG 1.1//EN" "http://www.w3.org/Graphics/SVG/1.1/DTD/svg11.dtd">
<svg version="1.1" id="Layer_1" xmlns="http://www.w3.org/2000/svg" xmlns:xlink="http://www.w3.org/1999/xlink" x="0px" y="0px"
	 width="61.236px" height="59.654px" viewBox="0 0 61.236 59.654" enable-background="new 0 0 61.236 59.654" xml:space="preserve">
<g>
	<defs>
		<rect id="SVGID_1_" width="61.236" height="59.654"/>
	</defs>
	<clipPath id="SVGID_2_">
		<use xlink:href="#SVGID_1_"  overflow="visible"/>
	</clipPath>
	<g clip-path="url(#SVGID_2_)">
		<defs>
			<rect id="SVGID_3_" y="0" width="61.237" height="59.654"/>
		</defs>
		<clipPath id="SVGID_4_">
			<use xlink:href="#SVGID_3_"  overflow="visible"/>
		</clipPath>
		<g clip-path="url(#SVGID_4_)">
			<path fill="#04FFCC" d="M57.235,59.583c-0.968,0-1.938-0.35-2.708-1.057l-16.38-15.072c-1.625-1.496-1.73-4.026-0.234-5.651
				c1.495-1.627,4.024-1.73,5.652-0.235l16.38,15.072c1.625,1.496,1.73,4.026,0.234,5.651
				C59.392,59.148,58.314,59.583,57.235,59.583z"/>
		</g>
		<path clip-path="url(#SVGID_4_)" fill="#ACFF6E" d="M57.235,59.654c-0.968,0-1.938-0.349-2.708-1.057L38.148,43.525
			c-1.626-1.496-1.73-4.027-0.234-5.652c1.495-1.626,4.026-1.731,5.651-0.234l16.379,15.073c1.626,1.494,1.731,4.025,0.235,5.65
			C59.392,59.22,58.315,59.654,57.235,59.654"/>
		<path clip-path="url(#SVGID_4_)" fill="#FF0090" d="M19.054,19.159c1.358,0,2.469,1.111,2.469,2.468v5.552v2.576
			c0,1.357-1.111,2.468-2.469,2.468c-1.357,0-2.468-1.111-2.468-2.468V23.8v-2.173C16.586,20.271,17.697,19.159,19.054,19.159"/>
		<g opacity="0.12" clip-path="url(#SVGID_4_)">
			<g>
				<defs>
					<rect id="SVGID_5_" x="16.586" y="19.159" width="4.937" height="8.02"/>
				</defs>
				<clipPath id="SVGID_6_">
					<use xlink:href="#SVGID_5_"  overflow="visible"/>
				</clipPath>
				<path clip-path="url(#SVGID_6_)" d="M16.607,23.828c-0.007-0.009-0.014-0.019-0.021-0.028v-2.172
					c0-1.358,1.111-2.468,2.468-2.468c1.358,0,2.469,1.11,2.469,2.468v5.551C18.837,26.255,17.166,24.495,16.607,23.828"/>
			</g>
		</g>
		<path clip-path="url(#SVGID_4_)" fill="#04FFCC" d="M33.477,23.827c0.015-0.018,0.026-0.038,0.042-0.056v5.984
			c0,1.358-1.11,2.468-2.469,2.468c-1.358,0-2.469-1.109-2.469-2.468v-2.583C31.254,26.247,32.918,24.494,33.477,23.827"/>
		<path clip-path="url(#SVGID_4_)" fill="#04FFCC" d="M31.05,19.159c1.358,0,2.468,1.111,2.468,2.468v2.144
			c-0.014,0.018-0.026,0.037-0.042,0.055c-0.558,0.667-2.222,2.42-4.894,3.346v-5.545C28.582,20.271,29.693,19.159,31.05,19.159"/>
		<g opacity="0.12" clip-path="url(#SVGID_4_)">
			<g>
				<defs>
					<rect id="SVGID_7_" x="28.582" y="19.159" width="4.937" height="8.013"/>
				</defs>
				<clipPath id="SVGID_8_">
					<use xlink:href="#SVGID_7_"  overflow="visible"/>
				</clipPath>
				<path clip-path="url(#SVGID_8_)" d="M31.05,19.159c1.358,0,2.468,1.111,2.468,2.468v2.144c-0.014,0.018-0.026,0.037-0.042,0.055
					c-0.558,0.667-2.222,2.42-4.894,3.346v-5.545C28.582,20.271,29.693,19.159,31.05,19.159"/>
			</g>
		</g>
		<path clip-path="url(#SVGID_4_)" fill="#FFEA00" d="M25.042,27.042c4.491,0,7.221-2.839,7.952-3.711
			c0.936-1.116,0.789-2.779-0.326-3.715c-1.116-0.935-2.779-0.789-3.715,0.327c-0.157,0.187-1.597,1.826-3.911,1.826h-0.015
			c-2.305-0.007-3.741-1.64-3.897-1.826c-0.936-1.116-2.598-1.262-3.714-0.326c-1.116,0.935-1.262,2.598-0.327,3.714
			c0.728,0.867,3.449,3.698,7.924,3.711H25.042z"/>
		<path clip-path="url(#SVGID_4_)" fill="#212121" d="M25.041,24.735c2.301,0,4.023-0.985,5.065-1.812
			c0.143-0.114,0.166-0.321,0.053-0.463c-0.114-0.143-0.32-0.167-0.463-0.054c-0.959,0.763-2.545,1.67-4.655,1.67H25.02
			c-2.099-0.006-3.674-0.907-4.626-1.663c-0.142-0.113-0.35-0.089-0.463,0.053c-0.113,0.143-0.089,0.351,0.053,0.464
			c1.034,0.82,2.746,1.799,5.035,1.805H25.041z"/>
		<path clip-path="url(#SVGID_4_)" fill="#FF0090" d="M21.228,23.407l-0.472,1.056c-0.149,0.331,0.004,0.724,0.339,0.872
			l0.026,0.012c0.334,0.148,0.73-0.002,0.878-0.333l0.472-1.056"/>
		<path clip-path="url(#SVGID_4_)" fill="#00BAE2" d="M25.167,50.333C11.29,50.333,0,39.044,0,25.167S11.29,0,25.167,0
			c13.877,0,25.167,11.29,25.167,25.167S39.044,50.333,25.167,50.333 M25.167,8C15.701,8,8,15.701,8,25.167
			s7.701,17.166,17.167,17.166c9.466,0,17.167-7.7,17.167-17.166S34.633,8,25.167,8"/>
		<g opacity="0.12" clip-path="url(#SVGID_4_)">
			<g>
				<defs>
					<rect id="SVGID_9_" x="40.225" y="39.638" width="7.479" height="7.626"/>
				</defs>
				<clipPath id="SVGID_10_">
					<use xlink:href="#SVGID_9_"  overflow="visible"/>
				</clipPath>
				<path clip-path="url(#SVGID_10_)" d="M47.704,41.382l-1.896-1.744c-1.547,2.193-3.431,4.132-5.582,5.732l2.057,1.894
					C44.385,45.604,46.219,43.619,47.704,41.382"/>
			</g>
		</g>
	</g>
</g>
</svg>
