<?xml version="1.0" encoding="utf-8"?>
<!-- Generator: Adobe Illustrator 16.0.0, SVG Export Plug-In . SVG Version: 6.00 Build 0)  -->
<!DOCTYPE svg PUBLIC "-//W3C//DTD SVG 1.1//EN" "http://www.w3.org/Graphics/SVG/1.1/DTD/svg11.dtd">
<svg version="1.1" id="Layer_1" xmlns="http://www.w3.org/2000/svg" xmlns:xlink="http://www.w3.org/1999/xlink" x="0px" y="0px"
	 width="39.914px" height="11.812px" viewBox="0 0 39.914 11.812" enable-background="new 0 0 39.914 11.812" xml:space="preserve">
<g>
	<defs>
		<rect id="SVGID_1_" y="0" width="39.914" height="11.811"/>
	</defs>
	<clipPath id="SVGID_2_">
		<use xlink:href="#SVGID_1_"  overflow="visible"/>
	</clipPath>
	<g clip-path="url(#SVGID_2_)">
		<path fill="#212121" d="M19.971,9.236c-8.854,0-15.483-3.79-19.491-6.975C-0.069,1.825-0.16,1.027,0.276,0.479
			C0.712-0.07,1.509-0.162,2.059,0.275c3.69,2.934,9.791,6.424,17.912,6.424c0.027,0,0.054,0,0.081,0
			c8.079-0.022,14.142-3.492,17.806-6.398c0.548-0.436,1.347-0.344,1.782,0.205c0.435,0.549,0.343,1.347-0.206,1.782
			C35.456,5.444,28.865,9.212,20.06,9.236C20.03,9.236,20,9.236,19.971,9.236z"/>
	</g>
	<path clip-path="url(#SVGID_2_)" fill="#FF0090" d="M34.647,4.125l1.816,4.063c0.572,1.275-0.016,2.788-1.304,3.358l-0.1,0.044
		c-1.288,0.571-2.809-0.006-3.38-1.28l-1.815-4.063"/>
</g>
</svg>
