<svg id="Layer_1" data-name="Layer 1" xmlns="http://www.w3.org/2000/svg" viewBox="0 0 22.76 22.98"><defs><style>.cls-1{fill:none;stroke:#ff0090;stroke-linecap:round;stroke-linejoin:round;stroke-width:1.25px;}</style></defs><title>mysettings</title><path class="cls-1" d="M4057.14,1811.36h0a3.49,3.49,0,0,0,0,6.26h0a1,1,0,0,1,.46,1.29,1.92,1.92,0,0,1-.56.64.72.72,0,0,1-.64,0h0a3.36,3.36,0,0,0-2.49.1,3.57,3.57,0,0,0-1.1.73,3.51,3.51,0,0,0-.83,3.59h0a1.07,1.07,0,0,1-.65,1.29.92.92,0,0,1-1.29-.46h0a3.46,3.46,0,0,0-3.13-2,3.33,3.33,0,0,0-3,2h0a1,1,0,0,1-.46.46,1.19,1.19,0,0,1-.83,0,1,1,0,0,1-.64-1.29h0a3.35,3.35,0,0,0-.83-3.59,3.53,3.53,0,0,0-3.59-.83h0a1.06,1.06,0,0,1-1.29-.64,1,1,0,0,1,.46-1.29h0a3.5,3.5,0,0,0,0-6.26h0a1,1,0,0,1-.46-1.29c.09-.28.37-.46.55-.65a.79.79,0,0,1,.64,0h0a3.31,3.31,0,0,0,2.49-.09,4,4,0,0,0,1.11-.74,3.54,3.54,0,0,0,.83-3.59h0a1.06,1.06,0,0,1,.64-1.29,1,1,0,0,1,1.29.46h0a3.45,3.45,0,0,0,3.13,2,2.87,2.87,0,0,0,1.29-.28,3,3,0,0,0,1.75-1.75h0a1.13,1.13,0,0,1,.46-.46,1.31,1.31,0,0,1,.83,0,1,1,0,0,1,.65,1.29h0a3.32,3.32,0,0,0,.82,3.59,3.52,3.52,0,0,0,3.6.83h0a1.07,1.07,0,0,1,1.29.65A1,1,0,0,1,4057.14,1811.36Z" transform="translate(-4035.53 -1803.02)"/><path class="cls-1" d="M4048.29,1817.8a3.59,3.59,0,1,1,1.94-4.69A3.67,3.67,0,0,1,4048.29,1817.8Z" transform="translate(-4035.53 -1803.02)"/></svg>