<?xml version="1.0" encoding="utf-8"?>
<!-- Generator: Adobe Illustrator 16.0.0, SVG Export Plug-In . SVG Version: 6.00 Build 0)  -->
<!DOCTYPE svg PUBLIC "-//W3C//DTD SVG 1.1//EN" "http://www.w3.org/Graphics/SVG/1.1/DTD/svg11.dtd">
<svg version="1.1" id="Layer_1" xmlns="http://www.w3.org/2000/svg" xmlns:xlink="http://www.w3.org/1999/xlink" x="0px" y="0px"
	 width="58.35px" height="32.498px" viewBox="0 0 58.35 32.498" enable-background="new 0 0 58.35 32.498" xml:space="preserve">
<g>
	<defs>
		<rect id="SVGID_1_" width="58.35" height="32.498"/>
	</defs>
	<clipPath id="SVGID_2_">
		<use xlink:href="#SVGID_1_"  overflow="visible"/>
	</clipPath>
	<g clip-path="url(#SVGID_2_)">
		<defs>
			<rect id="SVGID_3_" y="0" width="58.35" height="32.497"/>
		</defs>
		<clipPath id="SVGID_4_">
			<use xlink:href="#SVGID_3_"  overflow="visible"/>
		</clipPath>
		<g opacity="0.06" clip-path="url(#SVGID_4_)">
			<g>
				<defs>
					<rect id="SVGID_5_" x="5.616" y="20.92" width="52.734" height="11.577"/>
				</defs>
				<clipPath id="SVGID_6_">
					<use xlink:href="#SVGID_5_"  overflow="visible"/>
				</clipPath>
				<path clip-path="url(#SVGID_6_)" fill="#061715" d="M56.18,20.92H26.354c-2.217-0.039-5.224,1.307-6.683,2.16L9.53,29.026
					l-3.124,1.832c-1.459,0.854-0.837,1.585,1.38,1.626l19.418,0.014c8.372,0,30.357-10.63,30.357-10.63
					C59.019,21.014,58.397,20.959,56.18,20.92"/>
			</g>
		</g>
		<path clip-path="url(#SVGID_4_)" fill="#FFF200" d="M26.901,0H4.625C2.082,0,0,2.082,0,4.625v17.691v5.45
			c0,2.544,2.082,4.625,4.625,4.625h22.276c2.543,0,4.625-2.081,4.625-4.625v-5.45V4.625C31.525,2.082,29.444,0,26.901,0"/>
		<path clip-path="url(#SVGID_4_)" fill="#E61855" d="M18.763,18.547c0.331-0.527,0.532-1.125,0.585-1.745l3.122-0.218
			c0.102,0.278,0.258,0.534,0.459,0.753c0.402,0.438,0.964,0.695,1.559,0.716h0.08c0.567,0.001,1.112-0.216,1.524-0.606
			c0.896-0.849,0.945-2.259,0.112-3.17c-0.833-0.903-2.239-0.959-3.142-0.126c-0.008,0.007-0.015,0.014-0.023,0.021
			c-0.361,0.339-0.599,0.789-0.677,1.278l-3.085,0.205c-0.263-1.231-1.106-2.258-2.263-2.755l0.723-2.846
			c0.56-0.001,1.098-0.214,1.506-0.597c0.908-0.847,0.963-2.268,0.124-3.183c-0.832-0.905-2.239-0.963-3.143-0.132
			c-0.006,0.007-0.013,0.013-0.02,0.019c-0.9,0.85-0.95,2.266-0.112,3.177c0.158,0.171,0.342,0.317,0.546,0.431l-0.735,2.844
			c-1.25-0.125-2.484,0.368-3.303,1.322l-2.162-1.404c0.032-0.088,0.06-0.177,0.083-0.269c0.381-1.492-0.511-3.012-1.999-3.406
			C7.81,8.67,7.054,8.777,6.422,9.152c-1.333,0.785-1.776,2.502-0.991,3.834c0.502,0.851,1.414,1.375,2.402,1.379
			c0.494-0.001,0.978-0.134,1.403-0.386c0.218-0.131,0.419-0.291,0.594-0.475l2.158,1.4c-0.505,1.158-0.419,2.487,0.229,3.571
			l-2.261,1.87c-0.864-0.654-2.075-0.588-2.864,0.155c-0.906,0.852-0.953,2.276-0.106,3.188c0.402,0.438,0.964,0.697,1.559,0.716
			h0.08c0.567,0.001,1.113-0.216,1.524-0.605c0.69-0.653,0.899-1.666,0.524-2.538l2.267-1.895c0.933,0.842,2.22,1.17,3.443,0.879
			l1.054,2.653c-0.589,0.381-1.011,0.971-1.182,1.651c-0.382,1.491,0.51,3.011,1.999,3.405c1.485,0.383,2.999-0.513,3.381-1.998
			c0.001-0.006,0.003-0.012,0.004-0.018c0.377-1.492-0.52-3.009-2.008-3.398c-0.371-0.097-0.757-0.114-1.134-0.054l-1.056-2.657
			C17.979,19.514,18.432,19.075,18.763,18.547 M23.826,15.007c0.2-0.189,0.465-0.294,0.74-0.294h0.039
			c0.288,0.01,0.56,0.136,0.755,0.349c0.411,0.448,0.386,1.143-0.055,1.562c-0.431,0.409-1.112,0.392-1.522-0.038
			c-0.004-0.006-0.008-0.01-0.012-0.013C23.358,16.124,23.382,15.426,23.826,15.007 M16.979,6.996
			c0.199-0.188,0.463-0.293,0.737-0.293h0.043c0.289,0.01,0.561,0.136,0.755,0.349c0.411,0.448,0.387,1.143-0.055,1.561
			c-0.432,0.408-1.113,0.389-1.522-0.043c-0.003-0.004-0.007-0.009-0.011-0.013C16.515,8.11,16.539,7.415,16.979,6.996 M8.65,12.994
			c-0.369,0.22-0.811,0.283-1.228,0.175c-0.878-0.235-1.402-1.134-1.175-2.013c0.108-0.425,0.38-0.789,0.758-1.01
			c0.369-0.22,0.811-0.283,1.228-0.175c0.876,0.235,1.401,1.132,1.174,2.011C9.301,12.407,9.028,12.772,8.65,12.994 M18.933,23.598
			c0.137,0,0.274,0.018,0.406,0.053c0.877,0.235,1.401,1.132,1.175,2.011c-0.106,0.425-0.377,0.787-0.753,1.011
			c-0.369,0.219-0.811,0.282-1.228,0.174c-0.877-0.234-1.402-1.13-1.177-2.01c0.106-0.428,0.379-0.792,0.758-1.016
			c0.249-0.146,0.532-0.224,0.821-0.223H18.933z M9.362,22.957c-0.432,0.407-1.114,0.389-1.522-0.044
			c-0.004-0.004-0.008-0.008-0.012-0.013c-0.41-0.447-0.386-1.142,0.056-1.56c0.199-0.19,0.464-0.294,0.739-0.294h0.039
			c0.288,0.009,0.56,0.134,0.755,0.346c0.411,0.449,0.386,1.143-0.055,1.561V22.957z M14.843,19.116
			c-1.461-0.392-2.329-1.893-1.937-3.354c0.221-0.829,0.82-1.506,1.616-1.829c1.089-0.434,2.333-0.109,3.071,0.803
			c0.75,0.917,0.831,2.211,0.199,3.214C17.168,18.94,15.975,19.412,14.843,19.116"/>
	</g>
</g>
</svg>
