<?xml version="1.0" encoding="utf-8"?>
<!-- Generator: Adobe Illustrator 16.0.0, SVG Export Plug-In . SVG Version: 6.00 Build 0)  -->
<!DOCTYPE svg PUBLIC "-//W3C//DTD SVG 1.1//EN" "http://www.w3.org/Graphics/SVG/1.1/DTD/svg11.dtd">
<svg version="1.1" id="Layer_1" xmlns="http://www.w3.org/2000/svg" xmlns:xlink="http://www.w3.org/1999/xlink" x="0px" y="0px"
	 width="58.35px" height="32.498px" viewBox="0 0 58.35 32.498" enable-background="new 0 0 58.35 32.498" xml:space="preserve">
<g>
	<defs>
		<rect id="SVGID_1_" width="58.35" height="32.498"/>
	</defs>
	<clipPath id="SVGID_2_">
		<use xlink:href="#SVGID_1_"  overflow="visible"/>
	</clipPath>
	<g clip-path="url(#SVGID_2_)">
		<defs>
			<rect id="SVGID_3_" y="0" width="58.35" height="32.497"/>
		</defs>
		<clipPath id="SVGID_4_">
			<use xlink:href="#SVGID_3_"  overflow="visible"/>
		</clipPath>
		<g opacity="0.06" clip-path="url(#SVGID_4_)">
			<g>
				<defs>
					<rect id="SVGID_5_" x="5.616" y="20.92" width="52.734" height="11.577"/>
				</defs>
				<clipPath id="SVGID_6_">
					<use xlink:href="#SVGID_5_"  overflow="visible"/>
				</clipPath>
				<path clip-path="url(#SVGID_6_)" fill="#061715" d="M56.18,20.92H26.354c-2.217-0.04-5.225,1.307-6.683,2.161L9.529,29.026
					l-3.124,1.832c-1.458,0.854-0.837,1.586,1.38,1.625l19.418,0.015c8.372,0,30.357-10.63,30.357-10.63
					C59.019,21.014,58.397,20.96,56.18,20.92"/>
			</g>
		</g>
		<path clip-path="url(#SVGID_4_)" fill="#FF0090" d="M26.901,0H4.625C2.082,0,0,2.082,0,4.625v17.691v5.45
			c0,2.544,2.082,4.625,4.625,4.625h22.276c2.543,0,4.625-2.081,4.625-4.625v-5.45V4.625C31.525,2.082,29.444,0,26.901,0"/>
		<path clip-path="url(#SVGID_4_)" fill="#FFEA00" d="M13.543,20.856c0,1.433,1.165,2.598,2.598,2.598s2.599-1.165,2.599-2.598
			c0-1.434-1.166-2.6-2.599-2.6S13.543,19.422,13.543,20.856 M17.998,20.856c0,1.022-0.833,1.855-1.856,1.855
			s-1.856-0.833-1.856-1.855c0-1.023,0.833-1.856,1.856-1.856S17.998,19.833,17.998,20.856"/>
		<g clip-path="url(#SVGID_4_)">
			<path fill="#FFEA00" d="M16.142,23.628c-1.529,0-2.773-1.243-2.773-2.772c0-1.53,1.244-2.774,2.773-2.774
				c1.53,0,2.774,1.244,2.774,2.774C18.916,22.385,17.671,23.628,16.142,23.628z M16.142,18.431c-1.336,0-2.423,1.088-2.423,2.425
				c0,1.336,1.087,2.423,2.423,2.423c1.336,0,2.424-1.087,2.424-2.423C18.566,19.519,17.478,18.431,16.142,18.431z M16.142,22.886
				c-1.12,0-2.031-0.911-2.031-2.03c0-1.12,0.911-2.031,2.031-2.031s2.031,0.911,2.031,2.031
				C18.172,21.975,17.262,22.886,16.142,22.886z M16.142,19.174c-0.927,0-1.681,0.755-1.681,1.682s0.754,1.681,1.681,1.681
				s1.681-0.754,1.681-1.681S17.068,19.174,16.142,19.174z"/>
		</g>
		<path clip-path="url(#SVGID_4_)" fill="#FFEA00" d="M24.309,14.917c0-1.433-1.166-2.598-2.599-2.598s-2.598,1.165-2.598,2.598
			c0,1.433,1.165,2.599,2.598,2.599S24.309,16.349,24.309,14.917 M19.854,14.917c0-1.023,0.833-1.856,1.856-1.856
			s1.856,0.833,1.856,1.856s-0.833,1.855-1.856,1.855S19.854,15.939,19.854,14.917"/>
		<g clip-path="url(#SVGID_4_)">
			<path fill="#FFEA00" d="M21.709,17.69c-1.529,0-2.773-1.244-2.773-2.773s1.244-2.773,2.773-2.773c1.53,0,2.774,1.244,2.774,2.773
				S23.239,17.69,21.709,17.69z M21.709,12.493c-1.336,0-2.423,1.087-2.423,2.423c0,1.336,1.087,2.424,2.423,2.424
				c1.336,0,2.424-1.087,2.424-2.424C24.134,13.581,23.046,12.493,21.709,12.493z M21.709,16.947c-1.12,0-2.031-0.911-2.031-2.03
				c0-1.12,0.911-2.031,2.031-2.031s2.031,0.911,2.031,2.031C23.74,16.036,22.83,16.947,21.709,16.947z M21.709,13.235
				c-0.927,0-1.681,0.754-1.681,1.681s0.754,1.681,1.681,1.681s1.681-0.754,1.681-1.681S22.636,13.235,21.709,13.235z"/>
		</g>
		<path clip-path="url(#SVGID_4_)" fill="#FFEA00" d="M24.679,22.34c-1.421,0-2.578,1.147-2.597,2.564l-11.881-1.048
			c0-0.011,0.001-0.021,0.001-0.031c0-0.83-0.393-1.569-1-2.045l1.968-4.593c0.374,0.208,0.803,0.327,1.259,0.327
			c1.433,0,2.599-1.166,2.599-2.598c0-0.363-0.076-0.708-0.21-1.022l6.009-4.006c0.445,0.358,1.01,0.573,1.625,0.573
			c1.433,0,2.598-1.165,2.598-2.598s-1.165-2.598-2.598-2.598c-1.306,0-2.388,0.969-2.569,2.227h-9.71
			C9.991,6.235,8.91,5.266,7.604,5.266c-1.433,0-2.598,1.165-2.598,2.598s1.165,2.598,2.598,2.598c1.306,0,2.387-0.97,2.569-2.227
			h9.71c0.058,0.405,0.209,0.781,0.431,1.102l-5.884,3.924c-0.477-0.575-1.196-0.943-2.001-0.943c-1.433,0-2.598,1.166-2.598,2.599
			c0,0.7,0.28,1.336,0.732,1.803l-2.009,4.688c-0.295-0.115-0.615-0.182-0.95-0.182c-1.433,0-2.598,1.166-2.598,2.599
			c0,1.432,1.165,2.598,2.598,2.598c1.166,0,2.155-0.771,2.483-1.832l12.097,1.068c0.313,1.083,1.312,1.878,2.495,1.878
			c1.433,0,2.599-1.166,2.599-2.599C27.278,23.505,26.112,22.34,24.679,22.34 M22.452,6.008c1.023,0,1.856,0.832,1.856,1.856
			c0,1.023-0.833,1.856-1.856,1.856s-1.856-0.833-1.856-1.856C20.596,6.84,21.429,6.008,22.452,6.008 M7.604,9.72
			c-1.024,0-1.856-0.833-1.856-1.856c0-1.024,0.832-1.856,1.856-1.856c1.023,0,1.856,0.832,1.856,1.856
			C9.46,8.887,8.627,9.72,7.604,9.72 M12.429,13.061c1.024,0,1.856,0.833,1.856,1.856c0,1.023-0.832,1.856-1.856,1.856
			c-1.023,0-1.855-0.833-1.855-1.856C10.574,13.894,11.406,13.061,12.429,13.061 M7.604,25.682c-1.024,0-1.856-0.833-1.856-1.856
			S6.58,21.97,7.604,21.97c1.023,0,1.856,0.832,1.856,1.855S8.627,25.682,7.604,25.682 M24.679,26.794
			c-1.023,0-1.856-0.833-1.856-1.855c0-1.023,0.833-1.856,1.856-1.856s1.856,0.833,1.856,1.856
			C26.535,25.961,25.702,26.794,24.679,26.794"/>
		<g clip-path="url(#SVGID_4_)">
			<path fill="#FFEA00" d="M24.679,27.712c-1.187,0-2.25-0.771-2.627-1.889l-11.843-1.046c-0.399,1.095-1.429,1.82-2.605,1.82
				c-1.529,0-2.773-1.243-2.773-2.772s1.244-2.773,2.773-2.773c0.289,0,0.575,0.046,0.854,0.137l1.899-4.434
				c-0.453-0.509-0.701-1.157-0.701-1.838c0-1.53,1.244-2.774,2.773-2.774c0.774,0,1.506,0.321,2.031,0.887l5.613-3.744
				c-0.161-0.27-0.276-0.568-0.338-0.877h-9.415c-0.259,1.28-1.4,2.227-2.717,2.227c-1.529,0-2.773-1.244-2.773-2.773
				s1.244-2.773,2.773-2.773c1.316,0,2.458,0.947,2.717,2.227h9.415c0.257-1.28,1.399-2.227,2.716-2.227
				c1.529,0,2.773,1.244,2.773,2.773s-1.244,2.773-2.773,2.773c-0.585,0-1.16-0.188-1.632-0.533l-5.788,3.858
				c0.113,0.308,0.17,0.629,0.17,0.956c0,1.529-1.244,2.773-2.774,2.773c-0.404,0-0.806-0.09-1.172-0.261l-1.842,4.3
				c0.581,0.501,0.925,1.206,0.959,1.968l11.542,1.018c0.116-1.422,1.318-2.549,2.763-2.549c1.53,0,2.774,1.244,2.774,2.773
				S26.209,27.712,24.679,27.712z M9.961,24.405l0.141,0.012l12.216,1.079l0.033,0.115c0.298,1.031,1.255,1.752,2.327,1.752
				c1.336,0,2.424-1.088,2.424-2.424s-1.088-2.424-2.424-2.424c-1.318,0-2.404,1.073-2.422,2.392l-0.002,0.188l-0.188-0.016
				l-12.041-1.062v-0.16c0.001-0.778-0.339-1.474-0.932-1.938l-0.106-0.083l2.097-4.895l0.169,0.094
				c0.359,0.2,0.765,0.306,1.174,0.306c1.336,0,2.424-1.087,2.424-2.423c0-0.328-0.066-0.648-0.197-0.954L14.6,13.83l6.237-4.158
				l0.1,0.081c0.435,0.35,0.958,0.535,1.515,0.535c1.336,0,2.423-1.087,2.423-2.423S23.788,5.44,22.452,5.44
				c-1.196,0-2.226,0.893-2.396,2.077l-0.021,0.15H10.022L10,7.518C9.829,6.333,8.798,5.44,7.604,5.44
				c-1.336,0-2.423,1.087-2.423,2.423s1.087,2.423,2.423,2.423c1.194,0,2.225-0.893,2.396-2.077l0.022-0.15h10.013l0.021,0.15
				c0.052,0.367,0.191,0.722,0.401,1.027l0.101,0.146l-6.163,4.11l-0.101-0.121c-0.463-0.559-1.144-0.88-1.866-0.88
				c-1.336,0-2.423,1.088-2.423,2.424c0,0.629,0.243,1.226,0.683,1.681l0.081,0.084l-2.121,4.951l-0.158-0.062
				c-0.288-0.112-0.586-0.17-0.887-0.17c-1.336,0-2.423,1.088-2.423,2.424s1.087,2.423,2.423,2.423c1.069,0,2-0.687,2.316-1.709
				L9.961,24.405z M24.679,26.969c-1.12,0-2.031-0.911-2.031-2.03c0-1.12,0.911-2.031,2.031-2.031s2.031,0.911,2.031,2.031
				C26.71,26.058,25.799,26.969,24.679,26.969z M24.679,23.257c-0.927,0-1.681,0.755-1.681,1.682s0.754,1.681,1.681,1.681
				s1.681-0.754,1.681-1.681S25.606,23.257,24.679,23.257z M7.604,25.857c-1.12,0-2.031-0.911-2.031-2.031
				c0-1.119,0.911-2.03,2.031-2.03s2.031,0.911,2.031,2.03C9.635,24.946,8.724,25.857,7.604,25.857z M7.604,22.145
				c-0.927,0-1.681,0.754-1.681,1.681s0.754,1.682,1.681,1.682s1.681-0.755,1.681-1.682S8.531,22.145,7.604,22.145z M12.429,16.948
				c-1.119,0-2.03-0.911-2.03-2.031s0.911-2.031,2.03-2.031c1.12,0,2.031,0.911,2.031,2.031S13.549,16.948,12.429,16.948z
				 M12.429,13.235c-0.926,0-1.68,0.754-1.68,1.682c0,0.927,0.754,1.681,1.68,1.681c0.927,0,1.681-0.754,1.681-1.681
				C14.11,13.99,13.356,13.235,12.429,13.235z M22.452,9.895c-1.12,0-2.031-0.911-2.031-2.031s0.911-2.031,2.031-2.031
				s2.031,0.911,2.031,2.031S23.572,9.895,22.452,9.895z M22.452,6.183c-0.927,0-1.681,0.754-1.681,1.681s0.754,1.681,1.681,1.681
				s1.681-0.754,1.681-1.681S23.379,6.183,22.452,6.183z M7.604,9.895c-1.12,0-2.031-0.911-2.031-2.031s0.911-2.031,2.031-2.031
				s2.031,0.911,2.031,2.031S8.724,9.895,7.604,9.895z M7.604,6.183c-0.927,0-1.681,0.754-1.681,1.681s0.754,1.681,1.681,1.681
				s1.681-0.754,1.681-1.681S8.531,6.183,7.604,6.183z"/>
		</g>
		<rect x="6.862" y="12.689" clip-path="url(#SVGID_4_)" fill="#FFEA00" width="0.742" height="0.743"/>
		<g clip-path="url(#SVGID_4_)">
			<path fill="#FFEA00" d="M7.779,13.607H6.687v-1.093h1.092V13.607z M7.037,13.258h0.393v-0.394H7.037V13.258z"/>
		</g>
		<rect x="6.862" y="14.174" clip-path="url(#SVGID_4_)" fill="#FFEA00" width="0.742" height="0.742"/>
		<g clip-path="url(#SVGID_4_)">
			<path fill="#FFEA00" d="M7.779,15.091H6.687V14h1.092V15.091z M7.037,14.742h0.393v-0.393H7.037V14.742z"/>
		</g>
		<rect x="6.862" y="15.659" clip-path="url(#SVGID_4_)" fill="#FFEA00" width="0.742" height="0.742"/>
		<g clip-path="url(#SVGID_4_)">
			<path fill="#FFEA00" d="M7.779,16.576H6.687v-1.092h1.092V16.576z M7.037,16.226h0.393v-0.392H7.037V16.226z"/>
		</g>
		<rect x="20.596" y="19" clip-path="url(#SVGID_4_)" fill="#FFEA00" width="0.742" height="0.742"/>
		<g clip-path="url(#SVGID_4_)">
			<path fill="#FFEA00" d="M21.513,19.917h-1.091v-1.092h1.091V19.917z M20.771,19.567h0.392v-0.393h-0.392V19.567z"/>
		</g>
		<rect x="20.596" y="20.485" clip-path="url(#SVGID_4_)" fill="#FFEA00" width="0.742" height="0.741"/>
		<g clip-path="url(#SVGID_4_)">
			<path fill="#FFEA00" d="M21.513,21.401h-1.091V20.31h1.091V21.401z M20.771,21.051h0.392V20.66h-0.392V21.051z"/>
		</g>
		<rect x="20.596" y="21.969" clip-path="url(#SVGID_4_)" fill="#FFEA00" width="0.742" height="0.742"/>
		<g clip-path="url(#SVGID_4_)">
			<path fill="#FFEA00" d="M21.513,22.886h-1.091v-1.092h1.091V22.886z M20.771,22.537h0.392v-0.393h-0.392V22.537z"/>
		</g>
	</g>
</g>
</svg>
