<?xml version="1.0" encoding="utf-8"?>
<!-- Generator: Adobe Illustrator 16.0.0, SVG Export Plug-In . SVG Version: 6.00 Build 0)  -->
<!DOCTYPE svg PUBLIC "-//W3C//DTD SVG 1.1//EN" "http://www.w3.org/Graphics/SVG/1.1/DTD/svg11.dtd">
<svg version="1.1" id="Layer_1" xmlns="http://www.w3.org/2000/svg" xmlns:xlink="http://www.w3.org/1999/xlink" x="0px" y="0px"
	 width="63.352px" height="37.499px" viewBox="0 0 63.352 37.499" enable-background="new 0 0 63.352 37.499" xml:space="preserve">
<g>
	<defs>
		<rect id="SVGID_1_" width="63.352" height="37.499"/>
	</defs>
	<clipPath id="SVGID_2_">
		<use xlink:href="#SVGID_1_"  overflow="visible"/>
	</clipPath>
	<g clip-path="url(#SVGID_2_)">
		<defs>
			<rect id="SVGID_3_" width="63.351" height="37.499"/>
		</defs>
		<clipPath id="SVGID_4_">
			<use xlink:href="#SVGID_3_"  overflow="visible"/>
		</clipPath>
		<g opacity="0.06" clip-path="url(#SVGID_4_)">
			<g>
				<defs>
					<rect id="SVGID_5_" x="10.618" y="25.92" width="52.734" height="11.577"/>
				</defs>
				<clipPath id="SVGID_6_">
					<use xlink:href="#SVGID_5_"  overflow="visible"/>
				</clipPath>
				<path clip-path="url(#SVGID_6_)" fill="#061715" d="M61.182,25.921H31.355c-2.217-0.04-5.225,1.306-6.683,2.16l-10.142,5.944
					l-3.124,1.832c-1.458,0.854-0.837,1.586,1.381,1.626l19.418,0.014c8.371,0,30.356-10.629,30.356-10.629
					C64.021,26.014,63.399,25.96,61.182,25.921"/>
			</g>
		</g>
		<path clip-path="url(#SVGID_4_)" fill="#FFEA00" d="M32.008,5.107H9.732c-2.544,0-4.625,2.081-4.625,4.625v17.692v5.45
			c0,2.544,2.081,4.625,4.625,4.625h22.276c2.544,0,4.625-2.081,4.625-4.625v-5.45V9.732C36.633,7.188,34.552,5.107,32.008,5.107"/>
		<g clip-path="url(#SVGID_4_)">
			<path fill="#FF0090" d="M29.54,29.218c-0.3,0-0.543-0.243-0.543-0.543V16.796c-1.5,1.869-4.559,4.959-8.378,4.977
				c-0.011,0-0.021,0-0.032,0c-2.791,0-5.424-1.646-7.844-4.9v11.801c0,0.3-0.243,0.543-0.543,0.543s-0.543-0.243-0.543-0.543
				V15.125c0-0.241,0.159-0.454,0.391-0.521c0.232-0.066,0.48,0.026,0.61,0.229c2.484,3.896,5.148,5.91,7.956,5.854
				c4.769-0.021,8.429-5.792,8.466-5.85c0.129-0.206,0.377-0.298,0.61-0.234c0.232,0.067,0.393,0.28,0.393,0.522v13.549
				C30.083,28.975,29.84,29.218,29.54,29.218z"/>
		</g>
		<g clip-path="url(#SVGID_4_)">
			<path fill="#FF0090" d="M23.516,17.12c-0.139,0-0.278-0.053-0.384-0.159l-2.262-2.262l-2.262,2.262
				c-0.212,0.212-0.556,0.212-0.768,0c-0.212-0.212-0.212-0.556,0-0.768l2.646-2.646c0.212-0.212,0.556-0.212,0.768,0l2.646,2.646
				c0.212,0.212,0.212,0.556,0,0.768C23.793,17.067,23.655,17.12,23.516,17.12z"/>
		</g>
		<g clip-path="url(#SVGID_4_)">
			<path fill="#FF0090" d="M20.87,27.411c-0.3,0-0.543-0.243-0.543-0.543V14.351c0-0.3,0.243-0.543,0.543-0.543
				s0.543,0.243,0.543,0.543v12.517C21.413,27.168,21.17,27.411,20.87,27.411z"/>
		</g>
		<path clip-path="url(#SVGID_4_)" fill="#FFFFFF" d="M10.214,5.107c0,2.82-2.287,5.106-5.107,5.106C2.287,10.213,0,7.927,0,5.107
			C0,2.286,2.287,0,5.107,0C7.927,0,10.214,2.286,10.214,5.107"/>
		<line clip-path="url(#SVGID_4_)" fill="#FFFFFF" x1="5.107" y1="3.441" x2="5.107" y2="6.773"/>
		<g clip-path="url(#SVGID_4_)">
			<path fill="#FF0090" d="M5.107,7.316c-0.3,0-0.543-0.243-0.543-0.543V3.441c0-0.3,0.243-0.543,0.543-0.543S5.65,3.141,5.65,3.441
				v3.332C5.65,7.073,5.407,7.316,5.107,7.316z"/>
		</g>
		<line clip-path="url(#SVGID_4_)" fill="#FFFFFF" x1="6.772" y1="5.107" x2="3.441" y2="5.107"/>
		<g clip-path="url(#SVGID_4_)">
			<path fill="#FF0090" d="M6.772,5.65H3.441c-0.3,0-0.543-0.243-0.543-0.543s0.243-0.543,0.543-0.543h3.331
				c0.3,0,0.543,0.243,0.543,0.543S7.072,5.65,6.772,5.65z"/>
		</g>
	</g>
</g>
</svg>
