<?xml version="1.0" encoding="utf-8"?>
<!-- Generator: Adobe Illustrator 16.0.0, SVG Export Plug-In . SVG Version: 6.00 Build 0)  -->
<!DOCTYPE svg PUBLIC "-//W3C//DTD SVG 1.1//EN" "http://www.w3.org/Graphics/SVG/1.1/DTD/svg11.dtd">
<svg version="1.1" id="Layer_1" xmlns="http://www.w3.org/2000/svg" xmlns:xlink="http://www.w3.org/1999/xlink" x="0px" y="0px"
	 width="58.35px" height="35.169px" viewBox="0 0 58.35 35.169" enable-background="new 0 0 58.35 35.169" xml:space="preserve">
<g>
	<defs>
		<rect id="SVGID_1_" width="58.35" height="35.169"/>
	</defs>
	<clipPath id="SVGID_2_">
		<use xlink:href="#SVGID_1_"  overflow="visible"/>
	</clipPath>
	<g clip-path="url(#SVGID_2_)">
		<defs>
			<rect id="SVGID_3_" width="58.35" height="35.169"/>
		</defs>
		<clipPath id="SVGID_4_">
			<use xlink:href="#SVGID_3_"  overflow="visible"/>
		</clipPath>
		<g opacity="0.06" clip-path="url(#SVGID_4_)">
			<g>
				<defs>
					<rect id="SVGID_5_" x="5.616" y="23.592" width="52.734" height="11.577"/>
				</defs>
				<clipPath id="SVGID_6_">
					<use xlink:href="#SVGID_5_"  overflow="visible"/>
				</clipPath>
				<path clip-path="url(#SVGID_6_)" fill="#061715" d="M56.18,23.592H26.354c-2.217-0.039-5.224,1.307-6.683,2.16L9.53,31.697
					l-3.124,1.832c-1.459,0.854-0.837,1.585,1.38,1.626l19.418,0.014c8.372,0,30.357-10.63,30.357-10.63
					C59.019,23.686,58.397,23.631,56.18,23.592"/>
			</g>
		</g>
		<path clip-path="url(#SVGID_4_)" fill="#231F6E" d="M29.829,0H7.554C5.009,0,2.929,2.082,2.929,4.625v17.692v5.449
			c0,2.544,2.081,4.625,4.625,4.625h22.275c2.543,0,4.625-2.081,4.625-4.625v-5.449V4.625C34.454,2.082,32.372,0,29.829,0"/>
		<path clip-path="url(#SVGID_4_)" fill="#EB7387" d="M26.901,2.672H4.625C2.082,2.672,0,4.753,0,7.297v17.691v5.45
			c0,2.544,2.082,4.625,4.625,4.625h22.276c2.543,0,4.625-2.081,4.625-4.625v-5.45V7.297C31.525,4.753,29.444,2.672,26.901,2.672"/>
		<path clip-path="url(#SVGID_4_)" fill="#231F6E" d="M25.86,9.999H5.592c-0.234,0-0.424-0.19-0.424-0.425
			c0-0.235,0.19-0.425,0.424-0.425H25.86c0.235,0,0.425,0.19,0.425,0.425C26.285,9.809,26.095,9.999,25.86,9.999"/>
		<path clip-path="url(#SVGID_4_)" fill="#231F6E" d="M25.86,16.351H5.592c-0.234,0-0.424-0.19-0.424-0.425
			c0-0.235,0.19-0.425,0.424-0.425H25.86c0.235,0,0.425,0.19,0.425,0.425C26.285,16.161,26.095,16.351,25.86,16.351"/>
		<path clip-path="url(#SVGID_4_)" fill="#231F6E" d="M25.86,22.702H5.592c-0.234,0-0.424-0.189-0.424-0.425s0.19-0.425,0.424-0.425
			H25.86c0.235,0,0.425,0.189,0.425,0.425S26.095,22.702,25.86,22.702"/>
		<path clip-path="url(#SVGID_4_)" fill="#231F6E" d="M25.86,29.054H5.592c-0.234,0-0.424-0.189-0.424-0.425
			c0-0.234,0.19-0.425,0.424-0.425H25.86c0.235,0,0.425,0.19,0.425,0.425C26.285,28.864,26.095,29.054,25.86,29.054"/>
		<path clip-path="url(#SVGID_4_)" fill="#231F6E" d="M8.684,9.578c0,0.705-0.572,1.277-1.277,1.277
			c-0.705,0-1.277-0.572-1.277-1.277c0-0.705,0.572-1.277,1.277-1.277C8.112,8.301,8.684,8.873,8.684,9.578"/>
		<path clip-path="url(#SVGID_4_)" fill="#231F6E" d="M12.004,9.578c0,0.705-0.572,1.277-1.277,1.277
			c-0.705,0-1.277-0.572-1.277-1.277c0-0.705,0.572-1.277,1.277-1.277C11.432,8.301,12.004,8.873,12.004,9.578"/>
		<path clip-path="url(#SVGID_4_)" fill="#231F6E" d="M15.323,9.578c0,0.705-0.571,1.277-1.276,1.277
			c-0.706,0-1.277-0.572-1.277-1.277c0-0.705,0.571-1.277,1.277-1.277C14.752,8.301,15.323,8.873,15.323,9.578"/>
		<path clip-path="url(#SVGID_4_)" fill="#231F6E" d="M18.643,9.578c0,0.705-0.572,1.277-1.277,1.277
			c-0.705,0-1.277-0.572-1.277-1.277c0-0.705,0.572-1.277,1.277-1.277C18.071,8.301,18.643,8.873,18.643,9.578"/>
		<path clip-path="url(#SVGID_4_)" fill="#231F6E" d="M25.283,9.578c0,0.705-0.572,1.277-1.277,1.277
			c-0.705,0-1.277-0.572-1.277-1.277c0-0.705,0.572-1.277,1.277-1.277C24.71,8.301,25.283,8.873,25.283,9.578"/>
		<path clip-path="url(#SVGID_4_)" fill="#231F6E" d="M8.684,15.952c0,0.705-0.572,1.276-1.277,1.276
			c-0.705,0-1.277-0.571-1.277-1.276c0-0.706,0.572-1.277,1.277-1.277C8.112,14.675,8.684,15.246,8.684,15.952"/>
		<path clip-path="url(#SVGID_4_)" fill="#231F6E" d="M12.004,15.952c0,0.705-0.572,1.276-1.277,1.276
			c-0.705,0-1.277-0.571-1.277-1.276c0-0.706,0.572-1.277,1.277-1.277C11.432,14.675,12.004,15.246,12.004,15.952"/>
		<path clip-path="url(#SVGID_4_)" fill="#231F6E" d="M18.643,15.952c0,0.705-0.572,1.276-1.277,1.276
			c-0.705,0-1.277-0.571-1.277-1.276c0-0.706,0.572-1.277,1.277-1.277C18.071,14.675,18.643,15.246,18.643,15.952"/>
		<path clip-path="url(#SVGID_4_)" fill="#231F6E" d="M21.963,15.952c0,0.705-0.572,1.276-1.277,1.276
			c-0.705,0-1.277-0.571-1.277-1.276c0-0.706,0.572-1.277,1.277-1.277C21.391,14.675,21.963,15.246,21.963,15.952"/>
		<path clip-path="url(#SVGID_4_)" fill="#231F6E" d="M25.283,15.952c0,0.705-0.572,1.276-1.277,1.276
			c-0.705,0-1.277-0.571-1.277-1.276c0-0.706,0.572-1.277,1.277-1.277C24.71,14.675,25.283,15.246,25.283,15.952"/>
		<path clip-path="url(#SVGID_4_)" fill="#231F6E" d="M8.684,22.27c0,0.705-0.572,1.277-1.277,1.277
			c-0.705,0-1.277-0.572-1.277-1.277s0.572-1.275,1.277-1.275C8.112,20.994,8.684,21.564,8.684,22.27"/>
		<path clip-path="url(#SVGID_4_)" fill="#231F6E" d="M12.004,22.27c0,0.705-0.572,1.277-1.277,1.277
			c-0.705,0-1.277-0.572-1.277-1.277s0.572-1.275,1.277-1.275C11.432,20.994,12.004,21.564,12.004,22.27"/>
		<path clip-path="url(#SVGID_4_)" fill="#231F6E" d="M15.323,22.27c0,0.705-0.571,1.277-1.276,1.277
			c-0.706,0-1.277-0.572-1.277-1.277s0.571-1.275,1.277-1.275C14.752,20.994,15.323,21.564,15.323,22.27"/>
		<path clip-path="url(#SVGID_4_)" fill="#231F6E" d="M21.963,22.27c0,0.705-0.572,1.277-1.277,1.277
			c-0.705,0-1.277-0.572-1.277-1.277s0.572-1.275,1.277-1.275C21.391,20.994,21.963,21.564,21.963,22.27"/>
		<path clip-path="url(#SVGID_4_)" fill="#231F6E" d="M25.283,22.27c0,0.705-0.572,1.277-1.277,1.277
			c-0.705,0-1.277-0.572-1.277-1.277s0.572-1.275,1.277-1.275C24.71,20.994,25.283,21.564,25.283,22.27"/>
		<path clip-path="url(#SVGID_4_)" fill="#231F6E" d="M8.684,28.616c0,0.705-0.572,1.276-1.277,1.276
			c-0.705,0-1.277-0.571-1.277-1.276c0-0.706,0.572-1.276,1.277-1.276C8.112,27.34,8.684,27.91,8.684,28.616"/>
		<path clip-path="url(#SVGID_4_)" fill="#231F6E" d="M15.323,28.616c0,0.705-0.571,1.276-1.276,1.276
			c-0.706,0-1.277-0.571-1.277-1.276c0-0.706,0.571-1.276,1.277-1.276C14.752,27.34,15.323,27.91,15.323,28.616"/>
		<path clip-path="url(#SVGID_4_)" fill="#231F6E" d="M18.643,28.616c0,0.705-0.572,1.276-1.277,1.276
			c-0.705,0-1.277-0.571-1.277-1.276c0-0.706,0.572-1.276,1.277-1.276C18.071,27.34,18.643,27.91,18.643,28.616"/>
		<path clip-path="url(#SVGID_4_)" fill="#231F6E" d="M21.963,28.616c0,0.705-0.572,1.276-1.277,1.276
			c-0.705,0-1.277-0.571-1.277-1.276c0-0.706,0.572-1.276,1.277-1.276C21.391,27.34,21.963,27.91,21.963,28.616"/>
		<path clip-path="url(#SVGID_4_)" fill="#231F6E" d="M25.283,28.616c0,0.705-0.572,1.276-1.277,1.276
			c-0.705,0-1.277-0.571-1.277-1.276c0-0.706,0.572-1.276,1.277-1.276C24.71,27.34,25.283,27.91,25.283,28.616"/>
	</g>
</g>
</svg>
