<?xml version="1.0" encoding="utf-8"?>
<!-- Generator: Adobe Illustrator 16.0.0, SVG Export Plug-In . SVG Version: 6.00 Build 0)  -->
<!DOCTYPE svg PUBLIC "-//W3C//DTD SVG 1.1//EN" "http://www.w3.org/Graphics/SVG/1.1/DTD/svg11.dtd">
<svg version="1.1" id="Layer_1" xmlns="http://www.w3.org/2000/svg" xmlns:xlink="http://www.w3.org/1999/xlink" x="0px" y="0px"
	 width="1245.38px" height="47.126px" viewBox="0 0 1245.38 47.126" enable-background="new 0 0 1245.38 47.126"
	 xml:space="preserve">
<g>
	<path fill="#2E0248" d="M130.601,36.362h-21.529c-0.552,0-1-0.447-1-1s0.448-1,1-1h21.529c0.552,0,1,0.447,1,1
		S131.153,36.362,130.601,36.362z"/>
</g>
<g>
	<path fill="#2E0248" d="M119.837,25.064c-0.062,0-0.126-0.006-0.19-0.018L22.481,6.325c-0.542-0.104-0.897-0.629-0.793-1.171
		c0.105-0.542,0.631-0.893,1.171-0.793l97.166,18.721c0.542,0.104,0.897,0.629,0.793,1.171
		C120.726,24.732,120.307,25.064,119.837,25.064z"/>
</g>
<g>
	<path fill="#2E0248" d="M22.669,42.772c-0.47,0-0.889-0.332-0.981-0.811c-0.104-0.543,0.25-1.067,0.793-1.172l97.166-18.72
		c0.54-0.107,1.066,0.25,1.171,0.793c0.104,0.542-0.25,1.066-0.793,1.171L22.859,42.754C22.796,42.766,22.732,42.772,22.669,42.772z
		"/>
</g>
<g>
	<defs>
		<rect id="SVGID_1_" y="0" width="1245.383" height="47.126"/>
	</defs>
	<clipPath id="SVGID_2_">
		<use xlink:href="#SVGID_1_"  overflow="visible"/>
	</clipPath>
	<path clip-path="url(#SVGID_2_)" fill="#04FFCC" d="M38.357,11.836c6.456,9.457,4.022,22.356-5.435,28.812
		c-9.454,6.455-22.356,4.023-28.812-5.433c-6.457-9.458-4.021-22.358,5.434-28.813C19-0.053,31.9,2.378,38.357,11.836"/>
	<g clip-path="url(#SVGID_2_)">
		<path fill="#2E0248" d="M21.233,45.259c-0.552,0-1-0.447-1-1V3.793c0-0.552,0.448-1,1-1s1,0.448,1,1v40.466
			C22.233,44.812,21.785,45.259,21.233,45.259z"/>
	</g>
	<g clip-path="url(#SVGID_2_)">
		<path fill="#2E0248" d="M41.466,25.027H1c-0.552,0-1-0.448-1-1s0.448-1,1-1h40.466c0.552,0,1,0.448,1,1
			S42.019,25.027,41.466,25.027z"/>
	</g>
	<g clip-path="url(#SVGID_2_)">
		<path fill="#2E0248" d="M6.925,39.333c-0.256,0-0.512-0.098-0.707-0.293c-0.391-0.391-0.391-1.023,0-1.414L34.833,9.012
			c0.391-0.391,1.023-0.391,1.414,0s0.391,1.023,0,1.414L7.632,39.041C7.437,39.236,7.181,39.333,6.925,39.333z"/>
	</g>
	<g clip-path="url(#SVGID_2_)">
		<path fill="#2E0248" d="M35.539,39.333c-0.256,0-0.512-0.098-0.707-0.293L6.218,10.427c-0.391-0.391-0.391-1.023,0-1.414
			s1.023-0.391,1.414,0l28.614,28.614c0.391,0.391,0.391,1.023,0,1.414C36.051,39.236,35.795,39.333,35.539,39.333z"/>
	</g>
	<g clip-path="url(#SVGID_2_)">
		<path fill="#2E0248" d="M119.836,24.062c-0.552,0-1-0.448-1-1V1.534c0-0.552,0.448-1,1-1s1,0.448,1,1v21.529
			C120.836,23.615,120.389,24.062,119.836,24.062z"/>
	</g>
	<g clip-path="url(#SVGID_2_)">
		<path fill="#2E0248" d="M130.601,13.298h-21.529c-0.552,0-1-0.448-1-1s0.448-1,1-1h21.529c0.552,0,1,0.448,1,1
			S131.153,13.298,130.601,13.298z"/>
	</g>
	<g clip-path="url(#SVGID_2_)">
		<path fill="#2E0248" d="M112.224,20.911c-0.256,0-0.512-0.098-0.707-0.293c-0.391-0.391-0.391-1.023,0-1.414l15.224-15.224
			c0.391-0.391,1.023-0.391,1.414,0s0.391,1.023,0,1.414l-15.224,15.224C112.736,20.813,112.48,20.911,112.224,20.911z"/>
	</g>
	<g clip-path="url(#SVGID_2_)">
		<path fill="#2E0248" d="M127.448,20.911c-0.256,0-0.512-0.098-0.707-0.293L111.517,5.394c-0.391-0.391-0.391-1.023,0-1.414
			s1.023-0.391,1.414,0l15.224,15.224c0.391,0.391,0.391,1.023,0,1.414C127.96,20.813,127.704,20.911,127.448,20.911z"/>
	</g>
	<g clip-path="url(#SVGID_2_)">
		<path fill="#2E0248" d="M119.836,47.125c-0.552,0-1-0.447-1-1V24.597c0-0.552,0.448-1,1-1s1,0.448,1,1v21.528
			C120.836,46.678,120.389,47.125,119.836,47.125z"/>
	</g>
	<g clip-path="url(#SVGID_2_)">
		<path fill="#2E0248" d="M112.224,43.974c-0.256,0-0.512-0.098-0.707-0.293c-0.391-0.391-0.391-1.023,0-1.414l15.224-15.225
			c0.391-0.391,1.023-0.391,1.414,0s0.391,1.023,0,1.414l-15.224,15.225C112.736,43.876,112.48,43.974,112.224,43.974z"/>
	</g>
	<g clip-path="url(#SVGID_2_)">
		<path fill="#2E0248" d="M127.448,43.975c-0.256,0-0.512-0.098-0.707-0.293l-15.224-15.225c-0.391-0.391-0.391-1.023,0-1.414
			s1.023-0.391,1.414,0l15.224,15.225c0.391,0.391,0.391,1.023,0,1.414C127.96,43.877,127.704,43.975,127.448,43.975z"/>
	</g>
	<g clip-path="url(#SVGID_2_)">
		<path fill="#2E0248" d="M119.835,25.064c-0.47,0-0.889-0.332-0.981-0.811c-0.104-0.542,0.25-1.067,0.793-1.171l97.166-18.721
			c0.539-0.104,1.066,0.25,1.171,0.793c0.104,0.542-0.25,1.066-0.793,1.171l-97.166,18.721
			C119.962,25.058,119.898,25.064,119.835,25.064z"/>
	</g>
	<g clip-path="url(#SVGID_2_)">
		<path fill="#2E0248" d="M217.003,42.772c-0.062,0-0.126-0.006-0.19-0.018l-97.166-18.721c-0.542-0.104-0.897-0.629-0.793-1.171
			s0.634-0.896,1.171-0.793l97.166,18.72c0.542,0.104,0.897,0.629,0.793,1.172C217.892,42.44,217.473,42.772,217.003,42.772z"/>
	</g>
	<g clip-path="url(#SVGID_2_)">
		<path fill="#2E0248" d="M327.372,36.362h-21.529c-0.552,0-1-0.447-1-1s0.448-1,1-1h21.529c0.552,0,1,0.447,1,1
			S327.924,36.362,327.372,36.362z"/>
	</g>
	<g clip-path="url(#SVGID_2_)">
		<path fill="#2E0248" d="M316.608,25.064c-0.062,0-0.126-0.006-0.19-0.018L219.252,6.325c-0.542-0.104-0.897-0.629-0.793-1.171
			s0.63-0.893,1.171-0.793l97.166,18.721c0.542,0.104,0.897,0.629,0.793,1.171C317.497,24.732,317.078,25.064,316.608,25.064z"/>
	</g>
	<g clip-path="url(#SVGID_2_)">
		<path fill="#2E0248" d="M219.44,42.772c-0.47,0-0.889-0.332-0.981-0.811c-0.104-0.543,0.25-1.067,0.793-1.172l97.166-18.72
			c0.539-0.107,1.066,0.25,1.171,0.793c0.104,0.542-0.25,1.066-0.793,1.171L219.63,42.754
			C219.566,42.766,219.502,42.772,219.44,42.772z"/>
	</g>
	<g clip-path="url(#SVGID_2_)">
		<path fill="#2E0248" d="M413.773,42.772c-0.062,0-0.126-0.006-0.19-0.018l-97.166-18.721c-0.542-0.104-0.897-0.629-0.793-1.171
			s0.634-0.896,1.171-0.793l97.166,18.72c0.542,0.104,0.897,0.629,0.793,1.172C414.662,42.44,414.243,42.772,413.773,42.772z"/>
	</g>
	<g clip-path="url(#SVGID_2_)">
		<path fill="#2E0248" d="M316.605,25.064c-0.47,0-0.889-0.332-0.981-0.811c-0.104-0.542,0.25-1.067,0.793-1.171l97.166-18.721
			c0.539-0.104,1.066,0.25,1.171,0.793c0.104,0.542-0.25,1.066-0.793,1.171l-97.166,18.721
			C316.732,25.058,316.668,25.064,316.605,25.064z"/>
	</g>
	<g clip-path="url(#SVGID_2_)">
		<path fill="#2E0248" d="M316.617,24.063c-3.984,0-7.702-1.961-9.945-5.247c-1.812-2.654-2.482-5.855-1.887-9.014
			c0.596-3.158,2.385-5.895,5.039-7.706C311.833,0.725,314.175,0,316.598,0c3.984,0,7.702,1.962,9.945,5.249
			c1.812,2.654,2.482,5.854,1.886,9.012c-0.595,3.157-2.385,5.894-5.039,7.706C321.382,23.338,319.04,24.063,316.617,24.063z
			 M316.598,2c-2.019,0-3.971,0.604-5.646,1.748c-2.213,1.511-3.705,3.792-4.201,6.425c-0.497,2.633,0.062,5.302,1.573,7.515
			c1.87,2.74,4.971,4.375,8.293,4.375c2.02,0,3.972-0.604,5.646-1.747c2.213-1.511,3.705-3.793,4.201-6.426
			c0.497-2.632-0.062-5.301-1.572-7.513C323.021,3.636,319.92,2,316.598,2z"/>
	</g>
	<g clip-path="url(#SVGID_2_)">
		<path fill="#2E0248" d="M316.607,24.062c-0.552,0-1-0.448-1-1V1.534c0-0.552,0.448-1,1-1s1,0.448,1,1v21.529
			C317.607,23.615,317.159,24.062,316.607,24.062z"/>
	</g>
	<g clip-path="url(#SVGID_2_)">
		<path fill="#2E0248" d="M327.372,13.298h-21.529c-0.552,0-1-0.448-1-1s0.448-1,1-1h21.529c0.552,0,1,0.448,1,1
			S327.924,13.298,327.372,13.298z"/>
	</g>
	<g clip-path="url(#SVGID_2_)">
		<path fill="#2E0248" d="M308.995,20.911c-0.256,0-0.512-0.098-0.707-0.293c-0.391-0.391-0.391-1.023,0-1.414l15.224-15.224
			c0.391-0.391,1.023-0.391,1.414,0s0.391,1.023,0,1.414l-15.224,15.224C309.507,20.813,309.251,20.911,308.995,20.911z"/>
	</g>
	<g clip-path="url(#SVGID_2_)">
		<path fill="#2E0248" d="M324.219,20.911c-0.256,0-0.512-0.098-0.707-0.293L308.288,5.394c-0.391-0.391-0.391-1.023,0-1.414
			s1.023-0.391,1.414,0l15.224,15.224c0.391,0.391,0.391,1.023,0,1.414C324.73,20.813,324.475,20.911,324.219,20.911z"/>
	</g>
	<g clip-path="url(#SVGID_2_)">
		<path fill="#2E0248" d="M316.617,47.126c-3.985,0-7.703-1.962-9.946-5.248c-1.812-2.653-2.482-5.854-1.886-9.013
			s2.385-5.895,5.039-7.707c2.009-1.371,4.351-2.095,6.773-2.095c3.984,0,7.702,1.962,9.946,5.25
			c3.74,5.478,2.326,12.978-3.152,16.719C321.382,46.402,319.041,47.126,316.617,47.126z M316.597,25.063
			c-2.019,0-3.971,0.604-5.646,1.748c-2.212,1.511-3.705,3.792-4.201,6.426c-0.497,2.633,0.062,5.302,1.573,7.514
			c1.87,2.74,4.971,4.376,8.294,4.376c2.019,0,3.971-0.604,5.646-1.747c4.567-3.119,5.747-9.372,2.629-13.939
			C323.021,26.7,319.92,25.063,316.597,25.063z"/>
	</g>
	<g clip-path="url(#SVGID_2_)">
		<path fill="#2E0248" d="M316.607,47.125c-0.552,0-1-0.447-1-1V24.597c0-0.552,0.448-1,1-1s1,0.448,1,1v21.528
			C317.607,46.678,317.159,47.125,316.607,47.125z"/>
	</g>
	<g clip-path="url(#SVGID_2_)">
		<path fill="#2E0248" d="M308.995,43.974c-0.256,0-0.512-0.098-0.707-0.293c-0.391-0.391-0.391-1.023,0-1.414l15.224-15.225
			c0.391-0.391,1.023-0.391,1.414,0s0.391,1.023,0,1.414l-15.224,15.225C309.507,43.876,309.251,43.974,308.995,43.974z"/>
	</g>
	<g clip-path="url(#SVGID_2_)">
		<path fill="#2E0248" d="M324.219,43.975c-0.256,0-0.512-0.098-0.707-0.293l-15.224-15.225c-0.391-0.391-0.391-1.023,0-1.414
			s1.023-0.391,1.414,0l15.224,15.225c0.391,0.391,0.391,1.023,0,1.414C324.73,43.877,324.475,43.975,324.219,43.975z"/>
	</g>
	<path clip-path="url(#SVGID_2_)" fill="#FFFF00" d="M123.146,9.772c1.248,1.828,0.778,4.322-1.05,5.57
		c-1.828,1.247-4.323,0.778-5.571-1.05c-1.248-1.829-0.777-4.323,1.051-5.571C119.405,7.474,121.899,7.943,123.146,9.772"/>
	<path clip-path="url(#SVGID_2_)" fill="#FFFF00" d="M123.146,32.835c1.248,1.828,0.778,4.322-1.05,5.57
		c-1.828,1.247-4.323,0.778-5.571-1.05c-1.248-1.829-0.777-4.323,1.051-5.57C119.405,30.538,121.899,31.006,123.146,32.835"/>
	<path clip-path="url(#SVGID_2_)" fill="#FF0090" d="M319.917,9.772c1.248,1.828,0.777,4.322-1.051,5.57
		c-1.827,1.247-4.322,0.778-5.57-1.05c-1.248-1.829-0.777-4.323,1.051-5.571C316.176,7.474,318.668,7.943,319.917,9.772"/>
	<path clip-path="url(#SVGID_2_)" fill="#FF0090" d="M319.917,32.835c1.248,1.828,0.777,4.322-1.051,5.57
		c-1.827,1.247-4.322,0.778-5.57-1.05c-1.248-1.829-0.777-4.323,1.051-5.57C316.176,30.538,318.668,31.006,319.917,32.835"/>
	<path clip-path="url(#SVGID_2_)" fill="#04FFCC" d="M27.455,19.278c2.346,3.436,1.461,8.123-1.975,10.469
		c-3.435,2.346-8.123,1.463-10.469-1.974c-2.346-3.437-1.461-8.124,1.975-10.47C20.422,14.958,25.109,15.841,27.455,19.278"/>
	<path clip-path="url(#SVGID_2_)" fill="#FFFFFF" d="M27.138,18.02c1.684,2.467,1.049,5.832-1.418,7.516
		c-2.467,1.685-5.832,1.05-7.517-1.417c-1.684-2.467-1.048-5.832,1.418-7.516C22.089,14.919,25.454,15.553,27.138,18.02"/>
	<g clip-path="url(#SVGID_2_)">
		<path fill="#2E0248" d="M21.239,32.059c-2.826,0-5.463-1.392-7.054-3.723c-2.653-3.886-1.649-9.206,2.237-11.859
			c1.425-0.973,3.086-1.486,4.805-1.486c2.826,0,5.463,1.392,7.054,3.723c1.285,1.882,1.76,4.153,1.337,6.393
			c-0.422,2.239-1.692,4.181-3.574,5.466C24.62,31.545,22.958,32.059,21.239,32.059z M21.227,16.991
			c-1.315,0-2.586,0.394-3.677,1.138c-2.976,2.031-3.744,6.104-1.713,9.08c1.218,1.784,3.238,2.85,5.402,2.85
			c1.315,0,2.586-0.394,3.677-1.139c1.441-0.983,2.414-2.47,2.737-4.185c0.324-1.715-0.04-3.453-1.024-4.894
			C25.41,18.057,23.391,16.991,21.227,16.991z"/>
	</g>
	<path clip-path="url(#SVGID_2_)" fill="#04FFCC" d="M235.212,11.836c6.456,9.457,4.022,22.356-5.435,28.812
		c-9.454,6.455-22.356,4.023-28.812-5.433c-6.457-9.458-4.022-22.358,5.434-28.813S228.755,2.378,235.212,11.836"/>
	<g clip-path="url(#SVGID_2_)">
		<path fill="#2E0248" d="M218.088,45.259c-0.552,0-1-0.447-1-1V3.793c0-0.552,0.448-1,1-1s1,0.448,1,1v40.466
			C219.088,44.812,218.641,45.259,218.088,45.259z"/>
	</g>
	<g clip-path="url(#SVGID_2_)">
		<path fill="#2E0248" d="M238.321,25.027h-40.466c-0.552,0-1-0.448-1-1s0.448-1,1-1h40.466c0.552,0,1,0.448,1,1
			S238.874,25.027,238.321,25.027z"/>
	</g>
	<g clip-path="url(#SVGID_2_)">
		<path fill="#2E0248" d="M203.781,39.333c-0.256,0-0.512-0.098-0.707-0.293c-0.391-0.391-0.391-1.023,0-1.414l28.614-28.614
			c0.391-0.391,1.023-0.391,1.414,0s0.391,1.023,0,1.414l-28.614,28.614C204.293,39.236,204.037,39.333,203.781,39.333z"/>
	</g>
	<g clip-path="url(#SVGID_2_)">
		<path fill="#2E0248" d="M232.395,39.333c-0.256,0-0.512-0.098-0.707-0.293l-28.614-28.614c-0.391-0.391-0.391-1.023,0-1.414
			s1.023-0.391,1.414,0l28.614,28.614c0.391,0.391,0.391,1.023,0,1.414C232.906,39.236,232.65,39.333,232.395,39.333z"/>
	</g>
	<path clip-path="url(#SVGID_2_)" fill="#04FFCC" d="M224.311,19.278c2.346,3.436,1.461,8.123-1.975,10.469
		c-3.435,2.346-8.123,1.463-10.469-1.974c-2.346-3.437-1.461-8.124,1.974-10.47C217.277,14.958,221.964,15.841,224.311,19.278"/>
	<path clip-path="url(#SVGID_2_)" fill="#FFFFFF" d="M223.993,18.02c1.684,2.467,1.049,5.832-1.418,7.516
		c-2.467,1.685-5.832,1.05-7.517-1.417c-1.684-2.467-1.048-5.832,1.418-7.516C218.944,14.919,222.31,15.553,223.993,18.02"/>
	<g clip-path="url(#SVGID_2_)">
		<path fill="#2E0248" d="M218.095,32.059c-2.826,0-5.463-1.392-7.054-3.723c-2.653-3.886-1.649-9.206,2.236-11.859
			c1.425-0.973,3.086-1.486,4.805-1.486c2.826,0,5.463,1.392,7.055,3.723c1.285,1.882,1.76,4.153,1.337,6.393
			c-0.422,2.239-1.692,4.181-3.574,5.466C221.475,31.545,219.813,32.059,218.095,32.059z M218.082,16.991
			c-1.315,0-2.586,0.394-3.678,1.138c-2.975,2.031-3.743,6.104-1.711,9.08c1.218,1.784,3.238,2.85,5.402,2.85
			c1.315,0,2.586-0.394,3.677-1.139c1.441-0.983,2.414-2.47,2.737-4.185c0.324-1.715-0.04-3.453-1.023-4.894
			C222.266,18.057,220.246,16.991,218.082,16.991z"/>
	</g>
	<g clip-path="url(#SVGID_2_)">
		<path fill="#2E0248" d="M523.944,36.362h-21.529c-0.552,0-1-0.447-1-1s0.448-1,1-1h21.529c0.552,0,1,0.447,1,1
			S524.497,36.362,523.944,36.362z"/>
	</g>
	<g clip-path="url(#SVGID_2_)">
		<path fill="#2E0248" d="M513.18,25.064c-0.062,0-0.126-0.006-0.19-0.018L415.826,6.325c-0.542-0.104-0.897-0.629-0.793-1.171
			c0.105-0.542,0.631-0.893,1.171-0.793l97.165,18.721c0.542,0.104,0.897,0.629,0.793,1.171
			C514.069,24.732,513.65,25.064,513.18,25.064z"/>
	</g>
	<g clip-path="url(#SVGID_2_)">
		<path fill="#2E0248" d="M416.013,42.772c-0.47,0-0.889-0.332-0.981-0.811c-0.104-0.543,0.25-1.067,0.793-1.172l97.166-18.72
			c0.537-0.107,1.066,0.25,1.171,0.793c0.104,0.542-0.25,1.066-0.793,1.171l-97.166,18.721
			C416.139,42.766,416.075,42.772,416.013,42.772z"/>
	</g>
	<path clip-path="url(#SVGID_2_)" fill="#04FFCC" d="M431.7,11.836c6.456,9.457,4.022,22.356-5.435,28.812
		c-9.455,6.455-22.356,4.023-28.812-5.433c-6.457-9.458-4.022-22.358,5.433-28.813C412.343-0.053,425.243,2.378,431.7,11.836"/>
	<g clip-path="url(#SVGID_2_)">
		<path fill="#2E0248" d="M414.576,45.259c-0.552,0-1-0.447-1-1V3.793c0-0.552,0.448-1,1-1s1,0.448,1,1v40.466
			C415.576,44.812,415.128,45.259,414.576,45.259z"/>
	</g>
	<g clip-path="url(#SVGID_2_)">
		<path fill="#2E0248" d="M434.81,25.027h-40.466c-0.552,0-1-0.448-1-1s0.448-1,1-1h40.466c0.552,0,1,0.448,1,1
			S435.362,25.027,434.81,25.027z"/>
	</g>
	<g clip-path="url(#SVGID_2_)">
		<path fill="#2E0248" d="M400.269,39.333c-0.256,0-0.512-0.098-0.707-0.293c-0.391-0.391-0.391-1.023,0-1.414l28.614-28.614
			c0.391-0.391,1.023-0.391,1.414,0s0.391,1.023,0,1.414l-28.614,28.614C400.78,39.236,400.524,39.333,400.269,39.333z"/>
	</g>
	<g clip-path="url(#SVGID_2_)">
		<path fill="#2E0248" d="M428.883,39.333c-0.256,0-0.512-0.098-0.707-0.293l-28.614-28.614c-0.391-0.391-0.391-1.023,0-1.414
			s1.023-0.391,1.414,0l28.614,28.614c0.391,0.391,0.391,1.023,0,1.414C429.395,39.236,429.139,39.333,428.883,39.333z"/>
	</g>
	<g clip-path="url(#SVGID_2_)">
		<path fill="#2E0248" d="M513.18,24.062c-0.552,0-1-0.448-1-1V1.534c0-0.552,0.448-1,1-1s1,0.448,1,1v21.529
			C514.18,23.615,513.732,24.062,513.18,24.062z"/>
	</g>
	<g clip-path="url(#SVGID_2_)">
		<path fill="#2E0248" d="M523.944,13.298h-21.529c-0.552,0-1-0.448-1-1s0.448-1,1-1h21.529c0.552,0,1,0.448,1,1
			S524.497,13.298,523.944,13.298z"/>
	</g>
	<g clip-path="url(#SVGID_2_)">
		<path fill="#2E0248" d="M505.568,20.911c-0.256,0-0.512-0.098-0.707-0.293c-0.391-0.391-0.391-1.023,0-1.414l15.224-15.224
			c0.391-0.391,1.023-0.391,1.414,0s0.391,1.023,0,1.414l-15.224,15.224C506.08,20.813,505.824,20.911,505.568,20.911z"/>
	</g>
	<g clip-path="url(#SVGID_2_)">
		<path fill="#2E0248" d="M520.792,20.911c-0.256,0-0.512-0.098-0.707-0.293L504.86,5.394c-0.391-0.391-0.391-1.023,0-1.414
			s1.023-0.391,1.414,0l15.224,15.224c0.391,0.391,0.391,1.023,0,1.414C521.303,20.813,521.047,20.911,520.792,20.911z"/>
	</g>
	<g clip-path="url(#SVGID_2_)">
		<path fill="#2E0248" d="M513.18,47.125c-0.552,0-1-0.447-1-1V24.597c0-0.552,0.448-1,1-1s1,0.448,1,1v21.528
			C514.18,46.678,513.732,47.125,513.18,47.125z"/>
	</g>
	<g clip-path="url(#SVGID_2_)">
		<path fill="#2E0248" d="M505.568,43.974c-0.256,0-0.512-0.098-0.707-0.293c-0.391-0.391-0.391-1.023,0-1.414l15.224-15.225
			c0.391-0.391,1.023-0.391,1.414,0s0.391,1.023,0,1.414l-15.224,15.225C506.08,43.876,505.824,43.974,505.568,43.974z"/>
	</g>
	<g clip-path="url(#SVGID_2_)">
		<path fill="#2E0248" d="M520.792,43.975c-0.256,0-0.512-0.098-0.707-0.293L504.86,28.458c-0.391-0.391-0.391-1.023,0-1.414
			s1.023-0.391,1.414,0l15.224,15.225c0.391,0.391,0.391,1.023,0,1.414C521.303,43.877,521.047,43.975,520.792,43.975z"/>
	</g>
	<path clip-path="url(#SVGID_2_)" fill="#FFFF00" d="M516.49,9.772c1.248,1.828,0.777,4.322-1.051,5.57
		c-1.827,1.247-4.322,0.778-5.57-1.05c-1.248-1.829-0.777-4.323,1.051-5.571C512.749,7.474,515.241,7.943,516.49,9.772"/>
	<path clip-path="url(#SVGID_2_)" fill="#FFFF00" d="M516.49,32.835c1.248,1.828,0.777,4.322-1.051,5.57
		c-1.827,1.247-4.322,0.778-5.57-1.05c-1.248-1.829-0.777-4.323,1.051-5.57C512.749,30.538,515.241,31.006,516.49,32.835"/>
	<path clip-path="url(#SVGID_2_)" fill="#04FFCC" d="M420.799,19.278c2.346,3.436,1.461,8.123-1.975,10.469
		c-3.435,2.346-8.123,1.463-10.469-1.974c-2.346-3.437-1.461-8.124,1.974-10.47C413.765,14.958,418.453,15.841,420.799,19.278"/>
	<path clip-path="url(#SVGID_2_)" fill="#FFFFFF" d="M420.481,18.02c1.684,2.467,1.049,5.832-1.418,7.516
		c-2.467,1.685-5.832,1.05-7.517-1.417c-1.684-2.467-1.048-5.832,1.418-7.516C415.432,14.919,418.797,15.553,420.481,18.02"/>
	<g clip-path="url(#SVGID_2_)">
		<path fill="#2E0248" d="M414.583,32.059c-2.826,0-5.463-1.392-7.054-3.723c-2.653-3.886-1.649-9.206,2.236-11.859
			c1.425-0.973,3.086-1.486,4.805-1.486c2.826,0,5.464,1.392,7.055,3.723c1.285,1.882,1.76,4.153,1.337,6.393
			c-0.422,2.239-1.692,4.181-3.574,5.466C417.963,31.545,416.302,32.059,414.583,32.059z M414.569,16.991
			c-1.314,0-2.586,0.394-3.677,1.138c-2.975,2.031-3.743,6.104-1.712,9.08c1.218,1.784,3.238,2.85,5.402,2.85
			c1.315,0,2.586-0.394,3.677-1.139c1.441-0.983,2.414-2.47,2.737-4.185c0.324-1.715-0.04-3.453-1.023-4.894
			C418.754,18.057,416.734,16.991,414.569,16.991z"/>
	</g>
	<g clip-path="url(#SVGID_2_)">
		<path fill="#2E0248" d="M743.318,36.362H721.79c-0.553,0-1-0.447-1-1s0.447-1,1-1h21.528c0.553,0,1,0.447,1,1
			S743.871,36.362,743.318,36.362z"/>
	</g>
	<g clip-path="url(#SVGID_2_)">
		<path fill="#2E0248" d="M732.555,24.062c-0.553,0-1-0.448-1-1V1.534c0-0.552,0.447-1,1-1s1,0.448,1,1v21.529
			C733.555,23.615,733.107,24.062,732.555,24.062z"/>
	</g>
	<g clip-path="url(#SVGID_2_)">
		<path fill="#2E0248" d="M743.318,13.298H721.79c-0.553,0-1-0.448-1-1s0.447-1,1-1h21.528c0.553,0,1,0.448,1,1
			S743.871,13.298,743.318,13.298z"/>
	</g>
	<g clip-path="url(#SVGID_2_)">
		<path fill="#2E0248" d="M724.943,20.911c-0.256,0-0.512-0.098-0.707-0.293c-0.391-0.391-0.391-1.023,0-1.414L739.46,3.979
			c0.391-0.391,1.023-0.391,1.414,0s0.391,1.023,0,1.414L725.65,20.618C725.455,20.813,725.199,20.911,724.943,20.911z"/>
	</g>
	<g clip-path="url(#SVGID_2_)">
		<path fill="#2E0248" d="M740.166,20.911c-0.256,0-0.512-0.098-0.707-0.293L724.235,5.394c-0.391-0.391-0.391-1.023,0-1.414
			s1.023-0.391,1.414,0l15.224,15.224c0.391,0.391,0.391,1.023,0,1.414C740.678,20.813,740.422,20.911,740.166,20.911z"/>
	</g>
	<g clip-path="url(#SVGID_2_)">
		<path fill="#2E0248" d="M732.555,47.125c-0.553,0-1-0.447-1-1V24.597c0-0.552,0.447-1,1-1s1,0.448,1,1v21.528
			C733.555,46.678,733.107,47.125,732.555,47.125z"/>
	</g>
	<g clip-path="url(#SVGID_2_)">
		<path fill="#2E0248" d="M724.943,43.974c-0.256,0-0.512-0.098-0.707-0.293c-0.391-0.391-0.391-1.023,0-1.414l15.224-15.225
			c0.391-0.391,1.023-0.391,1.414,0s0.391,1.023,0,1.414L725.65,43.681C725.455,43.876,725.199,43.974,724.943,43.974z"/>
	</g>
	<g clip-path="url(#SVGID_2_)">
		<path fill="#2E0248" d="M740.166,43.975c-0.256,0-0.512-0.098-0.707-0.293l-15.224-15.225c-0.391-0.391-0.391-1.023,0-1.414
			s1.023-0.391,1.414,0l15.224,15.225c0.391,0.391,0.391,1.023,0,1.414C740.678,43.877,740.422,43.975,740.166,43.975z"/>
	</g>
	<g clip-path="url(#SVGID_2_)">
		<path fill="#2E0248" d="M732.554,25.064c-0.47,0-0.889-0.332-0.981-0.811c-0.104-0.542,0.251-1.067,0.793-1.171l97.166-18.721
			c0.547-0.104,1.066,0.25,1.172,0.793c0.104,0.542-0.251,1.066-0.793,1.171l-97.166,18.721
			C732.68,25.058,732.616,25.064,732.554,25.064z"/>
	</g>
	<g clip-path="url(#SVGID_2_)">
		<path fill="#2E0248" d="M829.722,42.772c-0.062,0-0.126-0.006-0.19-0.018l-97.166-18.721c-0.542-0.104-0.896-0.629-0.793-1.171
			c0.105-0.542,0.625-0.896,1.172-0.793l97.166,18.72c0.542,0.104,0.896,0.629,0.793,1.172
			C830.61,42.44,830.191,42.772,829.722,42.772z"/>
	</g>
	<g clip-path="url(#SVGID_2_)">
		<path fill="#2E0248" d="M940.09,36.362h-21.528c-0.553,0-1-0.447-1-1s0.447-1,1-1h21.528c0.553,0,1,0.447,1,1
			S940.643,36.362,940.09,36.362z"/>
	</g>
	<g clip-path="url(#SVGID_2_)">
		<path fill="#2E0248" d="M929.327,25.064c-0.062,0-0.126-0.006-0.19-0.018L831.971,6.325c-0.542-0.104-0.896-0.629-0.793-1.171
			c0.105-0.542,0.625-0.893,1.172-0.793l97.166,18.721c0.542,0.104,0.896,0.629,0.793,1.171
			C930.216,24.732,929.797,25.064,929.327,25.064z"/>
	</g>
	<g clip-path="url(#SVGID_2_)">
		<path fill="#2E0248" d="M832.159,42.772c-0.47,0-0.889-0.332-0.981-0.811c-0.104-0.543,0.251-1.067,0.793-1.172l97.166-18.72
			c0.546-0.107,1.066,0.25,1.172,0.793c0.104,0.542-0.251,1.066-0.793,1.171L832.35,42.754
			C832.285,42.766,832.222,42.772,832.159,42.772z"/>
	</g>
	<g clip-path="url(#SVGID_2_)">
		<path fill="#2E0248" d="M1026.492,42.772c-0.062,0-0.126-0.006-0.19-0.018l-97.166-18.721c-0.542-0.104-0.896-0.629-0.793-1.171
			c0.105-0.542,0.625-0.896,1.172-0.793l97.166,18.72c0.542,0.104,0.896,0.629,0.793,1.172
			C1027.381,42.44,1026.962,42.772,1026.492,42.772z"/>
	</g>
	<g clip-path="url(#SVGID_2_)">
		<path fill="#2E0248" d="M929.324,25.064c-0.47,0-0.889-0.332-0.981-0.811c-0.104-0.542,0.251-1.067,0.793-1.171l97.166-18.721
			c0.546-0.104,1.066,0.25,1.172,0.793c0.104,0.542-0.251,1.066-0.793,1.171l-97.166,18.721
			C929.45,25.058,929.387,25.064,929.324,25.064z"/>
	</g>
	<g clip-path="url(#SVGID_2_)">
		<path fill="#2E0248" d="M929.335,24.063c-3.984,0-7.702-1.961-9.946-5.247c-3.739-5.479-2.324-12.98,3.154-16.72
			C924.551,0.725,926.893,0,929.315,0c3.984,0,7.702,1.962,9.947,5.249c1.812,2.654,2.481,5.854,1.885,9.012
			c-0.596,3.158-2.386,5.895-5.04,7.706C934.1,23.338,931.758,24.063,929.335,24.063z M929.315,2c-2.019,0-3.971,0.604-5.646,1.748
			c-4.567,3.119-5.747,9.372-2.629,13.94c1.87,2.74,4.971,4.375,8.294,4.375c2.019,0,3.971-0.604,5.646-1.747
			c2.213-1.511,3.705-3.793,4.202-6.426c0.497-2.632-0.062-5.301-1.572-7.513C935.739,3.636,932.638,2,929.315,2z"/>
	</g>
	<g clip-path="url(#SVGID_2_)">
		<path fill="#2E0248" d="M929.326,24.062c-0.553,0-1-0.448-1-1V1.534c0-0.552,0.447-1,1-1s1,0.448,1,1v21.529
			C930.326,23.615,929.879,24.062,929.326,24.062z"/>
	</g>
	<g clip-path="url(#SVGID_2_)">
		<path fill="#2E0248" d="M940.09,13.298h-21.528c-0.553,0-1-0.448-1-1s0.447-1,1-1h21.528c0.553,0,1,0.448,1,1
			S940.643,13.298,940.09,13.298z"/>
	</g>
	<g clip-path="url(#SVGID_2_)">
		<path fill="#2E0248" d="M921.714,20.911c-0.256,0-0.512-0.098-0.707-0.293c-0.391-0.391-0.391-1.023,0-1.414L936.23,3.979
			c0.391-0.391,1.023-0.391,1.414,0s0.391,1.023,0,1.414l-15.224,15.224C922.226,20.813,921.97,20.911,921.714,20.911z"/>
	</g>
	<g clip-path="url(#SVGID_2_)">
		<path fill="#2E0248" d="M936.937,20.911c-0.256,0-0.512-0.098-0.707-0.293L921.007,5.394c-0.391-0.391-0.391-1.023,0-1.414
			s1.023-0.391,1.414,0l15.223,15.224c0.391,0.391,0.391,1.023,0,1.414C937.448,20.813,937.192,20.911,936.937,20.911z"/>
	</g>
	<g clip-path="url(#SVGID_2_)">
		<path fill="#2E0248" d="M929.335,47.126c-3.984,0-7.702-1.962-9.946-5.248c-3.739-5.479-2.325-12.979,3.154-16.72
			c2.008-1.371,4.35-2.095,6.772-2.095c3.983,0,7.702,1.962,9.947,5.25c3.739,5.478,2.324,12.978-3.155,16.719
			C934.1,46.402,931.758,47.126,929.335,47.126z M929.315,25.063c-2.02,0-3.971,0.604-5.646,1.748
			c-4.567,3.119-5.747,9.372-2.629,13.94c1.87,2.739,4.972,4.375,8.294,4.375c2.019,0,3.971-0.604,5.646-1.747
			c4.568-3.118,5.748-9.372,2.63-13.939C935.739,26.7,932.638,25.063,929.315,25.063z"/>
	</g>
	<g clip-path="url(#SVGID_2_)">
		<path fill="#2E0248" d="M929.326,47.125c-0.553,0-1-0.447-1-1V24.597c0-0.552,0.447-1,1-1s1,0.448,1,1v21.528
			C930.326,46.678,929.879,47.125,929.326,47.125z"/>
	</g>
	<g clip-path="url(#SVGID_2_)">
		<path fill="#2E0248" d="M921.714,43.974c-0.256,0-0.512-0.098-0.707-0.293c-0.391-0.391-0.391-1.023,0-1.414l15.224-15.225
			c0.391-0.391,1.023-0.391,1.414,0s0.391,1.023,0,1.414l-15.224,15.225C922.226,43.876,921.97,43.974,921.714,43.974z"/>
	</g>
	<g clip-path="url(#SVGID_2_)">
		<path fill="#2E0248" d="M936.937,43.975c-0.256,0-0.512-0.098-0.707-0.293l-15.223-15.225c-0.391-0.391-0.391-1.023,0-1.414
			s1.023-0.391,1.414,0l15.223,15.225c0.391,0.391,0.391,1.023,0,1.414C937.448,43.877,937.192,43.975,936.937,43.975z"/>
	</g>
	<path clip-path="url(#SVGID_2_)" fill="#FFFF00" d="M735.865,9.772c1.248,1.828,0.776,4.322-1.052,5.57
		c-1.826,1.247-4.32,0.778-5.568-1.05c-1.249-1.829-0.777-4.323,1.05-5.571C732.123,7.474,734.617,7.943,735.865,9.772"/>
	<path clip-path="url(#SVGID_2_)" fill="#FFFF00" d="M735.865,32.835c1.248,1.828,0.776,4.322-1.052,5.57
		c-1.826,1.247-4.32,0.778-5.568-1.05c-1.249-1.829-0.777-4.323,1.05-5.57C732.123,30.538,734.617,31.006,735.865,32.835"/>
	<path clip-path="url(#SVGID_2_)" fill="#FF0090" d="M932.636,9.772c1.248,1.828,0.777,4.322-1.051,5.57
		c-1.827,1.247-4.321,0.778-5.569-1.05c-1.248-1.829-0.777-4.323,1.05-5.571C928.894,7.474,931.388,7.943,932.636,9.772"/>
	<path clip-path="url(#SVGID_2_)" fill="#FF0090" d="M932.636,32.835c1.248,1.828,0.777,4.322-1.051,5.57
		c-1.827,1.247-4.321,0.778-5.569-1.05c-1.248-1.829-0.777-4.323,1.05-5.57C928.894,30.538,931.388,31.006,932.636,32.835"/>
	<path clip-path="url(#SVGID_2_)" fill="#04FFCC" d="M847.931,11.836c6.456,9.457,4.021,22.356-5.436,28.812
		c-9.455,6.455-22.355,4.023-28.812-5.433c-6.457-9.458-4.022-22.358,5.434-28.813S841.474,2.378,847.931,11.836"/>
	<g clip-path="url(#SVGID_2_)">
		<path fill="#2E0248" d="M830.807,45.259c-0.553,0-1-0.447-1-1V3.793c0-0.552,0.447-1,1-1s1,0.448,1,1v40.466
			C831.807,44.812,831.359,45.259,830.807,45.259z"/>
	</g>
	<g clip-path="url(#SVGID_2_)">
		<path fill="#2E0248" d="M851.04,25.027h-40.466c-0.553,0-1-0.448-1-1s0.447-1,1-1h40.466c0.553,0,1,0.448,1,1
			S851.593,25.027,851.04,25.027z"/>
	</g>
	<g clip-path="url(#SVGID_2_)">
		<path fill="#2E0248" d="M816.499,39.333c-0.256,0-0.512-0.098-0.707-0.293c-0.391-0.391-0.391-1.023,0-1.414l28.613-28.614
			c0.391-0.391,1.023-0.391,1.414,0s0.391,1.023,0,1.414l-28.613,28.614C817.011,39.236,816.755,39.333,816.499,39.333z"/>
	</g>
	<g clip-path="url(#SVGID_2_)">
		<path fill="#2E0248" d="M845.111,39.333c-0.256,0-0.512-0.098-0.707-0.293l-28.612-28.614c-0.391-0.391-0.391-1.023,0-1.414
			s1.023-0.391,1.414,0l28.612,28.614c0.391,0.391,0.391,1.023,0,1.414C845.623,39.236,845.367,39.333,845.111,39.333z"/>
	</g>
	<path clip-path="url(#SVGID_2_)" fill="#04FFCC" d="M837.029,19.278c2.346,3.436,1.461,8.123-1.976,10.469
		c-3.435,2.346-8.124,1.463-10.469-1.974c-2.346-3.437-1.461-8.124,1.974-10.47C829.995,14.958,834.682,15.841,837.029,19.278"/>
	<path clip-path="url(#SVGID_2_)" fill="#FFFFFF" d="M836.712,18.02c1.684,2.467,1.049,5.832-1.418,7.516
		c-2.468,1.685-5.833,1.05-7.518-1.417c-1.684-2.467-1.048-5.832,1.418-7.516C831.661,14.919,835.026,15.553,836.712,18.02"/>
	<g clip-path="url(#SVGID_2_)">
		<path fill="#2E0248" d="M830.812,32.059c-2.826,0-5.463-1.392-7.054-3.723c-2.652-3.886-1.649-9.206,2.235-11.859
			c1.426-0.973,3.087-1.486,4.806-1.486c2.825,0,5.463,1.392,7.056,3.723c1.285,1.883,1.76,4.153,1.337,6.393
			c-0.423,2.239-1.692,4.181-3.575,5.466C834.193,31.545,832.532,32.059,830.812,32.059z M830.8,16.991
			c-1.315,0-2.587,0.394-3.678,1.138c-2.975,2.031-3.742,6.104-1.711,9.08c1.218,1.784,3.236,2.85,5.401,2.85
			c1.315,0,2.587-0.394,3.677-1.139c1.442-0.983,2.414-2.47,2.738-4.185c0.323-1.715-0.04-3.453-1.024-4.894
			C834.984,18.057,832.964,16.991,830.8,16.991z"/>
	</g>
	<g clip-path="url(#SVGID_2_)">
		<path fill="#2E0248" d="M1136.662,36.362h-21.528c-0.553,0-1-0.447-1-1s0.447-1,1-1h21.528c0.553,0,1,0.447,1,1
			S1137.215,36.362,1136.662,36.362z"/>
	</g>
	<g clip-path="url(#SVGID_2_)">
		<path fill="#2E0248" d="M1125.899,25.064c-0.062,0-0.126-0.006-0.19-0.018l-97.166-18.721c-0.542-0.104-0.896-0.629-0.793-1.171
			c0.105-0.542,0.623-0.893,1.172-0.793l97.166,18.721c0.542,0.104,0.896,0.629,0.793,1.171
			C1126.788,24.732,1126.369,25.064,1125.899,25.064z"/>
	</g>
	<g clip-path="url(#SVGID_2_)">
		<path fill="#2E0248" d="M1028.731,42.772c-0.47,0-0.889-0.332-0.981-0.811c-0.104-0.543,0.251-1.067,0.793-1.172l97.166-18.72
			c0.549-0.107,1.066,0.25,1.172,0.793c0.104,0.542-0.251,1.066-0.793,1.171l-97.166,18.721
			C1028.857,42.766,1028.794,42.772,1028.731,42.772z"/>
	</g>
	<path clip-path="url(#SVGID_2_)" fill="#04FFCC" d="M1044.419,11.836c6.455,9.457,4.021,22.356-5.436,28.812
		c-9.455,6.455-22.355,4.023-28.812-5.433c-6.457-9.458-4.022-22.358,5.433-28.813C1025.062-0.053,1037.962,2.378,1044.419,11.836"
		/>
	<g clip-path="url(#SVGID_2_)">
		<path fill="#2E0248" d="M1027.295,45.259c-0.553,0-1-0.447-1-1V3.793c0-0.552,0.447-1,1-1s1,0.448,1,1v40.466
			C1028.295,44.812,1027.848,45.259,1027.295,45.259z"/>
	</g>
	<g clip-path="url(#SVGID_2_)">
		<path fill="#2E0248" d="M1047.528,25.027h-40.467c-0.553,0-1-0.448-1-1s0.447-1,1-1h40.467c0.553,0,1,0.448,1,1
			S1048.081,25.027,1047.528,25.027z"/>
	</g>
	<g clip-path="url(#SVGID_2_)">
		<path fill="#2E0248" d="M1012.987,39.333c-0.256,0-0.512-0.098-0.707-0.293c-0.391-0.391-0.391-1.023,0-1.414l28.613-28.614
			c0.391-0.391,1.023-0.391,1.414,0s0.391,1.023,0,1.414l-28.613,28.614C1013.499,39.236,1013.243,39.333,1012.987,39.333z"/>
	</g>
	<g clip-path="url(#SVGID_2_)">
		<path fill="#2E0248" d="M1041.6,39.333c-0.256,0-0.512-0.098-0.707-0.293l-28.612-28.614c-0.391-0.391-0.391-1.023,0-1.414
			s1.023-0.391,1.414,0l28.612,28.614c0.391,0.391,0.391,1.023,0,1.414C1042.111,39.236,1041.855,39.333,1041.6,39.333z"/>
	</g>
	<g clip-path="url(#SVGID_2_)">
		<path fill="#2E0248" d="M1125.898,24.062c-0.553,0-1-0.448-1-1V1.534c0-0.552,0.447-1,1-1s1,0.448,1,1v21.529
			C1126.898,23.615,1126.451,24.062,1125.898,24.062z"/>
	</g>
	<g clip-path="url(#SVGID_2_)">
		<path fill="#2E0248" d="M1136.662,13.298h-21.528c-0.553,0-1-0.448-1-1s0.447-1,1-1h21.528c0.553,0,1,0.448,1,1
			S1137.215,13.298,1136.662,13.298z"/>
	</g>
	<g clip-path="url(#SVGID_2_)">
		<path fill="#2E0248" d="M1118.286,20.911c-0.256,0-0.512-0.098-0.707-0.293c-0.391-0.391-0.391-1.023,0-1.414l15.224-15.224
			c0.391-0.391,1.023-0.391,1.414,0s0.391,1.023,0,1.414l-15.224,15.224C1118.798,20.813,1118.542,20.911,1118.286,20.911z"/>
	</g>
	<g clip-path="url(#SVGID_2_)">
		<path fill="#2E0248" d="M1133.51,20.911c-0.256,0-0.512-0.098-0.707-0.293l-15.224-15.224c-0.391-0.391-0.391-1.023,0-1.414
			s1.023-0.391,1.414,0l15.224,15.224c0.391,0.391,0.391,1.023,0,1.414C1134.021,20.813,1133.766,20.911,1133.51,20.911z"/>
	</g>
	<g clip-path="url(#SVGID_2_)">
		<path fill="#2E0248" d="M1125.898,47.125c-0.553,0-1-0.447-1-1V24.597c0-0.552,0.447-1,1-1s1,0.448,1,1v21.528
			C1126.898,46.678,1126.451,47.125,1125.898,47.125z"/>
	</g>
	<g clip-path="url(#SVGID_2_)">
		<path fill="#2E0248" d="M1118.286,43.974c-0.256,0-0.512-0.098-0.707-0.293c-0.391-0.391-0.391-1.023,0-1.414l15.224-15.225
			c0.391-0.391,1.023-0.391,1.414,0s0.391,1.023,0,1.414l-15.224,15.225C1118.798,43.876,1118.542,43.974,1118.286,43.974z"/>
	</g>
	<g clip-path="url(#SVGID_2_)">
		<path fill="#2E0248" d="M1133.51,43.975c-0.256,0-0.512-0.098-0.707-0.293l-15.224-15.225c-0.391-0.391-0.391-1.023,0-1.414
			s1.023-0.391,1.414,0l15.224,15.225c0.391,0.391,0.391,1.023,0,1.414C1134.021,43.877,1133.766,43.975,1133.51,43.975z"/>
	</g>
	<g clip-path="url(#SVGID_2_)">
		<path fill="#2E0248" d="M1125.897,25.064c-0.47,0-0.889-0.332-0.981-0.811c-0.104-0.542,0.251-1.067,0.793-1.171l97.166-18.721
			c0.547-0.104,1.066,0.25,1.172,0.793c0.104,0.542-0.251,1.066-0.793,1.171l-97.166,18.721
			C1126.023,25.058,1125.96,25.064,1125.897,25.064z"/>
	</g>
	<g clip-path="url(#SVGID_2_)">
		<path fill="#2E0248" d="M1223.065,42.772c-0.062,0-0.126-0.006-0.19-0.018l-97.166-18.721c-0.542-0.104-0.896-0.629-0.793-1.171
			c0.105-0.542,0.626-0.896,1.172-0.793l97.166,18.72c0.542,0.104,0.896,0.629,0.793,1.172
			C1223.954,42.44,1223.535,42.772,1223.065,42.772z"/>
	</g>
	<path clip-path="url(#SVGID_2_)" fill="#FFFF00" d="M1129.209,9.772c1.248,1.828,0.776,4.322-1.051,5.57
		c-1.828,1.247-4.322,0.778-5.57-1.05c-1.248-1.829-0.777-4.323,1.051-5.571C1125.467,7.474,1127.961,7.943,1129.209,9.772"/>
	<path clip-path="url(#SVGID_2_)" fill="#FFFF00" d="M1129.209,32.835c1.248,1.828,0.776,4.322-1.051,5.57
		c-1.828,1.247-4.322,0.778-5.57-1.05c-1.248-1.829-0.777-4.323,1.051-5.57C1125.467,30.538,1127.961,31.006,1129.209,32.835"/>
	<path clip-path="url(#SVGID_2_)" fill="#04FFCC" d="M1033.517,19.278c2.346,3.436,1.462,8.123-1.976,10.469
		c-3.435,2.346-8.123,1.463-10.468-1.974c-2.347-3.437-1.461-8.124,1.973-10.47C1026.483,14.958,1031.17,15.841,1033.517,19.278"/>
	<path clip-path="url(#SVGID_2_)" fill="#FFFFFF" d="M1033.2,18.02c1.684,2.467,1.049,5.832-1.418,7.516
		c-2.468,1.685-5.833,1.05-7.518-1.417c-1.684-2.467-1.048-5.832,1.418-7.516C1028.15,14.919,1031.515,15.553,1033.2,18.02"/>
	<g clip-path="url(#SVGID_2_)">
		<path fill="#2E0248" d="M1027.301,32.059c-2.826,0-5.463-1.392-7.054-3.723c-2.652-3.885-1.65-9.205,2.234-11.859
			c1.426-0.973,3.087-1.486,4.806-1.486c2.826,0,5.464,1.392,7.056,3.723c1.285,1.883,1.76,4.153,1.337,6.393
			c-0.422,2.239-1.692,4.181-3.575,5.466C1030.681,31.545,1029.02,32.059,1027.301,32.059z M1027.287,16.991
			c-1.314,0-2.586,0.394-3.678,1.138c-2.974,2.032-3.741,6.105-1.71,9.08c1.218,1.784,3.236,2.85,5.401,2.85
			c1.314,0,2.586-0.394,3.676-1.139c1.442-0.983,2.415-2.47,2.738-4.185s-0.04-3.453-1.024-4.894
			C1031.472,18.057,1029.452,16.991,1027.287,16.991z"/>
	</g>
	<path clip-path="url(#SVGID_2_)" fill="#04FFCC" d="M1241.274,11.836c6.455,9.457,4.021,22.356-5.436,28.812
		c-9.455,6.455-22.355,4.023-28.812-5.433c-6.457-9.458-4.022-22.358,5.434-28.813S1234.817,2.378,1241.274,11.836"/>
	<g clip-path="url(#SVGID_2_)">
		<path fill="#2E0248" d="M1224.15,45.259c-0.553,0-1-0.447-1-1V3.793c0-0.552,0.447-1,1-1s1,0.448,1,1v40.466
			C1225.15,44.812,1224.703,45.259,1224.15,45.259z"/>
	</g>
	<g clip-path="url(#SVGID_2_)">
		<path fill="#2E0248" d="M1244.384,25.027h-40.467c-0.553,0-1-0.448-1-1s0.447-1,1-1h40.467c0.553,0,1,0.448,1,1
			S1244.937,25.027,1244.384,25.027z"/>
	</g>
	<g clip-path="url(#SVGID_2_)">
		<path fill="#2E0248" d="M1209.843,39.333c-0.256,0-0.512-0.098-0.707-0.293c-0.391-0.391-0.391-1.023,0-1.414l28.613-28.614
			c0.391-0.391,1.023-0.391,1.414,0s0.391,1.023,0,1.414l-28.613,28.614C1210.354,39.236,1210.099,39.333,1209.843,39.333z"/>
	</g>
	<g clip-path="url(#SVGID_2_)">
		<path fill="#2E0248" d="M1238.455,39.333c-0.256,0-0.512-0.098-0.707-0.293l-28.612-28.614c-0.391-0.391-0.391-1.023,0-1.414
			s1.023-0.391,1.414,0l28.612,28.614c0.391,0.391,0.391,1.023,0,1.414C1238.967,39.236,1238.711,39.333,1238.455,39.333z"/>
	</g>
	<path clip-path="url(#SVGID_2_)" fill="#04FFCC" d="M1230.372,19.278c2.346,3.436,1.462,8.123-1.976,10.469
		c-3.435,2.346-8.123,1.463-10.468-1.974c-2.347-3.437-1.461-8.124,1.973-10.47C1223.339,14.958,1228.025,15.841,1230.372,19.278"/>
	<path clip-path="url(#SVGID_2_)" fill="#FFFFFF" d="M1230.056,18.02c1.684,2.467,1.049,5.832-1.418,7.516
		c-2.468,1.685-5.833,1.05-7.518-1.417c-1.684-2.467-1.048-5.832,1.418-7.516C1225.006,14.919,1228.37,15.553,1230.056,18.02"/>
	<g clip-path="url(#SVGID_2_)">
		<path fill="#2E0248" d="M1224.156,32.059c-2.826,0-5.463-1.392-7.054-3.723c-2.652-3.885-1.65-9.205,2.234-11.859
			c1.426-0.973,3.087-1.486,4.806-1.486c2.826,0,5.464,1.392,7.056,3.723c1.285,1.883,1.76,4.153,1.337,6.393
			c-0.422,2.239-1.692,4.181-3.575,5.466C1227.536,31.545,1225.875,32.059,1224.156,32.059z M1224.143,16.991
			c-1.314,0-2.586,0.394-3.678,1.138c-2.974,2.032-3.741,6.105-1.71,9.08c1.218,1.784,3.236,2.85,5.401,2.85
			c1.314,0,2.586-0.394,3.676-1.139c1.442-0.983,2.415-2.47,2.738-4.185s-0.04-3.453-1.024-4.894
			C1228.327,18.057,1226.308,16.991,1224.143,16.991z"/>
	</g>
</g>
</svg>
