<?xml version="1.0" encoding="utf-8"?>
<!-- Generator: Adobe Illustrator 16.0.0, SVG Export Plug-In . SVG Version: 6.00 Build 0)  -->
<!DOCTYPE svg PUBLIC "-//W3C//DTD SVG 1.1//EN" "http://www.w3.org/Graphics/SVG/1.1/DTD/svg11.dtd">
<svg version="1.1" id="Layer_1" xmlns="http://www.w3.org/2000/svg" xmlns:xlink="http://www.w3.org/1999/xlink" x="0px" y="0px"
	 width="24.155px" height="18.974px" viewBox="0 0 24.155 18.974" enable-background="new 0 0 24.155 18.974" xml:space="preserve">
<g>
	<defs>
		<rect id="SVGID_1_" width="24.156" height="18.974"/>
	</defs>
	<clipPath id="SVGID_2_">
		<use xlink:href="#SVGID_1_"  overflow="visible"/>
	</clipPath>
	<g clip-path="url(#SVGID_2_)">
		<path fill="#231F20" d="M23.53,18.974H0.625C0.28,18.974,0,18.694,0,18.349V0.625C0,0.279,0.28,0,0.625,0H23.53
			c0.345,0,0.625,0.28,0.625,0.625v17.725C24.155,18.694,23.875,18.974,23.53,18.974z M1.25,17.724h21.655V1.25H1.25V17.724z"/>
	</g>
</g>
<g>
	<path fill="#231F20" d="M7.684,8.696H4.246c-0.345,0-0.625-0.28-0.625-0.625V4.42c0-0.345,0.28-0.625,0.625-0.625h3.438
		c0.345,0,0.625,0.28,0.625,0.625v3.651C8.309,8.417,8.029,8.696,7.684,8.696z M4.871,7.446h2.188V5.045H4.871V7.446z"/>
</g>
<g>
	<path fill="#231F20" d="M13.93,8.696h-3.438c-0.345,0-0.625-0.28-0.625-0.625V4.42c0-0.345,0.28-0.625,0.625-0.625h3.438
		c0.345,0,0.625,0.28,0.625,0.625v3.651C14.555,8.417,14.274,8.696,13.93,8.696z M11.117,7.446h2.188V5.045h-2.188V7.446z"/>
</g>
<g>
	<path fill="#231F20" d="M20.176,8.696h-3.438c-0.345,0-0.625-0.28-0.625-0.625V4.42c0-0.345,0.28-0.625,0.625-0.625h3.438
		c0.345,0,0.625,0.28,0.625,0.625v3.651C20.801,8.417,20.521,8.696,20.176,8.696z M17.363,7.446h2.188V5.045h-2.188V7.446z"/>
</g>
<g>
	<path fill="#231F20" d="M7.684,15.242H4.246c-0.345,0-0.625-0.28-0.625-0.625v-3.651c0-0.345,0.28-0.625,0.625-0.625h3.438
		c0.345,0,0.625,0.28,0.625,0.625v3.651C8.309,14.961,8.029,15.242,7.684,15.242z M4.871,13.992h2.188V11.59H4.871V13.992z"/>
</g>
<g>
	<path fill="#231F20" d="M13.93,15.242h-3.438c-0.345,0-0.625-0.28-0.625-0.625v-3.651c0-0.345,0.28-0.625,0.625-0.625h3.438
		c0.345,0,0.625,0.28,0.625,0.625v3.651C14.555,14.961,14.274,15.242,13.93,15.242z M11.117,13.992h2.188V11.59h-2.188V13.992z"/>
</g>
<g>
	<path fill="#231F20" d="M20.176,15.242h-3.438c-0.345,0-0.625-0.28-0.625-0.625v-3.651c0-0.345,0.28-0.625,0.625-0.625h3.438
		c0.345,0,0.625,0.28,0.625,0.625v3.651C20.801,14.961,20.521,15.242,20.176,15.242z M17.363,13.992h2.188V11.59h-2.188V13.992z"/>
</g>
</svg>
