<?xml version="1.0" encoding="utf-8"?>
<!-- Generator: Adobe Illustrator 16.0.0, SVG Export Plug-In . SVG Version: 6.00 Build 0)  -->
<!DOCTYPE svg PUBLIC "-//W3C//DTD SVG 1.1//EN" "http://www.w3.org/Graphics/SVG/1.1/DTD/svg11.dtd">
<svg version="1.1" id="Layer_1" xmlns="http://www.w3.org/2000/svg" xmlns:xlink="http://www.w3.org/1999/xlink" x="0px" y="0px"
	 width="58.35px" height="32.498px" viewBox="0 0 58.35 32.498" enable-background="new 0 0 58.35 32.498" xml:space="preserve">
<g>
	<defs>
		<rect id="SVGID_1_" width="58.35" height="32.498"/>
	</defs>
	<clipPath id="SVGID_2_">
		<use xlink:href="#SVGID_1_"  overflow="visible"/>
	</clipPath>
	<g clip-path="url(#SVGID_2_)">
		<defs>
			<rect id="SVGID_3_" y="0" width="58.35" height="32.497"/>
		</defs>
		<clipPath id="SVGID_4_">
			<use xlink:href="#SVGID_3_"  overflow="visible"/>
		</clipPath>
		<g opacity="0.06" clip-path="url(#SVGID_4_)">
			<g>
				<defs>
					<rect id="SVGID_5_" x="5.616" y="20.92" width="52.734" height="11.577"/>
				</defs>
				<clipPath id="SVGID_6_">
					<use xlink:href="#SVGID_5_"  overflow="visible"/>
				</clipPath>
				<path clip-path="url(#SVGID_6_)" fill="#061715" d="M56.18,20.92H26.354c-2.217-0.04-5.225,1.307-6.683,2.161L9.529,29.026
					l-3.124,1.832c-1.458,0.854-0.837,1.586,1.38,1.625l19.418,0.015c8.372,0,30.357-10.63,30.357-10.63
					C59.019,21.014,58.397,20.96,56.18,20.92"/>
			</g>
		</g>
		<path clip-path="url(#SVGID_4_)" fill="#CDFF1E" d="M26.901,0H4.625C2.082,0,0,2.082,0,4.625v17.691v5.45
			c0,2.544,2.082,4.625,4.625,4.625h22.276c2.543,0,4.625-2.081,4.625-4.625v-5.45V4.625C31.525,2.082,29.444,0,26.901,0"/>
		<g clip-path="url(#SVGID_4_)">
			<path fill="#12B2AB" d="M25.618,24.619H5.762c-0.3,0-0.543-0.243-0.543-0.543V8.712c0-0.3,0.243-0.543,0.543-0.543h19.856
				c0.3,0,0.543,0.243,0.543,0.543v15.364C26.161,24.375,25.917,24.619,25.618,24.619z M6.305,23.533h18.77V9.255H6.305V23.533z"/>
		</g>
		<g clip-path="url(#SVGID_4_)">
			<path fill="#12B2AB" d="M11.881,15.709H8.902c-0.3,0-0.543-0.243-0.543-0.543V12c0-0.3,0.243-0.543,0.543-0.543h2.979
				c0.3,0,0.543,0.243,0.543,0.543v3.166C12.424,15.466,12.181,15.709,11.881,15.709z M9.445,14.624h1.893v-2.08H9.445V14.624z"/>
		</g>
		<g clip-path="url(#SVGID_4_)">
			<path fill="#12B2AB" d="M17.295,15.709h-2.979c-0.3,0-0.543-0.243-0.543-0.543V12c0-0.3,0.243-0.543,0.543-0.543h2.979
				c0.3,0,0.543,0.243,0.543,0.543v3.166C17.838,15.466,17.595,15.709,17.295,15.709z M14.859,14.624h1.893v-2.08h-1.893V14.624z"/>
		</g>
		<g clip-path="url(#SVGID_4_)">
			<path fill="#12B2AB" d="M22.71,15.709h-2.98c-0.3,0-0.543-0.243-0.543-0.543V12c0-0.3,0.243-0.543,0.543-0.543h2.98
				c0.3,0,0.543,0.243,0.543,0.543v3.166C23.253,15.466,23.01,15.709,22.71,15.709z M20.273,14.624h1.894v-2.08h-1.894V14.624z"/>
		</g>
		<g clip-path="url(#SVGID_4_)">
			<path fill="#12B2AB" d="M11.881,21.383H8.902c-0.3,0-0.543-0.243-0.543-0.543v-3.166c0-0.3,0.243-0.543,0.543-0.543h2.979
				c0.3,0,0.543,0.243,0.543,0.543v3.166C12.424,21.14,12.181,21.383,11.881,21.383z M9.445,20.297h1.893v-2.08H9.445V20.297z"/>
		</g>
		<g clip-path="url(#SVGID_4_)">
			<path fill="#12B2AB" d="M17.295,21.383h-2.979c-0.3,0-0.543-0.243-0.543-0.543v-3.166c0-0.3,0.243-0.543,0.543-0.543h2.979
				c0.3,0,0.543,0.243,0.543,0.543v3.166C17.838,21.14,17.595,21.383,17.295,21.383z M14.859,20.297h1.893v-2.08h-1.893V20.297z"/>
		</g>
		<g clip-path="url(#SVGID_4_)">
			<path fill="#12B2AB" d="M22.71,21.383h-2.98c-0.3,0-0.543-0.243-0.543-0.543v-3.166c0-0.3,0.243-0.543,0.543-0.543h2.98
				c0.3,0,0.543,0.243,0.543,0.543v3.166C23.253,21.14,23.01,21.383,22.71,21.383z M20.273,20.297h1.894v-2.08h-1.894V20.297z"/>
		</g>
	</g>
</g>
</svg>
