<?xml version="1.0" encoding="utf-8"?>
<!-- Generator: Adobe Illustrator 16.0.0, SVG Export Plug-In . SVG Version: 6.00 Build 0)  -->
<!DOCTYPE svg PUBLIC "-//W3C//DTD SVG 1.1//EN" "http://www.w3.org/Graphics/SVG/1.1/DTD/svg11.dtd">
<svg version="1.1" id="Layer_1" xmlns="http://www.w3.org/2000/svg" xmlns:xlink="http://www.w3.org/1999/xlink" x="0px" y="0px"
	 width="58.35px" height="35.169px" viewBox="0 0 58.35 35.169" enable-background="new 0 0 58.35 35.169" xml:space="preserve">
<g>
	<defs>
		<rect id="SVGID_1_" width="58.35" height="35.169"/>
	</defs>
	<clipPath id="SVGID_2_">
		<use xlink:href="#SVGID_1_"  overflow="visible"/>
	</clipPath>
	<g clip-path="url(#SVGID_2_)">
		<defs>
			<rect id="SVGID_3_" width="58.35" height="35.169"/>
		</defs>
		<clipPath id="SVGID_4_">
			<use xlink:href="#SVGID_3_"  overflow="visible"/>
		</clipPath>
		<g opacity="0.06" clip-path="url(#SVGID_4_)">
			<g>
				<defs>
					<rect id="SVGID_5_" x="5.616" y="23.592" width="52.734" height="11.577"/>
				</defs>
				<clipPath id="SVGID_6_">
					<use xlink:href="#SVGID_5_"  overflow="visible"/>
				</clipPath>
				<path clip-path="url(#SVGID_6_)" fill="#061715" d="M56.18,23.592H26.354c-2.218-0.039-5.225,1.307-6.683,2.161L9.529,31.696
					l-3.124,1.832c-1.458,0.854-0.837,1.586,1.38,1.626l19.418,0.015c8.373,0,30.357-10.629,30.357-10.629
					C59.02,23.685,58.397,23.632,56.18,23.592"/>
			</g>
		</g>
		<path clip-path="url(#SVGID_4_)" fill="#231F6E" d="M29.829,0H7.554C5.011,0,2.929,2.081,2.929,4.625v17.692v5.45
			c0,2.544,2.082,4.625,4.625,4.625h22.275c2.544,0,4.625-2.081,4.625-4.625v-5.45V4.625C34.454,2.081,32.373,0,29.829,0"/>
		<path clip-path="url(#SVGID_4_)" fill="#7AB5E2" d="M26.901,2.672H4.626c-2.544,0-4.625,2.081-4.625,4.625v17.692v5.449
			c0,2.544,2.081,4.625,4.625,4.625h22.275c2.543,0,4.625-2.081,4.625-4.625v-5.449V7.297C31.525,4.753,29.444,2.672,26.901,2.672"
			/>
		<path clip-path="url(#SVGID_4_)" fill="#231F6E" d="M23.36,13.213h-3.894V11.37c0-2.055-1.671-3.726-3.725-3.726
			c-2.055,0-3.727,1.671-3.727,3.726v1.843H8.121c-0.244,0-0.44,0.197-0.44,0.44v14.818c0,0.243,0.196,0.44,0.44,0.44H23.36
			c0.243,0,0.439-0.197,0.439-0.44V13.653C23.799,13.41,23.603,13.213,23.36,13.213 M12.894,11.37c0-1.569,1.277-2.847,2.847-2.847
			c1.568,0,2.845,1.278,2.845,2.847v1.843h-5.692V11.37z M22.92,28.031H8.56V14.093h14.36V28.031z"/>
		<path clip-path="url(#SVGID_4_)" fill="#231F6E" d="M15.741,24.674c1.9,0,3.447-1.547,3.447-3.447s-1.547-3.447-3.447-3.447
			s-3.447,1.547-3.447,3.447S13.841,24.674,15.741,24.674 M15.741,18.659c1.416,0,2.567,1.151,2.567,2.567s-1.151,2.567-2.567,2.567
			s-2.567-1.151-2.567-2.567S14.325,18.659,15.741,18.659"/>
		<path clip-path="url(#SVGID_4_)" fill="#231F6E" d="M15.741,22.218c0.243,0,0.439-0.196,0.439-0.439v-1.21
			c0-0.243-0.196-0.439-0.439-0.439c-0.243,0-0.44,0.196-0.44,0.439v1.21C15.301,22.021,15.498,22.218,15.741,22.218"/>
	</g>
</g>
</svg>
