<?xml version="1.0" encoding="utf-8"?>
<!-- Generator: Adobe Illustrator 16.0.0, SVG Export Plug-In . SVG Version: 6.00 Build 0)  -->
<!DOCTYPE svg PUBLIC "-//W3C//DTD SVG 1.1//EN" "http://www.w3.org/Graphics/SVG/1.1/DTD/svg11.dtd">
<svg version="1.1" id="Layer_1" xmlns="http://www.w3.org/2000/svg" xmlns:xlink="http://www.w3.org/1999/xlink" x="0px" y="0px"
	 width="22.76px" height="22.984px" viewBox="0 0 22.76 22.984" enable-background="new 0 0 22.76 22.984" xml:space="preserve">
<g>
	<defs>
		<rect id="SVGID_1_" width="22.76" height="22.984"/>
	</defs>
	<clipPath id="SVGID_2_">
		<use xlink:href="#SVGID_1_"  overflow="visible"/>
	</clipPath>
	<g clip-path="url(#SVGID_2_)">
		<path fill="#231F20" d="M15.353,22.984c-0.628,0-1.186-0.378-1.422-0.963c-0.454-0.981-1.46-1.635-2.551-1.635
			c-0.38,0-0.739,0.075-1.011,0.211c-0.776,0.346-1.238,0.797-1.436,1.389c-0.183,0.385-0.468,0.67-0.776,0.822
			c-0.561,0.201-0.899,0.167-1.302,0.034c-0.426-0.143-0.767-0.434-0.961-0.82c-0.193-0.388-0.222-0.835-0.081-1.26
			c0.394-1.023,0.13-2.146-0.677-2.954c-0.679-0.678-1.464-0.82-2.003-0.82c-0.322,0-0.646,0.05-0.964,0.147
			c-0.12,0.05-0.298,0.084-0.48,0.084c-0.634,0-1.228-0.4-1.551-1.047c-0.326-0.956,0.027-1.846,0.788-2.148
			c0.917-0.462,1.541-1.471,1.541-2.551c0-1.08-0.624-2.09-1.589-2.573c-0.71-0.284-1.087-1.266-0.76-2.081
			c0.11-0.333,0.376-0.57,0.571-0.744l0.121-0.111c0.048-0.048,0.104-0.088,0.164-0.118C1.322,5.671,1.814,5.67,2.168,5.844
			c0.554,0.172,1.306,0.189,1.957-0.101c0.322-0.161,0.622-0.312,0.917-0.608c0.76-0.759,1.012-1.867,0.674-2.966
			c-0.29-0.713,0.116-1.608,0.961-2.032C6.965,0.034,7.174,0,7.38,0C8.045,0,8.6,0.354,8.829,0.922
			c0.454,0.983,1.459,1.636,2.551,1.636c0.38,0,0.738-0.075,1.009-0.211c0.778-0.346,1.24-0.796,1.438-1.389
			c0.187-0.386,0.47-0.668,0.773-0.821c0.57-0.203,0.905-0.168,1.306-0.034c0.426,0.142,0.768,0.433,0.961,0.82
			s0.223,0.835,0.08,1.261c-0.394,1.024-0.13,2.145,0.678,2.951c0.68,0.68,1.464,0.822,2.002,0.822c0.322,0,0.646-0.05,0.965-0.148
			c0.122-0.05,0.299-0.084,0.48-0.084c0.634,0,1.229,0.401,1.552,1.048c0.326,0.955-0.026,1.843-0.787,2.148
			c-0.918,0.462-1.542,1.473-1.542,2.552s0.624,2.089,1.589,2.573c0.298,0.115,0.576,0.396,0.735,0.768
			c0.179,0.417,0.188,0.907,0.026,1.312c-0.111,0.335-0.38,0.573-0.575,0.747l-0.119,0.109c-0.046,0.046-0.099,0.084-0.156,0.113
			c-0.354,0.179-0.854,0.18-1.209,0c-0.536-0.163-1.299-0.186-1.951,0.106c-0.323,0.162-0.621,0.312-0.916,0.606
			c-0.76,0.76-1.012,1.868-0.674,2.968c0.287,0.716-0.119,1.609-0.964,2.031C15.848,22.924,15.603,22.984,15.353,22.984z
			 M11.38,19.136c1.576,0,3.028,0.938,3.698,2.39c0.069,0.167,0.239,0.268,0.442,0.164c0.271-0.136,0.397-0.367,0.346-0.499
			c-0.493-1.598-0.125-3.175,0.968-4.267c0.438-0.438,0.876-0.658,1.264-0.852c0.98-0.438,1.954-0.467,2.967-0.128l0.125,0.038
			c0.017-0.015,0.033-0.029,0.05-0.044c0.08-0.072,0.215-0.191,0.232-0.245c0.052-0.132,0.046-0.274-0.002-0.388
			c-0.026-0.062-0.064-0.108-0.098-0.121c-1.434-0.715-2.328-2.164-2.328-3.712c0-1.549,0.895-2.998,2.279-3.691
			c0.182-0.075,0.227-0.3,0.148-0.532c-0.089-0.164-0.277-0.275-0.4-0.275c-0.016,0.006-0.096,0.023-0.111,0.028
			c-1.508,0.467-3.14,0.095-4.22-0.984c-1.162-1.161-1.534-2.792-0.97-4.258c0.027-0.083,0.022-0.189-0.022-0.279
			c-0.045-0.09-0.127-0.157-0.237-0.194c-0.149-0.049-0.282-0.048-0.435,0h0.001c0.017,0-0.068,0.085-0.1,0.147
			C14.701,2.285,13.998,3,12.922,3.477c-0.413,0.209-0.971,0.331-1.542,0.331c-1.578,0-3.03-0.938-3.699-2.391
			C7.618,1.26,7.435,1.25,7.38,1.25c-0.073,0-0.148,0.013-0.226,0.039C6.967,1.39,6.841,1.622,6.894,1.752
			C7.388,3.351,7.02,4.928,5.926,6.019c-0.438,0.44-0.879,0.66-1.268,0.854C3.683,7.308,2.71,7.338,1.695,6.998L1.57,6.961
			c-0.017,0.015-0.033,0.03-0.05,0.045c-0.08,0.071-0.213,0.19-0.231,0.243C1.202,7.468,1.295,7.723,1.389,7.761
			c1.431,0.713,2.326,2.163,2.326,3.712s-0.895,2.998-2.28,3.69c-0.181,0.075-0.224,0.3-0.146,0.532
			c0.088,0.163,0.276,0.274,0.399,0.274c0.016-0.006,0.097-0.024,0.114-0.029c1.509-0.462,3.14-0.092,4.218,0.984
			c1.162,1.164,1.533,2.796,0.969,4.26c-0.064,0.196,0.036,0.397,0.259,0.472c0.148,0.049,0.284,0.049,0.433,0c0,0,0,0,0,0
			c-0.015,0,0.068-0.083,0.099-0.145c0.279-0.852,0.982-1.566,2.056-2.045C10.253,19.257,10.811,19.136,11.38,19.136z"/>
	</g>
	<g clip-path="url(#SVGID_2_)">
		<path fill="#231F20" d="M11.389,15.68c-1.688,0-3.181-0.984-3.894-2.569C6.617,10.92,7.588,8.555,9.742,7.586
			c2.219-0.891,4.578,0.15,5.523,2.248c0.856,2.136-0.185,4.657-2.262,5.53C12.476,15.576,11.936,15.68,11.389,15.68z M11.369,8.514
			c-0.386,0-0.769,0.075-1.139,0.223c-1.507,0.679-2.199,2.354-1.586,3.885c0.661,1.466,2.375,2.19,3.885,1.586
			c1.453-0.611,2.185-2.392,1.587-3.884C13.616,9.216,12.561,8.514,11.369,8.514z"/>
	</g>
</g>
</svg>
