<?xml version="1.0" encoding="utf-8"?>
<!-- Generator: Adobe Illustrator 16.0.0, SVG Export Plug-In . SVG Version: 6.00 Build 0)  -->
<!DOCTYPE svg PUBLIC "-//W3C//DTD SVG 1.1//EN" "http://www.w3.org/Graphics/SVG/1.1/DTD/svg11.dtd">
<svg version="1.1" id="Layer_1" xmlns="http://www.w3.org/2000/svg" xmlns:xlink="http://www.w3.org/1999/xlink" x="0px" y="0px"
	 width="58.35px" height="35.169px" viewBox="0 0 58.35 35.169" enable-background="new 0 0 58.35 35.169" xml:space="preserve">
<g>
	<defs>
		<rect id="SVGID_1_" width="58.35" height="35.169"/>
	</defs>
	<clipPath id="SVGID_2_">
		<use xlink:href="#SVGID_1_"  overflow="visible"/>
	</clipPath>
	<g clip-path="url(#SVGID_2_)">
		<defs>
			<rect id="SVGID_3_" width="58.35" height="35.169"/>
		</defs>
		<clipPath id="SVGID_4_">
			<use xlink:href="#SVGID_3_"  overflow="visible"/>
		</clipPath>
		<g opacity="0.06" clip-path="url(#SVGID_4_)">
			<g>
				<defs>
					<rect id="SVGID_5_" x="5.616" y="23.592" width="52.734" height="11.577"/>
				</defs>
				<clipPath id="SVGID_6_">
					<use xlink:href="#SVGID_5_"  overflow="visible"/>
				</clipPath>
				<path clip-path="url(#SVGID_6_)" fill="#061715" d="M56.18,23.592H26.354c-2.218-0.039-5.225,1.307-6.683,2.161L9.529,31.697
					l-3.124,1.832c-1.458,0.854-0.837,1.585,1.38,1.626l19.418,0.014c8.373,0,30.357-10.63,30.357-10.63
					C59.02,23.685,58.397,23.632,56.18,23.592"/>
			</g>
		</g>
		<path clip-path="url(#SVGID_4_)" fill="#231F6E" d="M29.829,0H7.554C5.011,0,2.929,2.081,2.929,4.625v17.692v5.45
			c0,2.544,2.082,4.625,4.625,4.625h22.275c2.544,0,4.625-2.081,4.625-4.625v-5.45V4.625C34.454,2.081,32.373,0,29.829,0"/>
		<path clip-path="url(#SVGID_4_)" fill="#FA9456" d="M26.901,2.671H4.626c-2.544,0-4.625,2.082-4.625,4.625v17.692v5.451
			c0,2.544,2.081,4.625,4.625,4.625h22.275c2.543,0,4.625-2.081,4.625-4.625v-5.451V7.296C31.525,4.753,29.444,2.671,26.901,2.671"
			/>
		<path clip-path="url(#SVGID_4_)" fill="#231F6E" d="M24.122,9.111H10.471c-0.27,0-0.488,0.217-0.488,0.488v3.004H8.079
			c-0.269,0-0.488,0.218-0.488,0.488v15.647c0,0.271,0.219,0.488,0.488,0.488h12.714c0.271,0,0.488-0.218,0.488-0.488v-3.003h2.841
			c0.271,0,0.49-0.22,0.49-0.489V9.599C24.612,9.328,24.393,9.111,24.122,9.111 M20.305,28.25H8.568V13.579h11.737V28.25z
			 M23.634,24.758h-2.353V13.091c0-0.27-0.217-0.488-0.488-0.488h-9.834v-2.516h12.675V24.758z"/>
		<path clip-path="url(#SVGID_4_)" fill="#231F6E" d="M13.882,24.477h3.632c0.269,0,0.488-0.218,0.488-0.487
			c0-0.271-0.219-0.489-0.488-0.489h-3.632c-0.271,0-0.489,0.219-0.489,0.489C13.393,24.259,13.611,24.477,13.882,24.477"/>
		<path clip-path="url(#SVGID_4_)" fill="#231F6E" d="M13.882,21.544h3.632c0.269,0,0.488-0.219,0.488-0.489
			c0-0.27-0.219-0.488-0.488-0.488h-3.632c-0.271,0-0.489,0.219-0.489,0.488C13.393,21.325,13.611,21.544,13.882,21.544"/>
		<path clip-path="url(#SVGID_4_)" fill="#231F6E" d="M13.882,18.609h3.632c0.269,0,0.488-0.219,0.488-0.489
			s-0.219-0.489-0.488-0.489h-3.632c-0.271,0-0.489,0.219-0.489,0.489S13.611,18.609,13.882,18.609"/>
		<path clip-path="url(#SVGID_4_)" fill="#231F6E" d="M11.251,24.477h0.22c0.269,0,0.488-0.218,0.488-0.487
			c0-0.271-0.219-0.489-0.488-0.489h-0.22c-0.27,0-0.488,0.219-0.488,0.489C10.763,24.259,10.981,24.477,11.251,24.477"/>
		<path clip-path="url(#SVGID_4_)" fill="#231F6E" d="M11.251,21.544h0.22c0.269,0,0.488-0.219,0.488-0.489
			c0-0.27-0.219-0.488-0.488-0.488h-0.22c-0.27,0-0.488,0.219-0.488,0.488C10.763,21.325,10.981,21.544,11.251,21.544"/>
		<path clip-path="url(#SVGID_4_)" fill="#231F6E" d="M11.251,18.609h0.22c0.269,0,0.488-0.219,0.488-0.489
			s-0.219-0.489-0.488-0.489h-0.22c-0.27,0-0.488,0.219-0.488,0.489S10.981,18.609,11.251,18.609"/>
	</g>
</g>
</svg>
