<?xml version="1.0" encoding="utf-8"?>
<!-- Generator: Adobe Illustrator 16.0.0, SVG Export Plug-In . SVG Version: 6.00 Build 0)  -->
<!DOCTYPE svg PUBLIC "-//W3C//DTD SVG 1.1//EN" "http://www.w3.org/Graphics/SVG/1.1/DTD/svg11.dtd">
<svg version="1.1" id="Layer_1" xmlns="http://www.w3.org/2000/svg" xmlns:xlink="http://www.w3.org/1999/xlink" x="0px" y="0px"
	 width="58.35px" height="35.169px" viewBox="0 0 58.35 35.169" enable-background="new 0 0 58.35 35.169" xml:space="preserve">
<g>
	<defs>
		<rect id="SVGID_1_" width="58.35" height="35.169"/>
	</defs>
	<clipPath id="SVGID_2_">
		<use xlink:href="#SVGID_1_"  overflow="visible"/>
	</clipPath>
	<g clip-path="url(#SVGID_2_)">
		<defs>
			<rect id="SVGID_3_" width="58.35" height="35.169"/>
		</defs>
		<clipPath id="SVGID_4_">
			<use xlink:href="#SVGID_3_"  overflow="visible"/>
		</clipPath>
		<g opacity="0.06" clip-path="url(#SVGID_4_)">
			<g>
				<defs>
					<rect id="SVGID_5_" x="5.616" y="23.592" width="52.734" height="11.577"/>
				</defs>
				<clipPath id="SVGID_6_">
					<use xlink:href="#SVGID_5_"  overflow="visible"/>
				</clipPath>
				<path clip-path="url(#SVGID_6_)" fill="#061715" d="M56.18,23.592H26.354c-2.217-0.04-5.225,1.307-6.683,2.161L9.529,31.697
					l-3.124,1.832c-1.458,0.854-0.837,1.586,1.38,1.625l19.418,0.015c8.372,0,30.357-10.63,30.357-10.63
					C59.019,23.686,58.397,23.632,56.18,23.592"/>
			</g>
		</g>
		<path clip-path="url(#SVGID_4_)" fill="#ACFF6F" d="M29.829,0H7.554C5.009,0,2.929,2.082,2.929,4.625v17.691v5.451
			c0,2.543,2.081,4.625,4.625,4.625h22.275c2.544,0,4.625-2.082,4.625-4.625v-5.451V4.625C34.454,2.082,32.373,0,29.829,0"/>
		<path clip-path="url(#SVGID_4_)" fill="#09007C" d="M26.901,2.672H4.625C2.082,2.672,0,4.753,0,7.297v17.691v5.45
			c0,2.544,2.082,4.625,4.625,4.625h22.276c2.543,0,4.625-2.081,4.625-4.625v-5.45V7.297C31.525,4.753,29.444,2.672,26.901,2.672"/>
		<path clip-path="url(#SVGID_4_)" fill="#ACFF6F" d="M26.184,15.431l-0.07-0.07c-0.035-0.035-0.07-0.07-0.105-0.07l-0.035-0.035
			c-0.036-0.035-0.07-0.035-0.105-0.07l-0.106-0.035c-0.07-0.035-0.14-0.07-0.21-0.07c-0.947-0.316-1.929-0.211-2.805-0.106h-0.105
			c-0.141,0-0.667,0.071-1.192,0.106L21.1,15.116l0.105-0.421c0.176-0.526,0.316-1.087,0.491-1.613
			c0.28-0.841,0.351-1.543,0.28-2.244c-0.104-0.912-0.63-1.753-1.437-2.244c-0.456-0.28-0.946-0.421-1.472-0.421h-0.141
			c-0.631,0.036-1.052,0.457-1.121,1.052c-0.036,0.526-0.106,0.982-0.176,1.438c-0.105,0.736-0.316,1.367-0.631,1.893
			c-0.175,0.281-0.351,0.561-0.596,0.806c-0.351,0.386-0.701,0.772-1.122,1.228l-0.911,1.052c-0.176,0.21-0.386,0.455-0.667,0.701
			c-0.035,0.035-0.07,0.07-0.14,0.14c-0.14,0.105-0.28,0.211-0.42,0.28c-0.071,0.035-0.211,0.071-0.386,0.141
			c-0.561,0.175-1.508,0.42-1.578,1.296c0,0.245-0.035,0.491-0.035,0.701v0.142v0.595v7.644h1.613h0.034
			c0.421,0.07,0.842,0.141,1.403,0.246l0.245,0.034c1.087,0.175,2.104,0.352,3.121,0.456c0.28,0.035,0.561,0.07,0.841,0.105
			c0.877,0.105,1.788,0.245,2.665,0.245c1.543,0,3.015-0.351,4.102-1.753c0.702-0.877,0.842-2.033,0.982-3.016
			c0.035-0.175,0.035-0.35,0.07-0.49c0.105-0.702,0.211-1.438,0.316-2.139c0.175-1.087,0.35-2.244,0.49-3.366
			C27.165,16.763,26.815,15.922,26.184,15.431 M26.184,17.465L26.184,17.465c-0.14,1.122-0.315,2.244-0.491,3.331
			c-0.105,0.701-0.21,1.437-0.316,2.138c-0.034,0.176-0.034,0.351-0.069,0.526c-0.141,0.946-0.246,1.928-0.807,2.595
			c-1.438,1.788-3.752,1.473-5.995,1.192c-0.281-0.035-0.596-0.07-0.877-0.105c-0.982-0.105-1.998-0.281-3.085-0.456l-0.246-0.035
			c-0.561-0.104-0.981-0.176-1.402-0.246H12.79h-0.806v-6.836v-0.597v-0.14c0-0.21,0.035-0.421,0.035-0.667
			c0-0.14,0.141-0.281,0.947-0.526c0.21-0.07,0.385-0.105,0.526-0.175c0.245-0.105,0.456-0.246,0.631-0.421
			c0.07-0.07,0.14-0.14,0.21-0.175c0.281-0.246,0.526-0.526,0.702-0.737l0.911-1.051c0.386-0.456,0.772-0.842,1.087-1.193
			c0.28-0.315,0.526-0.631,0.701-0.981c0.351-0.631,0.596-1.333,0.701-2.174c0.071-0.455,0.141-0.947,0.176-1.473
			c0.035-0.175,0.105-0.245,0.281-0.28h0.069c0.351,0,0.702,0.105,1.017,0.316c0.561,0.35,0.947,0.946,1.017,1.612
			c0.07,0.561,0,1.122-0.246,1.859c-0.175,0.526-0.35,1.087-0.49,1.647l-0.246,0.877c-0.035,0.175,0,0.351,0.106,0.491
			c0.105,0.14,0.28,0.21,0.455,0.21l0.877-0.07c0.525-0.035,1.087-0.07,1.227-0.105h0.105c0.841-0.07,1.683-0.175,2.454,0.07
			c0.035,0,0.071,0.035,0.106,0.035l0.105,0.035l0.175,0.105C26.044,16.413,26.254,16.974,26.184,17.465"/>
		<path clip-path="url(#SVGID_4_)" fill="#ACFF6F" d="M9.424,15.887h-3.26c-0.666,0-1.227,0.561-1.227,1.227v9.747
			c0,0.667,0.561,1.228,1.227,1.228h3.26c0.666,0,1.227-0.561,1.227-1.228v-9.782C10.651,16.413,10.09,15.887,9.424,15.887
			 M9.775,26.825c0,0.176-0.14,0.352-0.351,0.352h-3.26c-0.176,0-0.351-0.142-0.351-0.352v-9.747c0-0.175,0.14-0.35,0.351-0.35h3.26
			c0.176,0,0.351,0.14,0.351,0.35V26.825z"/>
	</g>
</g>
</svg>
