<?xml version="1.0" encoding="utf-8"?>
<!-- Generator: Adobe Illustrator 16.0.0, SVG Export Plug-In . SVG Version: 6.00 Build 0)  -->
<!DOCTYPE svg PUBLIC "-//W3C//DTD SVG 1.1//EN" "http://www.w3.org/Graphics/SVG/1.1/DTD/svg11.dtd">
<svg version="1.1" id="Layer_1" xmlns="http://www.w3.org/2000/svg" xmlns:xlink="http://www.w3.org/1999/xlink" x="0px" y="0px"
	 width="25.217px" height="22.547px" viewBox="0 0 25.217 22.547" enable-background="new 0 0 25.217 22.547" xml:space="preserve">
<g>
	<defs>
		<rect id="SVGID_1_" y="0" width="25.216" height="22.547"/>
	</defs>
	<clipPath id="SVGID_2_">
		<use xlink:href="#SVGID_1_"  overflow="visible"/>
	</clipPath>
	<g clip-path="url(#SVGID_2_)">
		<path fill="#231F20" d="M19.75,22.547L19.75,22.547c-0.163,0-0.334-0.011-0.515-0.033l-9.096,0.005
			c-0.186,0-0.368-0.052-0.528-0.15l-1.069-0.588c-0.015,0.016-0.029,0.03-0.044,0.046c-0.409,0.407-0.95,0.632-1.523,0.632H2.154
			c-0.573,0-1.114-0.225-1.522-0.632C0.224,21.417,0,20.876,0,20.303v-9.109c0-0.573,0.225-1.114,0.632-1.522
			C1.039,9.263,1.58,9.038,2.154,9.038h4.821c0.48,0,0.938,0.158,1.314,0.449c1.205-0.883,3.527-3.264,2.913-8.211
			c-0.061-0.504,0.263-0.973,0.752-1.094C12.074,0.146,12.612,0,13.288,0c1.176,0,2.159,0.432,2.843,1.247
			c1.032,1.231,1.352,3.301,0.951,6.161C17.613,7.37,18.248,7.34,18.93,7.34c3.231,0,5.243,0.667,5.981,1.981
			c0.492,0.878,0.39,1.966-0.305,3.238c0.276,0.521,0.549,1.294,0.357,2.109c-0.135,0.573-0.471,1.064-1.002,1.466
			c0.196,1.326-0.191,2.438-1.076,3.081C22.697,20.882,21.793,22.547,19.75,22.547z M10.205,21.269h9.109
			c0.204,0.021,0.323,0.028,0.437,0.028c1.541,0,1.861-1.553,1.915-2.479c0.013-0.215,0.135-0.408,0.323-0.512
			c0.939-0.517,0.825-1.674,0.674-2.318c-0.062-0.267,0.056-0.544,0.292-0.683c0.449-0.264,0.709-0.566,0.793-0.924
			c0.138-0.587-0.226-1.229-0.388-1.479c-0.132-0.202-0.136-0.462-0.01-0.667c0.609-1,0.769-1.775,0.471-2.304
			C23.342,9.08,21.559,8.59,18.93,8.59c-1.023,0-1.938,0.071-2.526,0.13c-0.203,0.024-0.388-0.053-0.521-0.196
			c-0.133-0.144-0.191-0.341-0.157-0.534c0.505-2.854,0.313-4.909-0.551-5.94c-0.446-0.531-1.08-0.801-1.886-0.801
			c-0.343,0-0.638,0.05-0.82,0.091c0.681,6.183-2.834,8.822-3.938,9.488c-0.276,0.165-0.632,0.096-0.824-0.162
			c-0.029-0.039-0.057-0.078-0.09-0.112c-0.172-0.172-0.399-0.267-0.639-0.267H2.154c-0.24,0-0.466,0.095-0.638,0.267
			c-0.172,0.172-0.267,0.399-0.267,0.639v9.109c0,0.24,0.095,0.467,0.267,0.64c0.171,0.171,0.398,0.266,0.638,0.266h4.821
			c0.24,0,0.467-0.095,0.64-0.267c0.064-0.064,0.123-0.15,0.172-0.253c0.075-0.154,0.209-0.271,0.373-0.323
			c0.164-0.052,0.34-0.034,0.491,0.048L10.205,21.269z"/>
	</g>
	<g clip-path="url(#SVGID_2_)">
		<path fill="#231F20" d="M8.323,21.819c-0.345,0-0.625-0.28-0.625-0.625V10.13c0-0.345,0.28-0.625,0.625-0.625
			s0.625,0.28,0.625,0.625v11.063C8.948,21.539,8.668,21.819,8.323,21.819z"/>
	</g>
</g>
</svg>
