<?xml version="1.0" encoding="utf-8"?>
<!-- Generator: Adobe Illustrator 16.0.0, SVG Export Plug-In . SVG Version: 6.00 Build 0)  -->
<!DOCTYPE svg PUBLIC "-//W3C//DTD SVG 1.1//EN" "http://www.w3.org/Graphics/SVG/1.1/DTD/svg11.dtd">
<svg version="1.1" id="Layer_1" xmlns="http://www.w3.org/2000/svg" xmlns:xlink="http://www.w3.org/1999/xlink" x="0px" y="0px"
	 width="48.082px" height="48.082px" viewBox="0 0 48.082 48.082" enable-background="new 0 0 48.082 48.082" xml:space="preserve">
<g>
	<defs>
		<rect id="SVGID_1_" width="48.082" height="48.082"/>
	</defs>
	<clipPath id="SVGID_2_">
		<use xlink:href="#SVGID_1_"  overflow="visible"/>
	</clipPath>
	<g clip-path="url(#SVGID_2_)">
		<path d="M24.041,48.082C10.785,48.082,0,37.297,0,24.041C0,10.785,10.785,0,24.041,0c13.256,0,24.041,10.785,24.041,24.041
			C48.082,37.297,37.297,48.082,24.041,48.082z M24.041,4C12.99,4,4,12.99,4,24.041s8.99,20.041,20.041,20.041
			s20.041-8.99,20.041-20.041S35.092,4,24.041,4z"/>
	</g>
	<g clip-path="url(#SVGID_2_)">
		<path d="M21.429,34.14c-0.512,0-1.023-0.195-1.414-0.586l-6.591-6.591c-0.781-0.781-0.781-2.047,0-2.828
			c0.78-0.781,2.048-0.781,2.828,0l5.177,5.177L33.3,17.441c0.781-0.781,2.047-0.781,2.828,0c0.781,0.781,0.781,2.047,0,2.828
			L22.843,33.554C22.453,33.944,21.94,34.14,21.429,34.14z"/>
	</g>
</g>
</svg>
