<svg width="177" height="62" viewBox="0 0 177 62" fill="none" xmlns="http://www.w3.org/2000/svg">
<g clip-path="url(#clip0)">
<rect width="177" height="62" fill="black" fill-opacity="0"/>
<rect width="177" height="62" rx="8" fill="#1452F5"/>
<rect width="172" height="49.7571" fill="black" fill-opacity="0" transform="translate(1 16)"/>
<rect width="172" height="49.7571" fill="black" fill-opacity="0" transform="translate(1 16)"/>
<rect width="147.425" height="24.3305" fill="black" fill-opacity="0" transform="translate(13.2857 28.9)"/>
<rect width="147.425" height="24.3305" fill="black" fill-opacity="0" transform="translate(13.2857 28.9)"/>
<rect width="147.425" height="24.3305" fill="black" fill-opacity="0" transform="translate(13.2857 28.9)"/>
<path d="M21.5336 44.8328C21.84 45.5032 22.2354 46.1087 22.7074 46.6394C21.6667 47.1993 20.5761 47.449 19.3872 47.449C15.8515 47.449 13.2857 45.1192 13.2857 41.4006C13.2857 37.6557 15.9825 35.3258 19.3872 35.3258C20.5988 35.3258 21.5543 35.5889 22.5169 36.1034C22.068 36.6546 21.6977 37.28 21.4164 37.9685C20.8356 37.7358 20.2378 37.63 19.6222 37.63C17.5273 37.63 15.9037 38.9655 15.9037 41.4006C15.9037 43.7048 17.4752 45.1713 19.7275 45.1713C20.3727 45.1713 20.9685 45.0545 21.5336 44.8328ZM28.6443 35.3258C32.1266 35.3258 34.6405 37.7874 34.6405 41.4006C34.6405 44.9882 32.1266 47.449 28.6443 47.449C25.1884 47.449 22.6747 44.9882 22.6747 41.4006C22.6747 37.7874 25.1884 35.3258 28.6443 35.3258ZM28.6443 37.5514C26.7068 37.5514 25.2927 39.0443 25.2927 41.4006C25.2927 43.7315 26.7068 45.2234 28.6443 45.2234C30.6349 45.2234 32.0226 43.7315 32.0226 41.4006C32.0226 39.0443 30.6349 37.5514 28.6443 37.5514ZM36.2906 47.1873V35.5874H38.8821V47.1873H36.2906ZM35.9495 32.0263C35.9495 31.1362 36.7096 30.4293 37.5732 30.4293C38.4375 30.4293 39.1968 31.1362 39.1968 32.0263C39.1968 32.943 38.4375 33.6766 37.5732 33.6766C36.7096 33.6766 35.9495 32.943 35.9495 32.0263ZM41.1435 36.3211C42.7672 35.6927 44.7578 35.3258 46.4591 35.3258C49.4183 35.3258 51.3036 36.4518 51.3036 39.7248V47.1873H48.7378V39.9608C48.7378 38.285 47.6903 37.6821 46.2497 37.6821C45.333 37.6821 44.4175 37.813 43.736 38.0226V47.1873H41.1435V36.3211ZM53.4743 29.3818H56.0658V35.9021C56.6156 35.614 57.6895 35.3259 58.7103 35.3259C62.0621 35.3259 64.5758 37.4727 64.5758 41.1912C64.5758 44.9352 62.0885 47.4489 57.7948 47.4489C56.119 47.4489 54.6527 47.1086 53.4743 46.6898V29.3818ZM56.0658 44.9883C56.5635 45.1447 57.2185 45.2233 57.8724 45.2233C60.2554 45.2233 61.9578 43.9144 61.9578 41.2433C61.9578 38.9911 60.3606 37.6557 58.3967 37.6557C57.3757 37.6557 56.59 37.9182 56.0658 38.2063V44.9883ZM72.0638 39.4102C72.0638 38.1532 71.1206 37.578 69.8382 37.578C68.5027 37.578 67.4552 37.9704 66.4866 38.5202V36.2679C67.5074 35.6927 68.8164 35.3258 70.2573 35.3258C72.7964 35.3258 74.6032 36.3732 74.6032 39.2793V46.9513C73.5036 47.2394 71.9331 47.4233 70.624 47.4233C67.6126 47.4233 65.4127 46.5068 65.4127 43.8878C65.4127 41.5315 67.4288 40.3798 70.7804 40.3798H72.0638V39.4102ZM72.0638 42.1078H70.9642C69.1567 42.1078 67.9785 42.6309 67.9785 43.8092C67.9785 45.0138 69.0789 45.485 70.6496 45.485C71.043 45.485 71.5928 45.4329 72.0638 45.3541V42.1078ZM76.4884 44.0452C77.5623 44.8566 78.8448 45.3543 80.0229 45.3543C81.1756 45.3543 81.9349 44.9617 81.9349 44.0452C81.9349 43.102 81.2542 42.7618 79.7615 42.3694C77.3528 41.8196 76.3311 40.851 76.3311 38.8347C76.3311 36.4774 78.1121 35.3259 80.4684 35.3259C81.7775 35.3259 82.8249 35.614 83.7936 36.2159V38.5987C82.7728 37.8661 81.7775 37.4206 80.5472 37.4206C79.4212 37.4206 78.8193 37.9703 78.8193 38.7296C78.8193 39.4888 79.3159 39.8821 80.6515 40.2481C83.2969 40.8243 84.4486 41.8196 84.4486 43.9144C84.4486 46.3494 82.5897 47.4489 80.076 47.4489C78.714 47.4489 77.3528 47.083 76.4884 46.5067V44.0452ZM87.9965 41.9769V42.0291C88.1539 44.0973 89.9339 45.2233 91.7405 45.2233C93.3377 45.2233 94.4902 44.8566 95.6419 44.0973V46.376C94.5944 47.1086 93.0496 47.4489 91.5576 47.4489C87.9444 47.4489 85.4828 45.1447 85.4828 41.4793C85.4828 37.7874 87.8912 35.3259 91.0864 35.3259C94.4637 35.3259 96.0609 37.4993 96.0609 40.6671V41.9769H87.9965ZM93.6258 40.3011C93.5737 38.4936 92.6836 37.4993 91.0078 37.4993C89.5149 37.4993 88.4155 38.5467 88.0751 40.3011H93.6258Z" fill="white"/>
<path d="M106.151 29.3216C106.151 29.0887 105.963 28.9 105.73 28.9C105.497 28.9 105.308 29.0887 105.308 29.3216V52.809C105.308 53.0418 105.497 53.2305 105.73 53.2305C105.963 53.2305 106.151 53.0418 106.151 52.809V29.3216Z" fill="white"/>
<rect width="45.9327" height="13.4637" fill="black" fill-opacity="0" transform="translate(114.778 33.9395)"/>
<rect width="45.9327" height="13.4637" fill="black" fill-opacity="0" transform="translate(114.778 33.9395)"/>
<rect width="45.9327" height="13.4637" fill="black" fill-opacity="0" transform="translate(114.778 33.9395)"/>
<path d="M121.334 35.6176H122.758L125.334 46.0959L128.066 35.6176H129.256L126.115 47.2081H124.514L122.017 37.003L119.519 47.2081H117.919L114.778 35.6176H116.027L118.739 46.0959L121.334 35.6176ZM135.129 42.2909V41.2568C135.129 40.1641 134.427 39.5982 133.334 39.5982C132.359 39.5982 131.617 39.8714 130.837 40.2811V39.1689C131.559 38.7787 132.476 38.5055 133.471 38.5055C135.188 38.5055 136.3 39.2665 136.3 41.1787V47.052C135.52 47.2667 134.603 47.3642 133.881 47.3642C131.578 47.3642 130.037 46.6422 130.037 44.8471C130.037 43.169 131.578 42.2909 134.173 42.2909H135.129ZM135.129 46.2715V43.2471H134.251C132.495 43.2471 131.207 43.7154 131.207 44.8471C131.207 45.9788 132.378 46.3886 133.939 46.3886C134.29 46.3886 134.72 46.3496 135.129 46.2715ZM140.261 33.9395V47.2081H139.09V33.9395H140.261ZM144.359 33.9395V47.2081H143.188V33.9395H144.359ZM154.252 43.0129H147.813V43.0519C147.813 45.1398 149.315 46.3691 150.974 46.3691C152.183 46.3691 153.022 46.0569 153.881 45.413V46.5837C153.12 47.1496 152.027 47.4032 150.974 47.4032C148.515 47.4032 146.642 45.7252 146.642 42.9544C146.642 40.3982 148.398 38.5055 150.681 38.5055C152.827 38.5055 154.252 39.7933 154.252 42.2129V43.0129ZM147.891 42.0373H153.081C153.003 40.2616 152.047 39.5397 150.622 39.5397C149.296 39.5397 148.222 40.4372 147.891 42.0373ZM155.422 39.6958V38.7006H156.73V36.6323H157.901V38.7006H160.301V39.6958H157.901V44.8861C157.901 45.9788 158.33 46.4081 159.13 46.4081C159.676 46.4081 160.125 46.2325 160.71 45.9398V46.974C160.203 47.2276 159.618 47.4032 158.876 47.4032C157.647 47.4032 156.73 46.7593 156.73 45.0032V39.6958H155.422Z" fill="white"/>
<rect width="45.9327" height="13.4637" fill="black" fill-opacity="0" transform="translate(114.778 33.9395)"/>
<path d="M121.334 35.6176H122.758L125.334 46.0959L128.066 35.6176H129.256L126.115 47.2081H124.514L122.017 37.003L119.519 47.2081H117.919L114.778 35.6176H116.027L118.739 46.0959L121.334 35.6176ZM135.129 42.2909V41.2568C135.129 40.1641 134.427 39.5982 133.334 39.5982C132.359 39.5982 131.617 39.8714 130.837 40.2811V39.1689C131.559 38.7787 132.476 38.5055 133.471 38.5055C135.188 38.5055 136.3 39.2665 136.3 41.1787V47.052C135.52 47.2667 134.603 47.3642 133.881 47.3642C131.578 47.3642 130.037 46.6422 130.037 44.8471C130.037 43.169 131.578 42.2909 134.173 42.2909H135.129ZM135.129 46.2715V43.2471H134.251C132.495 43.2471 131.207 43.7154 131.207 44.8471C131.207 45.9788 132.378 46.3886 133.939 46.3886C134.29 46.3886 134.72 46.3496 135.129 46.2715ZM140.261 33.9395V47.2081H139.09V33.9395H140.261ZM144.359 33.9395V47.2081H143.188V33.9395H144.359ZM154.252 43.0129H147.813V43.0519C147.813 45.1398 149.315 46.3691 150.974 46.3691C152.183 46.3691 153.022 46.0569 153.881 45.413V46.5837C153.12 47.1496 152.027 47.4032 150.974 47.4032C148.515 47.4032 146.642 45.7252 146.642 42.9544C146.642 40.3982 148.398 38.5055 150.681 38.5055C152.827 38.5055 154.252 39.7933 154.252 42.2129V43.0129ZM147.891 42.0373H153.081C153.003 40.2616 152.047 39.5397 150.622 39.5397C149.296 39.5397 148.222 40.4372 147.891 42.0373ZM155.422 39.6958V38.7006H156.73V36.6323H157.901V38.7006H160.301V39.6958H157.901V44.8861C157.901 45.9788 158.33 46.4081 159.13 46.4081C159.676 46.4081 160.125 46.2325 160.71 45.9398V46.974C160.203 47.2276 159.618 47.4032 158.876 47.4032C157.647 47.4032 156.73 46.7593 156.73 45.0032V39.6958H155.422Z" fill="white"/>
<path d="M21.6523 18.0967V16.8662H17.6055V18.1514H20.1484V18.3633C20.1348 19.8262 19.0273 20.8105 17.4141 20.8105C15.5615 20.8105 14.3994 19.375 14.3994 17.0508C14.3994 14.7676 15.5547 13.3252 17.3799 13.3252C18.7266 13.3252 19.6631 13.9746 20.0459 15.1641H21.584C21.249 13.168 19.6221 11.8965 17.3799 11.8965C14.6182 11.8965 12.834 13.9199 12.834 17.0645C12.834 20.25 14.5977 22.2393 17.3936 22.2393C19.9775 22.2393 21.6523 20.6191 21.6523 18.0967Z" fill="white"/>
<path d="M26.3694 15.6631C27.4563 15.6631 28.1673 16.4219 28.2014 17.5908H24.4417C24.5237 16.4287 25.2825 15.6631 26.3694 15.6631ZM28.1946 19.9902C27.9212 20.5713 27.3128 20.8926 26.4241 20.8926C25.2483 20.8926 24.4895 20.0654 24.4417 18.7598V18.6777H29.6985V18.165C29.6985 15.8271 28.4475 14.4121 26.3763 14.4121C24.2776 14.4121 22.9446 15.9229 22.9446 18.3018C22.9446 20.6807 24.2503 22.1436 26.3831 22.1436C28.0852 22.1436 29.2747 21.3232 29.6096 19.9902H28.1946Z" fill="white"/>
<path d="M31.7017 12.7031V14.5898H30.5191V15.8271H31.7017V20.0312C31.7017 21.4668 32.3511 22.041 33.9849 22.041C34.272 22.041 34.5455 22.0068 34.7847 21.9658V20.7422C34.5796 20.7627 34.4498 20.7764 34.2242 20.7764C33.4927 20.7764 33.1714 20.4346 33.1714 19.6553V15.8271H34.7847V14.5898H33.1714V12.7031H31.7017Z" fill="white"/>
</g>
<defs>
<clipPath id="clip0">
<rect width="177" height="62" fill="white"/>
</clipPath>
</defs>
</svg>
